<svg width="24" height="24" viewBox="0 0 24 24" fill="none" xmlns="http://www.w3.org/2000/svg">
<g clip-path="url(#clip0_80_1720)">
<path d="M16.035 3.01505C16.5735 2.47645 17.2967 2.16281 18.0578 2.13774C18.819 2.11267 19.5613 2.37804 20.134 2.88005L20.278 3.01505L20.985 3.72205C21.5233 4.26047 21.8368 4.98343 21.8619 5.74439C21.8869 6.50534 21.6217 7.24737 21.12 7.82005L20.985 7.96405L9.77302 19.177C9.61449 19.3356 9.42245 19.4565 9.21102 19.531L9.04902 19.578L4.59502 20.6061C4.43898 20.6421 4.27657 20.6402 4.12143 20.6005C3.96628 20.5608 3.82293 20.4844 3.70341 20.3778C3.58389 20.2712 3.49168 20.1375 3.43454 19.9879C3.3774 19.8383 3.35699 19.6772 3.37502 19.518L3.39502 19.4051L4.42202 14.95C4.47275 14.7315 4.57185 14.5272 4.71202 14.352L4.82302 14.227L16.035 3.01505ZM15.328 6.55005L6.33802 15.54L5.70202 18.298L8.46002 17.661L17.45 8.67105L15.328 6.55105V6.55005ZM18.864 4.42905C18.6918 4.25687 18.4627 4.15344 18.2197 4.13816C17.9767 4.12288 17.7364 4.1968 17.544 4.34605L17.45 4.42905L16.742 5.13605L18.864 7.25705L19.571 6.55005C19.7432 6.37786 19.8466 6.14876 19.8619 5.90573C19.8772 5.6627 19.8033 5.42245 19.654 5.23005L19.571 5.13605L18.864 4.42905Z" fill="#2B2D42"/>
</g>
<defs>
<clipPath id="clip0_80_1720">
<rect width="24" height="24" fill="white"/>
</clipPath>
</defs>
</svg>
