<svg width="24" height="24" viewBox="0 0 24 24" fill="none" xmlns="http://www.w3.org/2000/svg">
<g clip-path="url(#clip0_52_1052)">
<path d="M16.243 9.87797C16.4152 9.70579 16.6443 9.60236 16.8873 9.58708C17.1303 9.5718 17.3706 9.64572 17.563 9.79497L17.657 9.87797L19.778 12C20.7931 13.0162 21.3704 14.3892 21.3864 15.8255C21.4025 17.2618 20.856 18.6473 19.8639 19.686C18.8717 20.7246 17.5126 21.3339 16.0771 21.3836C14.6416 21.4333 13.2436 20.9195 12.182 19.952L12 19.778L9.879 17.657C9.69775 17.4774 9.59197 17.2354 9.58332 16.9804C9.57467 16.7254 9.6638 16.4768 9.83247 16.2854C10.0011 16.094 10.2366 15.9743 10.4906 15.9508C10.7447 15.9273 10.9981 16.0017 11.199 16.159L11.293 16.242L13.414 18.364C14.0577 19.008 14.9271 19.3758 15.8376 19.3893C16.748 19.4028 17.6279 19.0609 18.2905 18.4362C18.953 17.8116 19.346 16.9533 19.3861 16.0436C19.4261 15.1339 19.1101 14.2444 18.505 13.564L18.364 13.414L16.243 11.293C16.15 11.2001 16.0763 11.0898 16.0259 10.9684C15.9756 10.847 15.9497 10.7169 15.9497 10.5855C15.9497 10.4541 15.9756 10.3239 16.0259 10.2025C16.0763 10.0811 16.15 9.97084 16.243 9.87797ZM9.17 9.17097C9.34219 8.99879 9.57129 8.89536 9.81432 8.88008C10.0573 8.8648 10.2976 8.93872 10.49 9.08797L10.585 9.17097L14.827 13.414C15.0063 13.5939 15.1105 13.8354 15.1182 14.0894C15.126 14.3433 15.0368 14.5907 14.8688 14.7812C14.7007 14.9718 14.4664 15.0913 14.2135 15.1154C13.9606 15.1395 13.708 15.0664 13.507 14.911L13.413 14.828L9.17 10.586C9.07702 10.4931 9.00327 10.3828 8.95294 10.2614C8.90262 10.14 8.87671 10.0099 8.87671 9.87847C8.87671 9.74705 8.90262 9.61693 8.95294 9.49553C9.00327 9.37413 9.07702 9.26384 9.17 9.17097ZM4.22 4.22097C5.2208 3.2202 6.56887 2.64376 7.98382 2.61153C9.39877 2.57931 10.7717 3.09379 11.817 4.04797L11.999 4.22197L14.12 6.34197C14.3013 6.52151 14.407 6.76354 14.4157 7.01852C14.4243 7.27349 14.3352 7.52213 14.1665 7.71355C13.9979 7.90496 13.7624 8.02467 13.5084 8.04817C13.2543 8.07167 13.0009 7.99719 12.8 7.83997L12.706 7.75697L10.585 5.63597C9.94128 4.99195 9.0719 4.62415 8.16143 4.61066C7.25096 4.59716 6.37107 4.93903 5.70854 5.56369C5.04601 6.18835 4.653 7.04662 4.61295 7.95631C4.57289 8.866 4.88894 9.75549 5.494 10.436L5.635 10.586L7.756 12.706C7.93726 12.8855 8.04303 13.1275 8.05168 13.3825C8.06034 13.6375 7.9712 13.8861 7.80254 14.0775C7.63387 14.269 7.39842 14.3887 7.14438 14.4122C6.89034 14.4357 6.63692 14.3612 6.436 14.204L6.342 14.121L4.222 12C3.1906 10.9685 2.61118 9.56962 2.61118 8.11097C2.61118 6.65232 3.1906 5.25341 4.222 4.22197L4.22 4.22097Z" fill="#2B2D42"/>
</g>
<defs>
<clipPath id="clip0_52_1052">
<rect width="24" height="24" fill="white"/>
</clipPath>
</defs>
</svg>
