<svg width="678" height="404" viewBox="0 0 678 404" fill="none" xmlns="http://www.w3.org/2000/svg">
<path d="M505.22 254.8C498.91 219.55 468.64 188.8 432.95 185.86C413.5 184.28 393.95 190.41 374.58 188.07C358.164 186.021 343.057 178.057 332.09 165.67C316.09 147.47 310.68 121.58 293.74 104.26C270.4 80.37 229.67 80 201.27 97.57C172.87 115.14 155.7 146.85 147.84 179.3L147.53 189.17C145.82 222.83 154.68 262 174.21 292C194 322.4 207.01 335 243.07 356.81C273.69 375.37 333.65 383.53 369.45 384.39C405.25 385.25 442.02 374.59 468.95 350.97C495.88 327.35 511.54 290.05 505.22 254.8Z" fill="#DD6E42"/>
<g opacity="0.8">
<path d="M505.22 254.8C498.91 219.55 468.64 188.8 432.95 185.86C413.5 184.28 393.95 190.41 374.58 188.07C358.164 186.021 343.057 178.057 332.09 165.67C316.09 147.47 310.68 121.58 293.74 104.26C270.4 80.37 229.67 80 201.27 97.57C172.87 115.14 155.7 146.85 147.84 179.3L147.53 189.17C145.82 222.83 154.68 262 174.21 292C194 322.4 207.01 335 243.07 356.81C273.69 375.37 333.65 383.53 369.45 384.39C405.25 385.25 442.02 374.59 468.95 350.97C495.88 327.35 511.54 290.05 505.22 254.8Z" fill="white"/>
</g>
<path d="M540.315 380.655C541.683 371.227 535.15 362.474 525.722 361.106C516.294 359.737 507.541 366.27 506.173 375.698C504.804 385.127 511.337 393.879 520.765 395.248C530.193 396.616 538.946 390.083 540.315 380.655Z" fill="#DD6E42"/>
<path opacity="0.8" d="M540.315 380.655C541.683 371.227 535.15 362.474 525.722 361.106C516.294 359.737 507.541 366.27 506.173 375.698C504.804 385.127 511.337 393.879 520.765 395.248C530.193 396.616 538.946 390.083 540.315 380.655Z" fill="white"/>
<path d="M402.16 245.45C402.487 279.89 394.98 306.223 379.64 324.45C364.3 342.677 343.3 351.91 316.64 352.15C289.84 352.41 268.537 343.583 252.73 325.67C236.923 307.757 228.85 281.583 228.51 247.15L227.93 186.59C227.597 152.283 235.103 125.95 250.45 107.59C265.797 89.2301 286.867 79.9368 313.66 79.7101C340.327 79.4501 361.57 88.3401 377.39 106.38C393.21 124.42 401.28 150.59 401.6 184.89L402.16 245.45ZM357.33 178.53C357.11 156.843 353.333 140.83 346 130.49C338.667 120.15 328 115.043 314 115.17C300.047 115.303 289.517 120.613 282.41 131.1C275.303 141.587 271.833 157.67 272 179.35L272.7 252.94C272.907 274.74 276.73 290.843 284.17 301.25C291.61 311.657 302.3 316.793 316.24 316.66C330.18 316.527 340.677 311.217 347.73 300.73C354.783 290.243 358.207 274.04 358 252.12L357.33 178.53Z" fill="#DD6E42"/>
<g opacity="0.4">
<path d="M402.16 245.45C402.487 279.89 394.98 306.223 379.64 324.45C364.3 342.677 343.3 351.91 316.64 352.15C289.84 352.41 268.537 343.583 252.73 325.67C236.923 307.757 228.85 281.583 228.51 247.15L227.93 186.59C227.597 152.283 235.103 125.95 250.45 107.59C265.797 89.2301 286.867 79.9368 313.66 79.7101C340.327 79.4501 361.57 88.3401 377.39 106.38C393.21 124.42 401.28 150.59 401.6 184.89L402.16 245.45ZM357.33 178.53C357.11 156.843 353.333 140.83 346 130.49C338.667 120.15 328 115.043 314 115.17C300.047 115.303 289.517 120.613 282.41 131.1C275.303 141.587 271.833 157.67 272 179.35L272.7 252.94C272.907 274.74 276.73 290.843 284.17 301.25C291.61 311.657 302.3 316.793 316.24 316.66C330.18 316.527 340.677 311.217 347.73 300.73C354.783 290.243 358.207 274.04 358 252.12L357.33 178.53Z" fill="black"/>
</g>
<path d="M427.62 245.21C427.954 279.643 420.447 305.976 405.1 324.21C389.754 342.443 368.754 351.676 342.1 351.91C315.3 352.17 293.997 343.34 278.19 325.42C262.384 307.5 254.32 281.32 254 246.88L253.42 186.32C253.087 152.013 260.594 125.68 275.94 107.32C291.287 88.9598 312.357 79.6631 339.15 79.4298C365.817 79.1831 387.06 88.0731 402.88 106.1C418.7 124.126 426.74 150.31 427 184.65L427.62 245.21ZM382.79 178.29C382.577 156.61 378.784 140.61 371.41 130.29C364.037 119.97 353.37 114.863 339.41 114.97C325.457 115.11 314.927 120.42 307.82 130.9C300.714 141.38 297.26 157.466 297.46 179.16L298.17 252.74C298.384 274.546 302.207 290.653 309.64 301.06C317.074 311.466 327.764 316.603 341.71 316.47C355.65 316.33 366.147 311.02 373.2 300.54C380.254 290.06 383.674 273.853 383.46 251.92L382.79 178.29Z" fill="#DD6E42"/>
<path d="M253.55 189.92C253.6 190.05 247.69 192.4 240.35 195.16C233.01 197.92 227 200 227 199.91C227 199.82 232.86 197.43 240.2 194.67C247.54 191.91 253.5 189.78 253.55 189.92Z" fill="#DD6E42"/>
<path d="M255 213.85C255.05 213.98 249.14 216.33 241.79 219.09C234.44 221.85 228.46 223.97 228.41 223.84C228.36 223.71 234.27 221.36 241.61 218.6C248.95 215.84 255 213.71 255 213.85Z" fill="#DD6E42"/>
<path d="M256.49 237.78C256.54 237.91 250.63 240.26 243.28 243.02C235.93 245.78 230 247.9 229.9 247.77C229.8 247.64 235.76 245.29 243.1 242.53C250.44 239.77 256.44 237.64 256.49 237.78Z" fill="#DD6E42"/>
<path d="M258 261.71C258.05 261.84 252.14 264.19 244.79 266.95C237.44 269.71 231.45 271.83 231.4 271.7C231.35 271.57 237.27 269.22 244.61 266.46C251.95 263.7 257.91 261.57 258 261.71Z" fill="#DD6E42"/>
<path d="M259.43 285.64C259.142 285.825 258.833 285.976 258.51 286.09C257.91 286.35 257.03 286.71 255.95 287.14C253.77 288.01 250.76 289.14 247.42 290.43C244.08 291.72 241.04 292.79 238.83 293.57C237.73 293.96 236.83 294.27 236.21 294.47C235.891 294.604 235.554 294.692 235.21 294.73C235.497 294.542 235.806 294.391 236.13 294.28C236.73 294.02 237.6 293.66 238.69 293.28C240.86 292.41 243.88 291.28 247.22 289.99C250.56 288.7 253.6 287.62 255.81 286.85C256.91 286.46 257.81 286.15 258.43 285.95C258.746 285.796 259.083 285.692 259.43 285.64V285.64Z" fill="#DD6E42"/>
<path d="M266.26 307.53C265.295 308.049 264.292 308.494 263.26 308.86C261.36 309.62 258.73 310.64 255.82 311.74C252.91 312.84 250.25 313.8 248.33 314.47C247.305 314.886 246.248 315.221 245.17 315.47C246.133 314.947 247.136 314.503 248.17 314.14C250.06 313.37 252.69 312.35 255.61 311.26C258.53 310.17 261.17 309.2 263.1 308.53C264.123 308.108 265.18 307.773 266.26 307.53V307.53Z" fill="#DD6E42"/>
<path d="M280.89 327.61C280.029 328.089 279.129 328.493 278.2 328.82C276.51 329.5 274.2 330.41 271.58 331.39C268.96 332.37 266.58 333.22 264.9 333.81C263.987 334.18 263.043 334.471 262.08 334.68C262.938 334.196 263.839 333.791 264.77 333.47C266.45 332.79 268.77 331.88 271.39 330.9C274.01 329.92 276.39 329.07 278.07 328.47C278.983 328.1 279.926 327.812 280.89 327.61V327.61Z" fill="#DD6E42"/>
<path d="M305.2 340.78C304.338 341.252 303.438 341.654 302.51 341.98C300.82 342.67 298.51 343.58 295.89 344.55C293.27 345.52 290.89 346.38 289.21 346.98C288.298 347.35 287.354 347.638 286.39 347.84C287.251 347.361 288.151 346.956 289.08 346.63C290.77 345.95 293.08 345.04 295.7 344.06C298.32 343.08 300.7 342.23 302.38 341.64C303.291 341.264 304.235 340.976 305.2 340.78V340.78Z" fill="#DD6E42"/>
<path d="M378.52 289.71C378.58 289.84 370.99 293.38 361.57 297.62C352.15 301.86 344.46 305.18 344.4 305.05C344.34 304.92 351.93 301.38 361.4 297.14C370.87 292.9 378.46 289.58 378.52 289.71Z" fill="#DD6E42"/>
<path d="M383.5 269.21C383.56 269.34 377.29 272.28 369.5 275.78C361.71 279.28 355.35 282.02 355.29 281.89C355.23 281.76 361.49 278.81 369.29 275.31C377.09 271.81 383.44 269.08 383.5 269.21Z" fill="#DD6E42"/>
<path d="M385.79 246.18C385.85 246.31 379.58 249.25 371.79 252.75C364 256.25 357.64 258.99 357.58 258.86C357.52 258.73 363.78 255.78 371.58 252.28C379.38 248.78 385.73 246 385.79 246.18Z" fill="#DD6E42"/>
<path d="M388.08 223.14C388.14 223.27 381.88 226.22 374.08 229.72C366.28 233.22 359.93 235.95 359.87 235.82C359.81 235.69 366.08 232.75 373.87 229.25C381.66 225.75 388 223 388.08 223.14Z" fill="#DD6E42"/>
<path d="M390.38 200.11C390.43 200.24 384.17 203.19 376.38 206.69C368.59 210.19 362.23 212.92 362.17 212.79C362.11 212.66 368.38 209.72 376.17 206.21C383.96 202.7 390.32 200 390.38 200.11Z" fill="#DD6E42"/>
<path d="M385.79 179.6C385.85 179.73 379.58 182.68 371.79 186.18C364 189.68 357.64 192.41 357.58 192.28C357.52 192.15 363.78 189.2 371.58 185.7C379.38 182.2 385.73 179.47 385.79 179.6Z" fill="#DD6E42"/>
<path d="M385.79 157.52C385.85 157.65 379.58 160.6 371.79 164.1C364 167.6 357.64 170.33 357.58 170.2C357.52 170.07 363.78 167.12 371.58 163.62C379.38 160.12 385.73 157.39 385.79 157.52Z" fill="#DD6E42"/>
<path d="M383.5 136.73C383.56 136.86 377.29 139.8 369.5 143.3C361.71 146.8 355.35 149.54 355.29 149.41C355.23 149.28 361.49 146.33 369.29 142.83C377.09 139.33 383.44 136.6 383.5 136.73Z" fill="#DD6E42"/>
<path d="M363.75 122.24C361.004 123.761 358.177 125.13 355.28 126.34C352.452 127.705 349.551 128.914 346.59 129.96C349.332 128.431 352.16 127.062 355.06 125.86C357.888 124.494 360.789 123.286 363.75 122.24V122.24Z" fill="#DD6E42"/>
<path d="M353.19 113.37C350.442 114.883 347.614 116.248 344.72 117.46C341.892 118.825 338.991 120.034 336.03 121.08C338.777 119.566 341.604 118.204 344.5 117C347.328 115.631 350.229 114.42 353.19 113.37Z" fill="#DD6E42"/>
<path d="M254.68 160.91C254.73 161.04 248.82 163.39 241.48 166.15C234.14 168.91 228.14 171.04 228.09 170.9C228.04 170.76 233.95 168.42 241.3 165.66C248.65 162.9 254.63 160.78 254.68 160.91Z" fill="#DD6E42"/>
<path d="M262 131.07C262.06 131.2 255.64 133.73 247.69 136.73C239.74 139.73 233.23 142.03 233.18 141.9C233.13 141.77 239.54 139.23 247.5 136.24C255.46 133.25 262 130.93 262 131.07Z" fill="#DD6E42"/>
<path d="M281.27 101.53C281.32 101.67 273.19 104.84 263.11 108.63C253.03 112.42 244.82 115.38 244.77 115.25C244.72 115.12 252.85 111.93 262.93 108.14C273.01 104.35 281.22 101.4 281.27 101.53Z" fill="#DD6E42"/>
<path d="M423.31 290L422.89 289.86L421.69 289.39C421.16 289.2 420.47 289.05 419.69 288.83C418.756 288.648 417.81 288.531 416.86 288.48C412.59 288.21 406.19 289.76 400 294.4C396.649 296.939 393.647 299.907 391.07 303.23C388.2 306.74 385.39 310.71 382.2 314.71C378.954 319.001 375.069 322.768 370.68 325.88C365.875 329.121 360.446 331.321 354.74 332.34C349.034 333.367 343.175 333.173 337.55 331.77C332.358 330.408 327.313 328.536 322.49 326.18C317.84 324.03 313.49 321.84 309.35 320.03C305.5 318.329 301.504 316.98 297.41 316C294.035 315.202 290.578 314.806 287.11 314.82C284.493 314.84 281.889 315.193 279.36 315.87C277.77 316.336 276.224 316.942 274.74 317.68L273.6 318.28C273.474 318.358 273.34 318.421 273.2 318.47L273.57 318.24L274.69 317.59C276.161 316.805 277.705 316.165 279.3 315.68C281.84 314.963 284.462 314.577 287.1 314.53C290.595 314.485 294.083 314.857 297.49 315.64C301.603 316.608 305.619 317.947 309.49 319.64C313.67 321.44 318.02 323.64 322.66 325.76C327.465 328.091 332.49 329.94 337.66 331.28C343.223 332.669 349.018 332.86 354.66 331.84C360.295 330.832 365.659 328.662 370.41 325.47C374.766 322.393 378.625 318.667 381.85 314.42C385.04 310.42 387.85 306.48 390.76 302.96C393.359 299.628 396.385 296.652 399.76 294.11C406.04 289.47 412.53 287.95 416.85 288.29C417.811 288.353 418.767 288.483 419.71 288.68C420.51 288.93 421.2 289.09 421.71 289.3L422.9 289.82L423.31 290Z" fill="white"/>
<path d="M429.62 223.3C429.62 223.35 428.91 223.44 427.67 223.85C425.946 224.481 424.32 225.353 422.84 226.44C420.94 227.77 418.84 229.63 416.43 231.55C413.771 233.624 410.89 235.399 407.84 236.84C402.306 239.493 396.307 241.042 390.18 241.4C389.01 241.5 387.94 241.47 387.01 241.49C386.08 241.51 385.28 241.43 384.63 241.38L383.12 241.23C382.947 241.227 382.774 241.197 382.61 241.14C382.783 241.116 382.958 241.116 383.13 241.14L384.64 241.19H387.01C387.94 241.14 389.01 241.19 390.15 241.03C396.212 240.562 402.134 238.979 407.62 236.36C410.634 234.928 413.489 233.185 416.14 231.16C418.57 229.28 420.68 227.43 422.64 226.16C424.168 225.078 425.855 224.241 427.64 223.68C428.126 223.541 428.621 223.434 429.12 223.36C429.283 223.314 429.452 223.294 429.62 223.3V223.3Z" fill="white"/>
<path d="M299 246.47C298.818 246.461 298.637 246.435 298.46 246.39C298.1 246.31 297.57 246.23 296.9 246.04C295.022 245.484 293.221 244.695 291.54 243.69C289.074 242.176 286.733 240.467 284.54 238.58C282.03 236.5 279.35 234.13 276.28 232.01C273.414 229.984 270.196 228.509 266.79 227.66C262.111 226.508 257.22 226.529 252.55 227.72C251.22 228.06 250.5 228.32 250.49 228.27C250.645 228.169 250.813 228.091 250.99 228.04C251.33 227.91 251.83 227.71 252.5 227.52C254.373 226.972 256.302 226.636 258.25 226.52C261.153 226.306 264.071 226.545 266.9 227.23C270.371 228.072 273.652 229.561 276.57 231.62C279.68 233.77 282.36 236.16 284.85 238.25C287.011 240.143 289.311 241.871 291.73 243.42C293.376 244.435 295.13 245.264 296.96 245.89C297.65 246.047 298.331 246.241 299 246.47V246.47Z" fill="white"/>
<path d="M299.17 151.94C298.632 152.19 298.073 152.394 297.5 152.55C296.844 152.781 296.176 152.978 295.5 153.14C294.71 153.34 293.82 153.61 292.81 153.79C291.8 153.97 290.71 154.22 289.51 154.37C288.31 154.52 287.04 154.66 285.69 154.78C282.758 154.966 279.816 154.929 276.89 154.67C273.966 154.377 271.068 153.866 268.22 153.14C266.92 152.77 265.67 152.43 264.54 152.02C263.41 151.61 262.35 151.23 261.41 150.84C260.47 150.45 259.63 150.04 258.89 149.7C258.15 149.36 257.54 149.03 257.04 148.75C256.511 148.486 256.003 148.182 255.52 147.84C256.074 148.044 256.612 148.288 257.13 148.57C257.64 148.82 258.27 149.13 259.01 149.44C259.75 149.75 260.59 150.15 261.55 150.49C262.51 150.83 263.55 151.26 264.68 151.61C265.81 151.96 267.04 152.32 268.34 152.67C273.996 154.096 279.837 154.646 285.66 154.3C287 154.19 288.27 154.12 289.46 153.94C290.65 153.76 291.74 153.61 292.74 153.43C293.74 153.25 294.63 153.03 295.42 152.86C296.21 152.69 296.89 152.51 297.42 152.36C297.993 152.178 298.577 152.038 299.17 151.94V151.94Z" fill="white"/>
<path d="M423.94 151.69C423.793 151.636 423.652 151.565 423.52 151.48L422.36 150.81C421.759 150.444 421.138 150.11 420.5 149.81C419.679 149.369 418.834 148.972 417.97 148.62L416.47 147.99C415.94 147.78 415.38 147.62 414.8 147.42C413.66 147 412.39 146.71 411.06 146.36C405.247 145.037 399.216 144.986 393.38 146.21C392.111 146.479 390.856 146.812 389.62 147.21C389.04 147.4 388.47 147.55 387.94 147.75L386.43 148.35C385.561 148.69 384.71 149.074 383.88 149.5C383.236 149.793 382.612 150.127 382.01 150.5L380.83 151.15C380.56 151.29 380.41 151.36 380.4 151.34C380.514 151.23 380.642 151.136 380.78 151.06L381.9 150.32C382.493 149.926 383.111 149.572 383.75 149.26C384.571 148.799 385.42 148.388 386.29 148.03L387.8 147.39C388.33 147.18 388.91 147.02 389.49 146.82C390.733 146.401 391.999 146.05 393.28 145.77C399.18 144.476 405.295 144.531 411.17 145.93C412.51 146.29 413.79 146.6 414.94 147.04C415.52 147.25 416.09 147.42 416.61 147.65L418.12 148.31C418.981 148.691 419.822 149.114 420.64 149.58C421.27 149.907 421.878 150.274 422.46 150.68L423.58 151.44C423.83 151.57 424 151.67 423.94 151.69Z" fill="white"/>
<path d="M362.8 83.7598C362.575 83.9297 362.334 84.0771 362.08 84.1998L360 85.3498C358.15 86.3498 355.47 87.7398 352.11 89.4198C345.41 92.7298 336 97.2598 324.86 100.08C319.623 101.396 314.258 102.141 308.86 102.3C304.454 102.429 300.049 102.049 295.73 101.17C292.819 100.585 289.972 99.7179 287.23 98.5798C286.23 98.1998 285.54 97.7998 285.04 97.5798C284.781 97.4683 284.53 97.338 284.29 97.1898C284.564 97.2606 284.828 97.3612 285.08 97.4898C285.6 97.6798 286.32 98.0498 287.31 98.3998C290.062 99.4596 292.903 100.27 295.8 100.82C300.099 101.641 304.476 101.976 308.85 101.82C314.205 101.634 319.525 100.88 324.72 99.5698C335.79 96.7698 345.21 92.3198 351.94 89.0898L359.94 85.1598L362 84.0998C362.259 83.9691 362.526 83.8556 362.8 83.7598Z" fill="white"/>
<path d="M162.06 258L195.49 259.46L193.94 294.89L160.51 293.43L157.94 352.3L113.94 350.38L116.51 291.51L3 286.55L3.09 259.55L124.09 85.75L169.51 87.75L162.06 258ZM47.06 253L118.06 256.1L122.74 148.72L121.67 148.31L117.67 155.96L47.06 253Z" fill="#DD6E42"/>
<g opacity="0.4">
<path d="M162.06 258L195.49 259.46L193.94 294.89L160.51 293.43L157.94 352.3L113.94 350.38L116.51 291.51L3 286.55L3.09 259.55L124.09 85.75L169.51 87.75L162.06 258ZM47.06 253L118.06 256.1L122.74 148.72L121.67 148.31L117.67 155.96L47.06 253Z" fill="black"/>
</g>
<path d="M190 259.22L223.43 260.68L221.88 296.11L188.45 294.65L185.88 353.52L141.88 351.6L144.45 292.73L30.8901 287.73L30.9801 260.73L152 87L197.43 89L190 259.22ZM75.0001 254.22L146.05 257.32L150.73 149.94L149.66 149.53L145.66 157.18L75.0001 254.22Z" fill="#DD6E42"/>
<path d="M31.5902 265.92C31.2543 266.163 30.892 266.368 30.5102 266.53C29.8002 266.89 28.7602 267.39 27.5102 267.99C24.9402 269.2 21.3502 270.81 17.3402 272.51C13.3302 274.21 9.68016 275.65 7.02016 276.66C5.69016 277.16 4.60015 277.55 3.85015 277.81C3.46633 277.969 3.06772 278.089 2.66016 278.17C3.01098 277.944 3.38682 277.759 3.78016 277.62L6.88016 276.31L17.1002 272L27.3202 267.63L30.4302 266.31C30.8025 266.141 31.1912 266.01 31.5902 265.92Z" fill="#DD6E42"/>
<path d="M47.87 236C47.3854 236.298 46.8809 236.562 46.36 236.79C45.36 237.27 43.94 237.95 42.16 238.79C38.59 240.41 33.64 242.58 28.16 244.91C22.68 247.24 17.61 249.23 14 250.65C12.18 251.37 10.7 251.93 9.66004 252.3C9.13742 252.523 8.59506 252.698 8.04004 252.82C8.53952 252.547 9.05745 252.31 9.59004 252.11L13.86 250.31L27.97 244.38L42.05 238.38L46.32 236.57C46.8178 236.332 47.3367 236.141 47.87 236V236Z" fill="#DD6E42"/>
<path d="M67.7404 209.27C67.2372 209.581 66.7087 209.848 66.1604 210.07C65.1604 210.55 63.6304 211.23 61.7704 212.07C58.0404 213.7 52.8704 215.87 47.1304 218.2C41.3904 220.53 36.1304 222.56 32.3404 223.99C30.4404 224.7 28.8904 225.26 27.8204 225.63C27.274 225.854 26.7083 226.028 26.1304 226.15C26.6544 225.878 27.1955 225.641 27.7504 225.44L32.2104 223.64L46.9304 217.71L61.6204 211.71L66.0804 209.9C66.6166 209.648 67.1716 209.437 67.7404 209.27V209.27Z" fill="#DD6E42"/>
<path d="M147.33 240.11C146.99 240.346 146.624 240.544 146.24 240.7C145.53 241.05 144.49 241.53 143.19 242.11C140.61 243.28 137.01 244.83 133 246.46C128.99 248.09 125.32 249.46 122.66 250.46C121.32 250.94 120.24 251.32 119.49 251.57C119.105 251.717 118.706 251.828 118.3 251.9C118.649 251.684 119.021 251.509 119.41 251.38L122.53 250.12L132.81 246L143.05 241.8L146.16 240.53C146.534 240.347 146.926 240.206 147.33 240.11V240.11Z" fill="#DD6E42"/>
<path d="M144.09 295.05C143.763 295.285 143.411 295.483 143.04 295.64C142.35 295.98 141.34 296.47 140.09 297.05C137.59 298.22 134.09 299.77 130.22 301.39C126.35 303.01 122.77 304.39 120.22 305.39C118.92 305.87 117.87 306.25 117.14 306.49C116.767 306.645 116.378 306.759 115.98 306.83C116.319 306.613 116.681 306.435 117.06 306.3L120.06 305.04L130.06 300.93L139.98 296.73L142.98 295.47C143.334 295.291 143.706 295.151 144.09 295.05Z" fill="#DD6E42"/>
<path d="M143.63 314.31C143.32 314.54 142.984 314.735 142.63 314.89C141.94 315.24 140.93 315.72 139.63 316.31C137.13 317.47 133.63 319.02 129.75 320.65C125.87 322.28 122.31 323.65 119.75 324.65C118.46 325.13 117.41 325.51 116.67 325.76C116.303 325.92 115.916 326.031 115.52 326.09C115.862 325.882 116.224 325.708 116.6 325.57L119.6 324.31L129.6 320.2L139.53 316L142.53 314.74C142.877 314.552 143.247 314.407 143.63 314.31V314.31Z" fill="#DD6E42"/>
<path d="M143.17 333.56C142.857 333.789 142.522 333.987 142.17 334.15C141.48 334.5 140.47 334.98 139.17 335.56C136.66 336.73 133.17 338.28 129.29 339.9C125.41 341.52 121.85 342.9 119.29 343.9C118 344.38 116.94 344.76 116.21 345C115.84 345.153 115.454 345.267 115.06 345.34C115.399 345.123 115.761 344.945 116.14 344.81L119.14 343.56L129.14 339.44L139.07 335.24L142.07 333.98C142.42 333.8 142.789 333.659 143.17 333.56V333.56Z" fill="#DD6E42"/>
<path d="M147.85 219.77C147.506 220.001 147.141 220.199 146.76 220.36C146.05 220.71 145.01 221.19 143.76 221.77C141.18 222.94 137.58 224.49 133.57 226.12C129.56 227.75 125.89 229.12 123.23 230.12C121.89 230.6 120.81 230.98 120.06 231.22C119.676 231.373 119.277 231.487 118.87 231.56C119.216 231.337 119.589 231.159 119.98 231.03L123.1 229.77L133.38 225.66L143.62 221.46L146.73 220.2C147.087 220.017 147.463 219.873 147.85 219.77V219.77Z" fill="#DD6E42"/>
<path d="M148.37 199.43C148.027 199.661 147.662 199.858 147.28 200.02C146.57 200.36 145.53 200.85 144.23 201.43C141.65 202.6 138.05 204.15 134.04 205.77C130.03 207.39 126.37 208.77 123.7 209.77C122.36 210.25 121.28 210.62 120.53 210.87C120.146 211.022 119.747 211.136 119.34 211.21C119.689 210.986 120.066 210.808 120.46 210.68L123.57 209.42L133.85 205.31L144.09 201.11L147.2 199.85C147.574 199.667 147.966 199.526 148.37 199.43Z" fill="#DD6E42"/>
<path d="M148.89 179.09C148.576 179.309 148.241 179.497 147.89 179.65C147.22 179.98 146.23 180.44 145 181C142.53 182.12 139.11 183.61 135.29 185.15C131.47 186.69 127.97 188.02 125.43 188.93C124.16 189.38 123.13 189.74 122.43 189.93C122.063 190.079 121.681 190.186 121.29 190.25C121.626 190.039 121.985 189.868 122.36 189.74L125.36 188.54L135.15 184.63L144.91 180.63L147.91 179.43C148.223 179.28 148.552 179.166 148.89 179.09V179.09Z" fill="#DD6E42"/>
<path d="M151.19 160.08C149.593 160.944 147.919 161.658 146.19 162.21C144.516 162.923 142.778 163.475 141 163.86C142.597 162.993 144.27 162.277 146 161.72C147.673 161.008 149.411 160.458 151.19 160.08V160.08Z" fill="#DD6E42"/>
<path d="M87.5702 181.59C87.066 181.892 86.5414 182.16 86.0002 182.39C85.0002 182.87 83.4702 183.54 81.6002 184.39C77.8802 186.02 72.7102 188.19 66.9602 190.52C61.2102 192.85 55.9602 194.89 52.1802 196.31C50.2802 197.02 48.7302 197.58 47.6602 197.95C47.1095 198.165 46.5449 198.342 45.9702 198.48C46.4886 198.194 47.0306 197.953 47.5902 197.76L52.0502 195.97L66.7702 190L81.4602 184L85.9102 182.19C86.4496 181.953 87.0042 181.753 87.5702 181.59V181.59Z" fill="#DD6E42"/>
<path d="M107.41 153.9C106.907 154.211 106.378 154.478 105.83 154.7C104.83 155.18 103.3 155.86 101.44 156.7C97.7201 158.32 92.5401 160.5 86.8001 162.82C81.0601 165.14 75.8001 167.19 72.0201 168.61C70.1101 169.33 68.5701 169.89 67.4901 170.26C66.9462 170.482 66.3841 170.656 65.8101 170.78C66.3286 170.504 66.8667 170.267 67.4201 170.07L71.8801 168.27L86.6001 162.34L101.3 156.34L105.75 154.52C106.287 154.273 106.842 154.065 107.41 153.9V153.9Z" fill="#DD6E42"/>
<path d="M125.74 126.22C125.233 126.523 124.705 126.791 124.16 127.02C123.16 127.5 121.63 128.17 119.77 129.02C116.05 130.65 110.87 132.82 105.13 135.15C99.3901 137.48 94.1301 139.52 90.3501 140.94C88.4501 141.65 86.9001 142.21 85.8301 142.58C85.2794 142.794 84.7148 142.972 84.1401 143.11C84.6585 142.824 85.2005 142.583 85.7601 142.39L90.2201 140.6L104.94 134.67L119.63 128.67L124.08 126.86C124.614 126.598 125.169 126.384 125.74 126.22V126.22Z" fill="#DD6E42"/>
<path d="M144.82 99.6001C144.311 99.9009 143.784 100.168 143.24 100.4C142.24 100.88 140.71 101.55 138.85 102.4C135.12 104.03 129.95 106.2 124.21 108.53C118.47 110.86 113.21 112.9 109.42 114.32C107.52 115.03 105.98 115.59 104.9 115.96C104.35 116.178 103.786 116.355 103.21 116.49C103.73 116.207 104.271 115.966 104.83 115.77L109.29 113.98L124 108L138.69 102L143.15 100.19C143.691 99.9526 144.25 99.7554 144.82 99.6001V99.6001Z" fill="#DD6E42"/>
<path d="M195.44 140.27C195.273 140.512 195.078 140.733 194.86 140.93C194.295 141.551 193.69 142.136 193.05 142.68C190.718 144.716 188.1 146.401 185.28 147.68C181.074 149.57 176.53 150.59 171.92 150.68C169.195 150.73 166.476 150.424 163.83 149.77C161.006 149.047 158.267 148.024 155.66 146.72C150.28 144.1 145.5 141.01 140.83 138.86C136.737 136.853 132.282 135.69 127.73 135.44C124.663 135.283 121.603 135.855 118.8 137.11C118.045 137.464 117.319 137.879 116.63 138.35C116.395 138.524 116.148 138.681 115.89 138.82C116.103 138.621 116.331 138.437 116.57 138.27C117.242 137.76 117.958 137.311 118.71 136.93C121.515 135.59 124.604 134.952 127.71 135.07C132.326 135.289 136.849 136.449 141 138.48C145.72 140.63 150.52 143.71 155.85 146.31C158.432 147.588 161.14 148.594 163.93 149.31C166.529 149.958 169.202 150.267 171.88 150.23C179.557 150.124 186.967 147.397 192.88 142.5C193.73 141.82 194.33 141.22 194.75 140.83C194.965 140.625 195.196 140.438 195.44 140.27Z" fill="white"/>
<path d="M181.52 90.8301C181.117 91.11 180.692 91.3574 180.25 91.5701C179.42 92.0201 178.18 92.5701 176.62 93.2701C174.792 94.0391 172.922 94.7068 171.02 95.2701C166.36 96.6612 161.541 97.4476 156.68 97.6101C154.68 97.683 152.676 97.6429 150.68 97.4901C148.99 97.3601 147.68 97.2001 146.68 97.0301C146.193 96.9754 145.711 96.8784 145.24 96.7401C145.732 96.7229 146.224 96.7531 146.71 96.8301C147.64 96.9401 149 97.0401 150.71 97.1201C152.42 97.2001 154.4 97.2201 156.62 97.1201C159.025 97.0009 161.422 96.7539 163.8 96.3801C166.159 95.9748 168.496 95.4474 170.8 94.8001C172.93 94.1801 174.8 93.5401 176.39 92.9201C177.98 92.3001 179.21 91.7701 180.07 91.3801C180.535 91.151 181.02 90.9668 181.52 90.8301V90.8301Z" fill="white"/>
<path d="M110.52 201.89C110.191 201.585 109.889 201.25 109.62 200.89L107.26 198.07C104.626 195.005 101.829 192.084 98.8802 189.32C97.2793 187.802 95.5191 186.46 93.6302 185.32C92.085 184.396 90.3944 183.74 88.6302 183.38C86.9931 183.087 85.3172 183.087 83.6802 183.38C83.6802 183.38 83.7902 183.32 84.0102 183.25C84.3356 183.142 84.6704 183.065 85.0102 183.02C86.2382 182.814 87.4921 182.814 88.7202 183.02C90.5424 183.337 92.2932 183.977 93.8902 184.91C95.8315 186.054 97.6336 187.42 99.2602 188.98C102.23 191.75 105.003 194.724 107.56 197.88C108.56 199.09 109.3 200.1 109.8 200.8C110.078 201.137 110.32 201.502 110.52 201.89V201.89Z" fill="white"/>
<path d="M190.29 232.1C190.29 232.1 190.16 232.22 189.9 232.4C189.64 232.58 189.25 232.87 188.71 233.17C187.209 234.05 185.633 234.796 184 235.4C178.592 237.442 172.717 237.911 167.053 236.752C161.39 235.592 156.171 232.853 152 228.85C150.736 227.662 149.584 226.36 148.56 224.96C148.19 224.47 147.95 224.06 147.77 223.79C147.59 223.52 147.51 223.37 147.53 223.36C147.954 223.831 148.351 224.325 148.72 224.84C149.801 226.174 150.981 227.424 152.25 228.58C156.424 232.438 161.575 235.08 167.143 236.221C172.711 237.361 178.486 236.956 183.84 235.05C185.462 234.488 187.037 233.799 188.55 232.99C189.114 232.662 189.695 232.365 190.29 232.1Z" fill="white"/>
<path d="M219.42 295.42C219.42 295.42 219.32 295.27 219.14 294.95C218.96 294.63 218.68 294.17 218.34 293.57C217.337 291.792 216.193 290.096 214.92 288.5L213.56 286.9L212.83 286.03L211.98 285.2L210.18 283.42L208.08 281.68C204.726 279.015 201.026 276.818 197.08 275.15C192.317 273.136 187.243 271.955 182.08 271.66C176.137 271.341 170.195 272.296 164.65 274.46C158.8 276.76 153.15 280.23 147.17 283.59C144.142 285.34 141.006 286.896 137.78 288.25C134.438 289.657 130.913 290.583 127.31 291C123.705 291.363 120.066 291.143 116.53 290.35C113.109 289.597 109.779 288.474 106.6 287C100.646 284.119 94.9807 280.677 89.6804 276.72C84.5504 273.07 79.6804 269.54 74.8704 266.72C70.4481 264.012 65.6543 261.964 60.6404 260.64C56.4857 259.617 52.1835 259.333 47.9304 259.8C44.7193 260.133 41.5935 261.038 38.7004 262.47C36.8904 263.397 35.2095 264.557 33.7004 265.92L32.5404 267C32.2904 267.25 32.1504 267.37 32.1504 267.37C32.1504 267.37 32.2604 267.23 32.5104 266.96L33.6004 265.79C35.1002 264.388 36.782 263.194 38.6004 262.24C41.5076 260.761 44.6582 259.819 47.9004 259.46C52.189 258.957 56.5328 259.217 60.7304 260.23C65.7844 261.547 70.6212 263.588 75.0904 266.29C79.9604 269.11 84.8204 272.63 89.9604 276.29C95.2409 280.217 100.883 283.632 106.81 286.49C109.951 287.963 113.244 289.086 116.63 289.84C120.117 290.619 123.706 290.836 127.26 290.48C130.807 290.069 134.278 289.16 137.57 287.78C140.775 286.432 143.894 284.889 146.91 283.16C152.91 279.81 158.55 276.33 164.45 274.02C165.906 273.448 167.395 272.967 168.91 272.58C169.66 272.39 170.4 272.16 171.14 272.01L173.38 271.64C176.259 271.211 179.174 271.077 182.08 271.24C187.305 271.551 192.437 272.763 197.25 274.82C201.199 276.529 204.899 278.762 208.25 281.46C208.97 282.07 209.67 282.67 210.35 283.23L212.14 285.04L212.98 285.88C213.23 286.18 213.48 286.47 213.71 286.76C214.19 287.33 214.64 287.87 215.06 288.39C216.323 290.003 217.444 291.723 218.41 293.53C218.737 294.143 218.987 294.613 219.16 294.94C219.35 295.25 219.42 295.42 219.42 295.42Z" fill="white"/>
<path d="M189.2 337.19C189.037 337.255 188.865 337.299 188.69 337.32L187.21 337.6C186.433 337.756 185.649 337.873 184.86 337.95C183.94 338.04 182.86 338.19 181.72 338.22L179.88 338.3C179.25 338.3 178.58 338.3 177.88 338.3C176.51 338.3 175.04 338.17 173.5 338.05C170.163 337.685 166.861 337.043 163.63 336.13C160.415 335.162 157.284 333.931 154.27 332.45C152.91 331.72 151.6 331.05 150.44 330.3C149.86 329.94 149.28 329.61 148.75 329.3L147.25 328.25C146.25 327.6 145.48 326.91 144.75 326.33C144.119 325.846 143.515 325.329 142.94 324.78C142.51 324.36 142.14 324.02 141.85 323.78C141.715 323.665 141.594 323.534 141.49 323.39C141.645 323.476 141.789 323.58 141.92 323.7L143.08 324.7C143.57 325.12 144.18 325.63 144.93 326.17C145.68 326.71 146.48 327.39 147.46 328.02L148.97 329.02C149.5 329.37 150.08 329.69 150.66 330.02C151.82 330.75 153.13 331.4 154.49 332.11C160.471 335.058 166.922 336.936 173.55 337.66C175.08 337.79 176.55 337.95 177.9 337.96C178.58 337.96 179.24 338.02 179.9 337.96H181.72C182.88 337.96 183.93 337.83 184.85 337.77C185.77 337.71 186.56 337.61 187.2 337.51L188.69 337.33C188.852 337.258 189.024 337.211 189.2 337.19Z" fill="white"/>
<path d="M596.32 258.41L629.62 255.16L633.07 290.45L599.77 293.71L605.5 352.35L561.7 356.64L556 298L442.84 309.06L439.13 282.33L534.48 93.2401L579.73 88.8101L596.32 258.41ZM481.74 269.62L552.51 262.7L542.05 155.7L540.93 155.45L538.07 163.59L481.74 269.62Z" fill="#DD6E42"/>
<g opacity="0.4">
<path d="M596.32 258.41L629.62 255.16L633.07 290.45L599.77 293.71L605.5 352.35L561.7 356.64L556 298L442.84 309.06L439.13 282.33L534.48 93.2401L579.73 88.8101L596.32 258.41ZM481.74 269.62L552.51 262.7L542.05 155.7L540.93 155.45L538.07 163.59L481.74 269.62Z" fill="black"/>
</g>
<path d="M624.17 255.69L657.47 252.43L660.93 287.73L627.62 291L633.36 349.65L589.55 353.93L583.82 295.29L470.69 306.33L467 279.61L562.35 90.5198L607.6 86.0898L624.17 255.69ZM509.6 266.89L580.37 260L569.91 153L568.78 152.74L565.93 160.88L509.6 266.89Z" fill="#DD6E42"/>
<path d="M468.26 284.61C467.954 284.894 467.619 285.145 467.26 285.36C466.61 285.82 465.65 286.46 464.46 287.24C462.07 288.8 458.75 290.9 455.02 293.14C451.29 295.38 447.88 297.33 445.38 298.7C444.14 299.38 443.12 299.93 442.38 300.29C442.022 300.501 441.643 300.676 441.25 300.81C441.554 300.537 441.89 300.302 442.25 300.11L445.14 298.38L454.7 292.69L464.2 286.93L467.09 285.19C467.456 284.952 467.849 284.757 468.26 284.61V284.61Z" fill="#DD6E42"/>
<path d="M480.16 252.67C479.727 253.039 479.265 253.373 478.78 253.67C477.88 254.28 476.55 255.15 474.9 256.21C471.6 258.32 467 261.21 461.9 264.21C456.8 267.21 452.1 270.02 448.69 271.94C446.99 272.94 445.6 273.67 444.63 274.18C444.139 274.466 443.627 274.717 443.1 274.93C443.551 274.582 444.029 274.271 444.53 274L448.53 271.62L461.66 263.77L474.75 255.86L478.75 253.47C479.199 253.168 479.67 252.9 480.16 252.67V252.67Z" fill="#DD6E42"/>
<path d="M496.08 223.44C495.623 223.81 495.139 224.145 494.63 224.44C493.63 225.06 492.29 225.94 490.56 227.01C487.1 229.14 482.28 232.01 476.92 235.13C471.56 238.25 466.67 241 463.1 243C461.32 244 459.87 244.75 458.86 245.27C458.347 245.56 457.812 245.811 457.26 246.02C457.736 245.673 458.238 245.362 458.76 245.09L462.92 242.68L476.66 234.74L490.37 226.74L494.52 224.32C495.017 223.987 495.539 223.693 496.08 223.44V223.44Z" fill="#DD6E42"/>
<path d="M579.22 242.78C578.915 243.059 578.579 243.304 578.22 243.51C577.57 243.96 576.6 244.58 575.41 245.34C573.01 246.86 569.67 248.9 565.93 251.08C562.19 253.26 558.75 255.14 556.24 256.46C554.99 257.13 553.97 257.65 553.24 258C552.883 258.206 552.504 258.374 552.11 258.5C552.419 258.238 552.754 258.01 553.11 257.82L556.02 256.14L565.61 250.62L575.16 245.03L578.07 243.34C578.431 243.11 578.817 242.922 579.22 242.78Z" fill="#DD6E42"/>
<path d="M583.74 297.62C583.438 297.903 583.102 298.148 582.74 298.35C582.11 298.79 581.18 299.41 580.02 300.17C577.71 301.67 574.48 303.7 570.86 305.86C567.24 308.02 563.91 309.86 561.48 311.2C560.27 311.86 559.28 312.38 558.59 312.73C558.245 312.937 557.875 313.102 557.49 313.22C557.799 312.962 558.134 312.738 558.49 312.55L561.3 310.88L570.59 305.41L579.83 299.85L582.64 298.18C582.983 297.95 583.352 297.762 583.74 297.62V297.62Z" fill="#DD6E42"/>
<path d="M586 316.75C585.697 317.033 585.362 317.278 585 317.48C584.37 317.92 583.44 318.54 582.28 319.3C579.97 320.8 576.74 322.83 573.12 324.98C569.5 327.13 566.17 328.98 563.74 330.33C562.53 330.99 561.54 331.51 560.85 331.86C560.504 332.067 560.135 332.232 559.75 332.35C560.059 332.092 560.394 331.868 560.75 331.68L563.56 330.01L572.85 324.54L582.09 318.98L584.9 317.31C585.243 317.08 585.612 316.892 586 316.75V316.75Z" fill="#DD6E42"/>
<path d="M588.24 335.88C587.938 336.163 587.602 336.408 587.24 336.61C586.61 337.05 585.68 337.67 584.52 338.42C582.21 339.93 578.98 341.96 575.36 344.11C571.74 346.26 568.41 348.11 565.98 349.46C564.77 350.12 563.78 350.64 563.09 350.99C562.742 351.191 562.373 351.356 561.99 351.48C562.299 351.222 562.634 350.997 562.99 350.81L565.8 349.14L575.09 343.67L584.33 338.11L587.14 336.44C587.483 336.21 587.852 336.022 588.24 335.88V335.88Z" fill="#DD6E42"/>
<path d="M576.87 222.56C576.563 222.84 576.228 223.088 575.87 223.3C575.21 223.74 574.25 224.37 573.05 225.13C570.65 226.64 567.31 228.69 563.57 230.86C559.83 233.03 556.39 234.92 553.89 236.25C552.63 236.91 551.61 237.44 550.89 237.79C550.533 237.997 550.154 238.164 549.76 238.29C550.07 238.031 550.405 237.803 550.76 237.61L553.66 235.93L563.26 230.41L572.81 224.81L575.71 223.13C576.076 222.9 576.465 222.709 576.87 222.56V222.56Z" fill="#DD6E42"/>
<path d="M574.52 202.35C574.216 202.634 573.88 202.882 573.52 203.09C572.86 203.53 571.9 204.15 570.7 204.91C568.31 206.43 564.97 208.48 561.22 210.65C557.47 212.82 554.05 214.71 551.54 216.04C550.29 216.7 549.27 217.23 548.54 217.58C548.186 217.79 547.806 217.955 547.41 218.07C547.718 217.81 548.053 217.586 548.41 217.4L551.31 215.71L560.91 210.2L570.46 204.6L573.36 202.91C573.727 202.684 574.115 202.497 574.52 202.35V202.35Z" fill="#DD6E42"/>
<path d="M572.18 182.14C571.895 182.408 571.579 182.643 571.24 182.84C570.61 183.27 569.69 183.84 568.55 184.59C566.28 186.04 563.1 187.99 559.55 190.06C556 192.13 552.71 193.93 550.32 195.19L547.47 196.65C547.128 196.845 546.766 197.003 546.39 197.12C546.701 196.87 547.036 196.652 547.39 196.47L550.15 194.86L559.3 189.61L568.39 184.27L571.16 182.67C571.479 182.456 571.822 182.278 572.18 182.14V182.14Z" fill="#DD6E42"/>
<path d="M571.78 163C570.321 164.088 568.76 165.032 567.12 165.82C565.559 166.757 563.915 167.551 562.21 168.19C563.669 167.102 565.23 166.158 566.87 165.37C568.43 164.431 570.074 163.637 571.78 163V163Z" fill="#DD6E42"/>
<path d="M511.82 193.24C511.368 193.612 510.887 193.946 510.38 194.24C509.38 194.86 508.03 195.74 506.3 196.81C502.85 198.94 498.03 201.81 492.67 204.93C487.31 208.05 482.42 210.8 478.85 212.74C477.07 213.74 475.61 214.49 474.6 215.01C474.088 215.296 473.557 215.546 473.01 215.76C473.484 215.41 473.986 215.098 474.51 214.83L478.67 212.42L492.41 204.48L506.11 196.48L510.27 194.06C510.767 193.749 511.285 193.475 511.82 193.24V193.24Z" fill="#DD6E42"/>
<path d="M527.57 163C527.113 163.37 526.628 163.705 526.12 164C525.12 164.62 523.78 165.5 522.05 166.57C518.59 168.7 513.77 171.57 508.42 174.69C503.07 177.81 498.16 180.56 494.59 182.5C492.81 183.5 491.36 184.25 490.35 184.77C489.836 185.06 489.301 185.311 488.75 185.52C489.226 185.173 489.727 184.862 490.25 184.59L494.41 182.18L508.15 174.24L521.86 166.24L526.02 163.82C526.515 163.507 527.033 163.233 527.57 163Z" fill="#DD6E42"/>
<path d="M541.83 133.05C541.373 133.42 540.889 133.754 540.38 134.05C539.38 134.67 538.04 135.55 536.31 136.62C532.85 138.75 528.03 141.62 522.67 144.74C517.31 147.86 512.42 150.61 508.85 152.55C507.07 153.55 505.62 154.3 504.61 154.82C504.095 155.108 503.561 155.358 503.01 155.57C503.486 155.223 503.988 154.912 504.51 154.64L508.67 152.23L522.41 144.29L536.12 136.29L540.27 133.87C540.768 133.555 541.289 133.281 541.83 133.05V133.05Z" fill="#DD6E42"/>
<path d="M557 104C556.543 104.37 556.059 104.705 555.55 105C554.6 105.62 553.21 106.5 551.48 107.57C548.02 109.7 543.2 112.57 537.84 115.7C532.48 118.83 527.59 121.56 524.02 123.51C522.24 124.51 520.79 125.25 519.78 125.77C519.267 126.063 518.732 126.317 518.18 126.53C518.651 126.172 519.153 125.858 519.68 125.59L523.84 123.19L537.58 115.19L551.29 107.19L555.44 104.77C555.94 104.475 556.462 104.218 557 104V104Z" fill="#DD6E42"/>
<path d="M612.81 137.16C612.672 137.417 612.512 137.661 612.33 137.89C611.857 138.589 611.34 139.257 610.78 139.89C608.757 142.243 606.398 144.285 603.78 145.95C599.889 148.433 595.535 150.1 590.98 150.85C588.292 151.28 585.559 151.357 582.85 151.08C579.952 150.76 577.096 150.133 574.33 149.21C568.63 147.38 563.47 144.99 558.54 143.51C554.206 142.115 549.636 141.602 545.1 142C542.041 142.279 539.091 143.276 536.49 144.91C535.786 145.369 535.118 145.88 534.49 146.44C534.289 146.65 534.068 146.841 533.83 147.01C534.008 146.78 534.205 146.565 534.42 146.37C535.013 145.77 535.659 145.224 536.35 144.74C538.948 143.016 541.928 141.952 545.03 141.64C549.629 141.157 554.277 141.62 558.69 143C563.69 144.47 568.85 146.84 574.49 148.67C577.225 149.577 580.047 150.201 582.91 150.53C585.575 150.802 588.263 150.732 590.91 150.32C595.407 149.604 599.715 147.996 603.58 145.59C606.174 143.962 608.529 141.983 610.58 139.71C611.151 139.099 611.688 138.458 612.19 137.79C612.382 137.565 612.589 137.355 612.81 137.16V137.16Z" fill="white"/>
<path d="M592.07 90.1699C591.715 90.5075 591.33 90.8121 590.92 91.0799C590.16 91.6499 589.02 92.3999 587.57 93.2699C585.869 94.2891 584.113 95.2139 582.31 96.0399C580.096 97.0406 577.825 97.9121 575.51 98.6499C573.186 99.3649 570.822 99.9426 568.43 100.38C566.477 100.722 564.508 100.962 562.53 101.1C560.84 101.21 559.47 101.23 558.53 101.2C558.038 101.221 557.546 101.191 557.06 101.11C557.542 101.028 558.031 100.991 558.52 101C559.46 101 560.82 100.88 562.52 100.73C564.22 100.58 566.18 100.31 568.36 99.9099C570.722 99.4456 573.058 98.8615 575.36 98.1599C577.657 97.4277 579.914 96.5732 582.12 95.5999C584.12 94.6899 585.93 93.7899 587.39 92.9499C588.85 92.1099 590.02 91.4199 590.81 90.9499C591.207 90.6538 591.628 90.3928 592.07 90.1699V90.1699Z" fill="white"/>
<path d="M537.4 210.11C537.042 209.847 536.707 209.552 536.4 209.23L533.66 206.78C530.624 204.114 527.446 201.613 524.14 199.29C522.341 197.997 520.406 196.904 518.37 196.03C516.711 195.334 514.946 194.924 513.15 194.82C511.488 194.751 509.826 194.974 508.24 195.48C508.24 195.48 508.34 195.4 508.55 195.3C508.854 195.156 509.168 195.036 509.49 194.94C510.681 194.572 511.925 194.407 513.17 194.45C515.017 194.508 516.839 194.894 518.55 195.59C520.63 196.449 522.603 197.546 524.43 198.86C527.763 201.188 530.931 203.744 533.91 206.51C535.05 207.57 535.91 208.51 536.54 209.09C536.865 209.396 537.153 209.739 537.4 210.11V210.11Z" fill="white"/>
<path d="M620.62 228.81C620.62 228.81 620.52 228.94 620.28 229.16C620.04 229.38 619.7 229.71 619.21 230.08C617.858 231.168 616.409 232.128 614.88 232.95C609.814 235.717 604.069 236.998 598.307 236.644C592.545 236.291 587 234.317 582.31 230.95C580.896 229.951 579.577 228.822 578.37 227.58C577.93 227.15 577.63 226.78 577.37 226.58C577.251 226.462 577.15 226.327 577.07 226.18C577.07 226.18 577.57 226.64 578.46 227.48C579.709 228.652 581.046 229.725 582.46 230.69C587.131 233.929 592.598 235.828 598.271 236.18C603.944 236.533 609.605 235.326 614.64 232.69C616.168 231.904 617.632 231.001 619.02 229.99C619.531 229.567 620.065 229.173 620.62 228.81V228.81Z" fill="white"/>
<path d="M658.38 287.39C658.246 287.268 658.119 287.137 658 287C657.76 286.71 657.44 286.29 657 285.75C655.754 284.132 654.383 282.614 652.9 281.21L651.32 279.81L650.48 279.06L649.48 278.35L647.48 276.85L645.15 275.42C641.465 273.254 637.502 271.598 633.37 270.5C628.364 269.163 623.165 268.696 618 269.12C612.072 269.644 606.324 271.427 601.14 274.35C595.67 277.45 590.57 281.68 585.14 285.85C582.385 288.002 579.499 289.983 576.5 291.78C573.382 293.643 570.015 295.054 566.5 295.97C562.979 296.829 559.344 297.122 555.73 296.84C552.231 296.551 548.774 295.881 545.42 294.84C539.121 292.833 533.029 290.224 527.23 287.05C521.63 284.15 516.34 281.35 511.16 279.24C506.38 277.189 501.327 275.842 496.16 275.24C491.901 274.826 487.602 275.165 483.46 276.24C480.329 277.021 477.362 278.355 474.7 280.18C473.032 281.357 471.52 282.742 470.2 284.3L469.25 285.58C469.03 285.87 468.91 286.01 468.91 286.01C468.91 286.01 469 285.85 469.2 285.55L470.12 284.24C471.408 282.637 472.909 281.217 474.58 280.02C477.244 278.139 480.23 276.763 483.39 275.96C487.564 274.855 491.902 274.499 496.2 274.91C501.391 275.507 506.467 276.854 511.27 278.91C516.49 281.01 521.8 283.81 527.4 286.69C533.178 289.837 539.242 292.428 545.51 294.43C548.83 295.44 552.25 296.087 555.71 296.36C559.27 296.642 562.852 296.352 566.32 295.5C569.775 294.593 573.084 293.202 576.15 291.37C579.134 289.588 582.003 287.621 584.74 285.48C590.18 281.33 595.31 277.09 600.83 273.97C602.193 273.2 603.603 272.516 605.05 271.92C605.76 271.62 606.45 271.3 607.17 271.04L609.33 270.36C612.121 269.53 614.989 268.984 617.89 268.73C623.107 268.31 628.356 268.79 633.41 270.15C637.566 271.268 641.55 272.951 645.25 275.15L647.58 276.6L649.58 278.14L650.58 278.85L651.42 279.62L652.99 281.04C654.446 282.469 655.784 284.014 656.99 285.66C657.39 286.22 657.71 286.66 657.93 286.95L658.38 287.39Z" fill="white"/>
<path d="M634.32 333C634.167 333.082 634.006 333.149 633.84 333.2L632.42 333.69C631.672 333.951 630.911 334.175 630.14 334.36C629.23 334.58 628.22 334.88 627.06 335.07L625.26 335.41C624.63 335.52 623.97 335.58 623.26 335.67C621.9 335.87 620.43 335.94 618.88 336.04C615.539 336.141 612.194 335.97 608.88 335.53C605.56 335.026 602.289 334.243 599.1 333.19C597.64 332.67 596.25 332.19 595 331.61C594.37 331.33 593.75 331.09 593.18 330.81L591.55 329.98C590.49 329.47 589.6 328.9 588.8 328.43C588.111 328.039 587.444 327.612 586.8 327.15L585.57 326.28C585.42 326.187 585.282 326.077 585.16 325.95C585.327 326.007 585.485 326.088 585.63 326.19L586.91 326.98C587.45 327.33 588.13 327.75 588.91 328.18C589.69 328.61 590.61 329.18 591.67 329.65L593.31 330.44C593.88 330.72 594.5 330.95 595.13 331.22C596.38 331.77 597.76 332.22 599.21 332.74C602.407 333.756 605.681 334.512 609 335C612.297 335.445 615.624 335.629 618.95 335.55C620.48 335.46 621.95 335.42 623.29 335.23C623.96 335.15 624.62 335.1 625.29 335L627.09 334.7C628.24 334.54 629.25 334.26 630.16 334.07C631.07 333.88 631.83 333.67 632.45 333.48L633.9 333.09C634.037 333.045 634.177 333.015 634.32 333Z" fill="white"/>
<path d="M426.08 186.54L419.08 185.44L375.71 171.44L350.35 164.11C346.788 162.825 342.996 162.295 339.218 162.553C335.439 162.811 331.755 163.852 328.4 165.61C316.4 171.71 283.34 202.49 283.34 202.49L307.15 227.04L295.94 276.72C308.49 312.4 333.06 316.49 333.06 316.49C345.07 317.003 357.055 315.021 368.26 310.67C391.07 302 415 281.59 418 272.82C419.8 267.56 421.29 256.5 422.47 244.01L458.59 229.29L468.38 179.29L426.08 186.54Z" fill="#455A64"/>
<path d="M373.32 275C373.32 275 373.21 275.12 372.97 275.31C372.73 275.5 372.38 275.79 371.89 276.11C370.525 277.029 369.071 277.81 367.55 278.44C362.489 280.596 356.882 281.125 351.507 279.953C346.132 278.782 341.254 275.967 337.55 271.9C336.422 270.689 335.417 269.369 334.55 267.96C334.24 267.47 334.05 267.06 333.9 266.79C333.821 266.658 333.758 266.517 333.71 266.37C334.073 266.842 334.407 267.337 334.71 267.85C335.624 269.201 336.655 270.469 337.79 271.64C341.491 275.568 346.293 278.287 351.566 279.44C356.839 280.592 362.337 280.125 367.34 278.1C368.857 277.506 370.319 276.78 371.71 275.93C372.77 275.3 373.29 274.94 373.32 275Z" fill="#263238"/>
<path d="M359.6 173.51C359.64 173.585 359.667 173.666 359.68 173.75C359.73 173.94 359.79 174.17 359.86 174.46C360.01 175.08 360.22 176.01 360.47 177.2C361.21 180.568 361.688 183.988 361.9 187.43C362.028 189.818 361.89 192.212 361.49 194.57C361.006 197.289 360.041 199.9 358.64 202.28C357.017 204.853 355.018 207.168 352.71 209.15C350.36 211.25 347.76 213.15 345.11 215.21C339.47 219.44 333.99 223.27 329.11 226.75C324.23 230.23 319.88 233.34 316.42 235.96L316.31 236.05L316.2 235.96C313.759 234.023 311.441 231.936 309.26 229.71C308.67 229.111 308.125 228.469 307.63 227.79C307.46 227.56 307.36 227.37 307.28 227.25C307.239 227.186 307.202 227.119 307.17 227.05C307.17 227.05 307.36 227.29 307.71 227.73C308.236 228.376 308.797 228.994 309.39 229.58C311.614 231.738 313.951 233.778 316.39 235.69H316.17C319.61 233.03 323.91 229.86 328.81 226.37C333.71 222.88 339.17 219.03 344.81 214.8C347.45 212.8 350.05 210.85 352.38 208.8C354.656 206.856 356.631 204.584 358.24 202.06C359.627 199.74 360.585 197.189 361.07 194.53C361.484 192.201 361.642 189.833 361.54 187.47C361.361 184.044 360.94 180.636 360.28 177.27C360.06 176.1 359.89 175.18 359.76 174.51C359.707 174.223 359.667 173.983 359.64 173.79C359.609 173.7 359.596 173.605 359.6 173.51V173.51Z" fill="#263238"/>
<path d="M547.93 196C558.08 187.29 561.52 171.62 555.93 159.47L541.63 158C545.229 156.017 548.145 152.993 549.995 149.324C551.846 145.655 552.544 141.513 552 137.44C548.043 141.534 542.906 144.289 537.307 145.32C531.707 146.351 525.925 145.607 520.77 143.19C514.09 139.89 508.67 133.74 501.33 132.45C494.67 131.28 488.12 134.45 481.74 136.67C475.36 138.89 467.64 140.18 462.36 135.95C458.18 132.6 456.88 126.73 457.15 121.37C457.42 116.01 458.97 110.79 459.3 105.44C459.539 100.176 458.626 94.9233 456.624 90.049C454.622 85.1747 451.58 80.7963 447.71 77.2199C446.416 72.9607 444.106 69.0799 440.978 65.9119C437.851 62.7439 434.001 60.3837 429.758 59.0346C425.516 57.6855 421.01 57.388 416.627 58.1676C412.244 58.9472 408.117 60.7806 404.6 63.5099C401.47 65.9299 398.83 69.0599 395.28 70.8099C391.28 72.8099 386.61 72.8099 382.28 73.8099C377.95 74.8099 373.38 77.7499 372.92 82.1999L371.17 91.3099C370.88 91.9599 370.57 92.5999 370.17 93.2299C366.49 99.6899 358.95 103.94 357.3 111.23C356.38 115.3 357.52 119.71 356.15 123.65C354.34 128.84 348.74 131.76 346.15 136.59C342.57 143.23 345 154.86 350.73 159.76C356.46 164.66 368.27 169.86 375.65 171.43C377.65 163.76 379.42 155.56 381.13 147.17C384.13 150.06 387.3 152.81 390.44 155.54C398.65 162.68 407.04 169.93 412.74 179.2C423.57 196.83 423.74 220.2 437.39 235.74C440.06 238.79 443.31 241.5 447.19 242.68C451.07 243.86 455.67 243.23 458.54 240.37C461.93 236.99 462.37 231.29 466.12 228.32C471.12 224.37 478.38 227.52 483.73 230.95C487.61 233.43 491.49 236.05 495.88 237.41C500.27 238.77 505.39 238.68 509.13 236C512.87 233.32 514.51 227.6 511.81 223.87C510.73 222.38 509.12 221.34 508.05 219.87C506.98 218.4 506.67 216 508.14 214.87C509.61 213.74 512.02 214.87 513.77 215.87C518.063 218.393 522.865 219.928 527.825 220.364C532.786 220.8 537.782 220.125 542.449 218.389C547.116 216.653 551.338 213.899 554.809 210.327C558.279 206.755 560.909 202.455 562.51 197.74C557.582 198.478 552.546 197.877 547.93 196V196Z" fill="#263238"/>
<path d="M539 117.55C539.458 117.883 539.889 118.25 540.29 118.65C541.497 119.773 542.511 121.087 543.29 122.54C543.832 123.598 544.203 124.736 544.39 125.91C544.62 127.431 544.407 128.986 543.775 130.389C543.144 131.792 542.121 132.983 540.83 133.82C540.071 134.312 539.209 134.623 538.31 134.73C537.358 134.831 536.396 134.694 535.51 134.33C531.8 132.81 529.93 128.52 525.92 126.61C522.01 124.54 517.01 124.4 512.21 125.5C507.41 126.6 502.72 129.21 497.99 131.87C493.26 134.53 488.23 137.38 482.44 138.37C479.598 138.92 476.675 138.9 473.84 138.31C472.448 137.993 471.104 137.495 469.84 136.83C468.614 136.158 467.484 135.324 466.48 134.35C464.574 132.412 463.108 130.086 462.18 127.53C461.272 125.105 460.674 122.575 460.4 120C459.87 115 460.29 110.2 460.34 105.77C460.54 101.659 460.132 97.5416 459.13 93.55C458.654 91.8265 458.014 90.1523 457.22 88.55C456.526 87.1086 455.713 85.7272 454.79 84.42C453.328 82.3171 451.612 80.4026 449.68 78.72C448.451 77.6638 447.144 76.7011 445.77 75.84L444.68 75.19L444.32 74.96C444.456 75.0103 444.587 75.0739 444.71 75.15L445.83 75.75C449.466 77.9019 452.602 80.8028 455.03 84.26C457.031 87.0482 458.537 90.1604 459.48 93.46C460.524 97.4791 460.958 101.632 460.77 105.78C460.77 110.24 460.34 115 460.88 119.95C461.153 122.48 461.741 124.966 462.63 127.35C463.539 129.835 464.971 132.097 466.83 133.98C467.795 134.925 468.885 135.732 470.07 136.38C471.29 137.014 472.583 137.494 473.92 137.81C476.69 138.377 479.544 138.394 482.32 137.86C488 136.86 492.98 134.07 497.71 131.42C502.44 128.77 507.11 126.16 512.07 125.03C514.47 124.464 516.94 124.256 519.4 124.41C520.579 124.493 521.747 124.683 522.89 124.98C523.999 125.28 525.072 125.699 526.09 126.23C530.24 128.23 532.09 132.57 535.62 133.98C536.426 134.323 537.303 134.462 538.175 134.385C539.047 134.309 539.887 134.018 540.62 133.54C541.965 132.692 543.013 131.448 543.62 129.98C544.147 128.717 544.32 127.334 544.12 125.98C543.967 124.83 543.629 123.712 543.12 122.67C542.381 121.228 541.423 119.909 540.28 118.76C539.89 118.36 539.58 118.07 539.37 117.88C539.16 117.69 539 117.55 539 117.55Z" fill="#263238"/>
<path d="M375.55 175.27C375.55 175.27 375.55 175.12 375.47 174.82C375.418 174.376 375.328 173.938 375.2 173.51C374.74 171.854 373.901 170.327 372.75 169.05C370.893 167.059 368.633 165.488 366.12 164.44C363.22 163.11 359.62 162.44 355.68 161.72C351.74 161 347.27 160.14 343.25 157.46C341.018 155.952 339.143 153.974 337.757 151.664C336.371 149.354 335.508 146.769 335.228 144.09C334.947 141.411 335.257 138.703 336.135 136.157C337.013 133.61 338.438 131.287 340.31 129.35C344.45 125.1 350.31 122.99 355.09 119.26C356.262 118.32 357.316 117.242 358.23 116.05C359.09 114.834 359.739 113.481 360.15 112.05C360.95 109.21 360.88 106.24 361.15 103.35C361.259 101.901 361.527 100.469 361.95 99.0798C362.394 97.7036 363.112 96.4314 364.06 95.3398C366.026 93.3689 368.502 91.9839 371.21 91.3398C373.78 90.5898 376.34 90.1198 378.75 89.4598C381.107 88.858 383.338 87.8422 385.34 86.4598C387.187 85.1525 388.846 83.598 390.27 81.8398C391.605 80.2644 392.85 78.6152 394 76.8998C396.21 73.5598 398.1 70.4298 400.11 67.8998C401.774 65.7161 403.736 63.7771 405.94 62.1398C407.341 61.1121 408.897 60.3153 410.55 59.7798C411.119 59.5802 411.705 59.4329 412.3 59.3398C412.3 59.3398 411.69 59.4798 410.58 59.8798C408.957 60.4508 407.432 61.2706 406.06 62.3098C403.894 63.9568 401.968 65.899 400.34 68.0798C398.34 70.5798 396.5 73.6998 394.34 77.0798C393.204 78.8561 391.961 80.5625 390.62 82.1898C389.176 83.983 387.493 85.5709 385.62 86.9099C383.58 88.2955 381.312 89.311 378.92 89.9099C376.48 90.5899 373.92 91.0598 371.39 91.8098C368.77 92.4233 366.373 93.7567 364.47 95.6599C363.571 96.7002 362.891 97.9109 362.47 99.2198C362.06 100.574 361.802 101.969 361.7 103.38C361.43 106.24 361.51 109.23 360.7 112.18C360.272 113.657 359.596 115.05 358.7 116.3C357.758 117.527 356.67 118.635 355.46 119.6C353.011 121.403 350.442 123.037 347.77 124.49C345.224 125.896 342.871 127.627 340.77 129.64C338.946 131.526 337.556 133.788 336.698 136.268C335.84 138.748 335.535 141.386 335.804 143.996C336.072 146.606 336.908 149.126 338.253 151.38C339.598 153.633 341.42 155.565 343.59 157.04C347.49 159.67 351.93 160.51 355.84 161.3C359.75 162.09 363.4 162.74 366.32 164.11C368.859 165.19 371.135 166.807 372.99 168.85C374.141 170.161 374.964 171.728 375.39 173.42C375.505 173.855 375.579 174.301 375.61 174.75C375.55 175.12 375.55 175.27 375.55 175.27Z" fill="#263238"/>
<path d="M455.39 85.4997C455.128 85.4737 454.871 85.4062 454.63 85.2997C453.947 85.0764 453.279 84.8092 452.63 84.4997C448.3 82.4607 444.606 79.2844 441.94 75.3097C441.54 74.7122 441.176 74.091 440.85 73.4497C440.707 73.2251 440.603 72.9785 440.54 72.7197C440.61 72.7197 441.18 73.6397 442.24 75.0897C445.016 78.8832 448.625 81.9895 452.79 84.1697C454.38 84.9997 455.43 85.4197 455.39 85.4997Z" fill="#455A64"/>
<path d="M488.64 153.71C488.64 153.71 488.01 153.55 486.88 153.31C485.28 152.972 483.654 152.771 482.02 152.71C479.598 152.644 477.174 152.714 474.76 152.92C472.02 153.11 469 153.39 465.81 153.32C462.789 153.32 459.795 152.757 456.98 151.66C454.695 150.705 452.666 149.225 451.06 147.34C449.982 146.066 449.206 144.566 448.79 142.95C448.681 142.514 448.611 142.069 448.58 141.62C448.558 141.464 448.558 141.306 448.58 141.15C448.64 141.15 448.67 141.79 448.99 142.9C449.477 144.45 450.285 145.881 451.36 147.1C452.955 148.905 454.948 150.315 457.18 151.22C459.945 152.263 462.875 152.799 465.83 152.8C468.98 152.87 471.99 152.61 474.74 152.44C477.172 152.25 479.614 152.217 482.05 152.34C483.701 152.436 485.339 152.694 486.94 153.11C487.373 153.225 487.801 153.362 488.22 153.52C488.369 153.561 488.511 153.625 488.64 153.71V153.71Z" fill="#455A64"/>
<path d="M547.57 199.18C547.57 199.18 547.48 199.18 547.28 199.31C546.995 199.44 546.697 199.537 546.39 199.6C545.203 199.853 543.97 199.798 542.81 199.44C540.986 198.854 539.336 197.823 538.01 196.44C536.327 194.546 535.017 192.351 534.15 189.97C533.06 187.41 532.15 184.47 530.36 181.75C529.457 180.342 528.393 179.043 527.19 177.88C525.893 176.664 524.472 175.589 522.95 174.67C516.67 170.88 508.42 169.33 499.95 169.83C491.48 170.33 483.51 171.93 476.14 172.44C469.605 173.14 462.995 172.459 456.74 170.44C452.508 169.064 448.683 166.659 445.61 163.44C445.134 162.938 444.69 162.407 444.28 161.85C443.961 161.457 443.673 161.039 443.42 160.6C443.22 160.27 443.06 160 442.93 159.8C442.868 159.714 442.818 159.62 442.78 159.52C442.78 159.52 442.86 159.6 442.98 159.77L443.5 160.54C443.775 160.962 444.075 161.366 444.4 161.75C444.819 162.296 445.274 162.813 445.76 163.3C448.855 166.419 452.66 168.739 456.85 170.06C463.068 172.009 469.623 172.649 476.1 171.94C483.43 171.4 491.39 169.72 499.92 169.28C508.45 168.84 516.77 170.35 523.15 174.23C524.698 175.172 526.143 176.275 527.46 177.52C528.685 178.724 529.766 180.066 530.68 181.52C532.49 184.31 533.38 187.28 534.45 189.83C535.274 192.183 536.536 194.358 538.17 196.24C539.45 197.607 541.047 198.637 542.82 199.24C543.947 199.619 545.151 199.705 546.32 199.49C547.17 199.35 547.56 199.14 547.57 199.18Z" fill="#455A64"/>
<path d="M390.29 85.49C388.418 85.4435 386.597 86.1007 385.186 87.332C383.775 88.5633 382.877 90.2789 382.67 92.14V92.14L374.58 176.35C373.18 188.19 388.67 213.58 401.36 214.98C414.17 216.39 415.43 210.18 417.09 198.98C419.87 180.24 420.8 173.18 420.79 173.29C420.78 173.4 437.29 172.74 443.41 152.11C446.41 141.85 448.19 124.6 449.16 110.44C450.03 97.69 443.7 81.08 430.92 80.75L390.29 85.49Z" fill="#FFBE9D"/>
<path d="M443.58 121.59C443.497 122.303 443.135 122.954 442.573 123.401C442.01 123.847 441.294 124.052 440.58 123.97C440.233 123.952 439.892 123.865 439.579 123.714C439.266 123.563 438.986 123.351 438.756 123.09C438.526 122.829 438.35 122.525 438.239 122.195C438.128 121.866 438.084 121.517 438.11 121.17C438.198 120.458 438.561 119.809 439.122 119.363C439.683 118.916 440.397 118.707 441.11 118.78C441.459 118.798 441.8 118.885 442.114 119.037C442.428 119.188 442.708 119.402 442.938 119.664C443.169 119.926 443.344 120.231 443.454 120.562C443.565 120.893 443.607 121.242 443.58 121.59V121.59Z" fill="#263238"/>
<path d="M444.73 116.14C444.41 116.52 442.25 115.14 439.32 115.35C436.39 115.56 434.32 117.17 434.01 116.84C433.85 116.69 434.14 116.03 435.01 115.28C436.216 114.315 437.689 113.746 439.23 113.65C440.751 113.536 442.268 113.911 443.56 114.72C444.53 115.35 444.88 116 444.73 116.14Z" fill="#263238"/>
<path d="M417.85 123.11C417.5 123.46 415.48 121.87 412.55 121.8C409.62 121.73 407.43 123.13 407.12 122.8C406.97 122.63 407.33 122 408.29 121.35C409.582 120.502 411.106 120.079 412.65 120.14C414.173 120.179 415.644 120.701 416.85 121.63C417.73 122.31 418 123 417.85 123.11Z" fill="#263238"/>
<path d="M423.31 138.6C423.31 138.43 425.17 138.36 428.15 138.37C428.9 138.37 429.62 138.37 429.82 137.84C429.981 137.083 429.908 136.294 429.61 135.58C429.15 133.687 428.667 131.687 428.16 129.58C426.16 121.13 424.83 114.22 425.16 114.14C425.49 114.06 427.39 120.86 429.38 129.31C429.86 131.39 430.31 133.37 430.74 135.31C431.098 136.278 431.098 137.342 430.74 138.31C430.598 138.557 430.402 138.768 430.166 138.927C429.931 139.087 429.662 139.19 429.38 139.23C428.952 139.285 428.518 139.285 428.09 139.23C425.13 139 423.3 138.76 423.31 138.6Z" fill="#263238"/>
<path d="M420.79 173.27C410.844 172.111 401.416 168.209 393.56 162C393.56 162 398.77 177.42 420.12 178.23L420.79 173.27Z" fill="#EB996E"/>
<path d="M418.26 118.1C417.8 118.81 415.03 117.77 411.59 117.39C408.15 117.01 405.22 117.29 404.94 116.49C404.82 116.11 405.46 115.49 406.73 115C408.397 114.398 410.184 114.206 411.94 114.44C413.705 114.633 415.398 115.243 416.88 116.22C418 117 418.47 117.76 418.26 118.1Z" fill="#263238"/>
<path d="M444.29 112.21C443.81 112.9 441.76 112.32 439.29 112.41C436.82 112.5 434.83 113.08 434.29 112.41C434.07 112.08 434.36 111.41 435.22 110.73C436.383 109.886 437.783 109.431 439.22 109.43C440.638 109.387 442.035 109.782 443.22 110.56C444.19 111.2 444.5 111.88 444.29 112.21Z" fill="#263238"/>
<path d="M416.23 143.91C417.573 142.993 419.219 142.635 420.82 142.91C421.637 143.023 422.39 143.415 422.95 144.02C423.556 144.914 423.822 145.996 423.7 147.07C423.705 147.718 423.607 148.362 423.41 148.98C423.205 149.597 422.768 150.11 422.19 150.41C421.548 150.641 420.852 150.676 420.19 150.51C419.09 150.369 418.035 149.986 417.1 149.39C416.635 149.091 416.24 148.695 415.943 148.229C415.646 147.763 415.454 147.238 415.38 146.69C415.319 146.139 415.436 145.582 415.715 145.103C415.994 144.624 416.42 144.248 416.93 144.03" fill="#EB996E"/>
<path d="M424.12 150.33C423.91 150.41 423.52 149.77 422.82 148.9C421.95 147.758 420.859 146.802 419.612 146.091C418.364 145.38 416.986 144.927 415.56 144.76C414.45 144.6 413.71 144.59 413.66 144.37C413.61 144.15 414.31 143.78 415.58 143.65C417.256 143.519 418.932 143.895 420.39 144.73C421.853 145.556 423.029 146.808 423.76 148.32C424.3 149.47 424.31 150.27 424.12 150.33Z" fill="#263238"/>
<path d="M373.45 170.56C380.4 169.17 385.76 163.2 388.15 156.56C390.54 149.92 390.41 142.61 389.78 135.56C389.798 135.104 389.723 134.649 389.56 134.222C389.396 133.796 389.148 133.407 388.83 133.08C387.78 132.27 386.27 132.93 385.13 133.62C380.748 136.284 376.549 139.237 372.56 142.46C368.84 145.46 365.16 148.91 363.73 153.46C361.54 160.46 366.17 168.81 373.26 170.65" fill="#263238"/>
<path d="M533.2 168.93L500.43 116.25L491.37 97.7098C491.37 97.7098 488.48 93.8798 485.48 90.6098C480.56 85.2398 475.69 89.4098 475.69 89.4098C475.418 88.7758 474.954 88.2426 474.365 87.8841C473.775 87.5257 473.088 87.3599 472.4 87.4098C471.516 87.4092 470.645 87.6183 469.857 88.0199C469.07 88.4214 468.389 89.004 467.87 89.7198C467.87 89.7198 466.53 88.2298 462.81 87.9998C461.965 87.9896 461.139 88.2566 460.46 88.7598C459.24 87.6898 457 86.1498 454.85 86.9298C453.17 87.5398 442.98 95.2898 440.47 99.1898C439.23 101.12 441.53 103.62 444.63 102.45C445.905 102.038 447.149 101.533 448.35 100.94C449.291 100.411 450.142 99.7359 450.87 98.9398C450.87 98.9398 448.3 103.44 450.87 104.23C451.712 104.399 452.58 104.381 453.415 104.179C454.249 103.977 455.029 103.595 455.7 103.06C456.7 102.24 457.8 101.17 458.87 100.12L458.75 100.3C457.33 102.4 461.03 105.51 462.82 104.25C463.653 103.663 464.45 103.028 465.21 102.35C469.37 105.35 463.6 109.24 461.16 109.04C457.406 108.755 453.635 108.755 449.88 109.04C447.76 109.21 445.88 109.72 444.72 110.89C443.34 112.31 444.79 115.29 446.72 115.59C450.31 116.15 454.89 116.94 459.65 118.17C465.25 119.61 479.92 124.38 479.92 124.38L481.35 125.54L501.28 174.15L467.16 181.38L459.54 224.62L521.14 207.9C535 200.6 541.61 182.13 533.2 168.93Z" fill="#FFBE9D"/>
<path d="M479.93 124.29C479.665 124.252 479.404 124.188 479.15 124.1L476.94 123.47L468.83 121.06L463.24 119.37C461.24 118.75 459.09 118.11 456.81 117.53C454.436 116.889 452.025 116.391 449.59 116.04C448.254 116.017 446.93 115.777 445.67 115.33C445.335 115.178 445.035 114.956 444.79 114.68C444.657 114.52 444.556 114.337 444.49 114.14L444.42 113.61C444.314 112.902 444.359 112.18 444.55 111.49C444.796 110.781 445.304 110.194 445.97 109.85C446.577 109.535 447.214 109.28 447.87 109.09C449.17 108.718 450.52 108.552 451.87 108.6C454.47 108.6 456.92 109 459.26 108.9C460.397 108.873 461.53 108.763 462.65 108.57C463.74 108.37 464.78 108.09 465.8 107.83C467.685 107.24 469.658 106.987 471.63 107.08C473.25 107.235 474.835 107.64 476.33 108.28C477.456 108.749 478.551 109.286 479.61 109.89C480.48 110.38 481.14 110.79 481.61 111.06C481.841 111.193 482.062 111.344 482.27 111.51C482.019 111.414 481.778 111.293 481.55 111.15L479.55 110.07C478.483 109.502 477.385 108.994 476.26 108.55C474.786 107.949 473.228 107.578 471.64 107.45C469.712 107.38 467.787 107.647 465.95 108.24C464.95 108.51 463.89 108.81 462.78 109.02C461.635 109.228 460.475 109.348 459.31 109.38C456.93 109.49 454.45 109.14 451.91 109.11C450.627 109.071 449.346 109.23 448.11 109.58C446.89 109.98 445.5 110.41 445.11 111.65C444.948 112.27 444.911 112.916 445 113.55L445.07 114.01C445.106 114.134 445.171 114.247 445.26 114.34C445.461 114.56 445.702 114.74 445.97 114.87C447.179 115.281 448.444 115.503 449.72 115.53C452.176 115.895 454.607 116.409 457 117.07C459.29 117.66 461.43 118.32 463.43 118.96L469.01 120.71L477.07 123.28L479.25 124C479.485 124.076 479.713 124.173 479.93 124.29Z" fill="#EB996E"/>
<path d="M454.66 87C454.72 87.08 453.12 88 450.76 89.79C449.383 90.8397 448.074 91.9753 446.84 93.19C445.44 94.55 443.97 96.19 442.23 97.64C441.359 98.2356 440.711 99.1048 440.39 100.11C440.267 100.553 440.324 101.027 440.549 101.427C440.773 101.828 441.148 102.124 441.59 102.25C442.451 102.491 443.36 102.508 444.23 102.3C445.016 102.154 445.786 101.933 446.53 101.64C447.991 101.019 449.356 100.191 450.58 99.18C450.335 99.5414 450.03 99.8591 449.68 100.12C448.776 100.885 447.765 101.515 446.68 101.99C445.922 102.312 445.135 102.56 444.33 102.73C443.386 102.975 442.394 102.975 441.45 102.73C440.887 102.573 440.408 102.201 440.118 101.693C439.828 101.186 439.75 100.585 439.9 100.02C440.241 98.9032 440.945 97.932 441.9 97.26C443.61 95.8 445.08 94.26 446.52 92.86C447.769 91.6498 449.106 90.5335 450.52 89.52C451.74 88.65 452.77 88.03 453.52 87.61C453.88 87.3708 454.261 87.1665 454.66 87V87Z" fill="#EB996E"/>
<path d="M467.17 91.1199C466.814 91.6013 466.426 92.059 466.01 92.4899L462.72 96.1099L457.79 101.44C456.805 102.521 455.633 103.415 454.33 104.08C453.616 104.439 452.83 104.634 452.03 104.65C451.605 104.657 451.183 104.579 450.788 104.421C450.393 104.264 450.033 104.028 449.73 103.73C449.419 103.383 449.229 102.944 449.19 102.48C449.156 102.049 449.2 101.615 449.32 101.2C449.548 100.416 449.907 99.6753 450.38 99.0099V99.0099C452.15 97.1399 453.79 95.3799 455.26 93.7599C456.73 92.1399 458.2 90.8699 459.38 89.7599C459.887 89.2296 460.462 88.7689 461.09 88.3899C461.598 88.1651 462.145 88.0428 462.7 88.0299C463.59 87.9699 464.11 88.0299 464.06 88.1499C463.613 88.0962 463.161 88.1165 462.72 88.2099C462.198 88.2548 461.687 88.3901 461.21 88.6099C460.621 89.0092 460.081 89.4757 459.6 89.9999C458.46 91.1399 457.05 92.4599 455.6 94.0599C454.15 95.6599 452.52 97.4799 450.76 99.3699C450.322 99.9787 449.984 100.654 449.76 101.37C449.657 101.727 449.616 102.099 449.64 102.47C449.681 102.822 449.827 103.153 450.06 103.42C450.576 103.913 451.266 104.183 451.98 104.17C452.7 104.156 453.407 103.982 454.05 103.66C455.3 103.027 456.428 102.177 457.38 101.15L462.38 95.8999L465.79 92.3999L466.74 91.4599C467.007 91.2199 467.15 91.1066 467.17 91.1199Z" fill="#EB996E"/>
<path d="M482.49 95.9397C482.49 95.9397 482.49 96.2497 482.09 96.5297C481.857 96.7112 481.589 96.8421 481.303 96.914C481.017 96.9859 480.719 96.9973 480.428 96.9474C480.137 96.8975 479.86 96.7875 479.614 96.6243C479.368 96.4611 479.159 96.2483 479 95.9997C478.77 95.6197 478.77 95.3297 478.83 95.3197C478.89 95.3097 479.03 95.5097 479.29 95.7697C479.621 96.1079 480.046 96.338 480.51 96.4297C480.981 96.4992 481.461 96.426 481.89 96.2197C482.23 96.0597 482.43 95.8897 482.49 95.9397Z" fill="#EB996E"/>
<path d="M483.69 100.53C483.58 100.62 482.83 99.8698 482.17 98.7398C481.69 98.1044 481.402 97.3443 481.34 96.5498C481.47 96.4998 481.97 97.3998 482.62 98.4798C483.077 99.1063 483.437 99.7972 483.69 100.53V100.53Z" fill="#EB996E"/>
<path d="M485.9 118.41C485.462 117.779 485.141 117.074 484.95 116.33C484.38 114.564 484.103 112.716 484.13 110.86C484.167 109.004 484.505 107.167 485.13 105.42C485.337 104.679 485.676 103.981 486.13 103.36C485.288 105.78 484.799 108.31 484.68 110.87C484.718 113.429 485.129 115.969 485.9 118.41V118.41Z" fill="#EB996E"/>
<path d="M512.82 187.7C512.72 187.7 512.62 186.64 512.1 185.01C511.789 184.06 511.395 183.14 510.92 182.26C509.74 180.113 508.101 178.252 506.12 176.81C505.312 176.222 504.452 175.71 503.55 175.28C502.01 174.55 500.96 174.28 500.98 174.22C501.234 174.21 501.488 174.244 501.73 174.32C502.414 174.466 503.084 174.673 503.73 174.94C504.679 175.338 505.584 175.834 506.43 176.42C508.514 177.859 510.21 179.789 511.37 182.04C511.843 182.954 512.215 183.916 512.48 184.91C512.664 185.564 512.788 186.234 512.85 186.91C512.883 187.173 512.872 187.44 512.82 187.7Z" fill="#EB996E"/>
<path d="M398.44 284C395.62 283.507 392.717 283.876 390.11 285.06C385.66 283.06 380.17 286.49 380.17 286.49C378.56 285.72 368.86 292.06 368.86 292.06L356.78 297.76L292.25 249.81L310.54 230.81L284.91 204.14L254.91 235.04C251.235 239.017 249.107 244.178 248.91 249.59C248.622 255.35 250.023 261.069 252.942 266.044C255.861 271.019 260.171 275.032 265.34 277.59L341.34 316.59C347.178 316.265 352.969 315.364 358.63 313.9C365.19 312.19 376.4 307.21 376.4 307.21C376.4 307.21 376.4 307.55 378.4 311.44C382.01 318.44 387.3 310.88 387.3 310.88C387.826 312.109 388.519 313.26 389.36 314.3C393.93 318.73 397.1 312.78 397.1 312.78C397.1 312.78 398.47 315.17 402.55 313.39C406.63 311.61 401.96 299.33 401.96 299.33C401.96 299.33 403.33 302 405.96 298.62C408.59 295.24 402.81 284.92 398.44 284Z" fill="#FFBE9D"/>
<path d="M389.31 285.69C389.56 285.515 389.848 285.402 390.15 285.36C390.961 285.183 391.803 285.21 392.6 285.44C393.774 285.774 394.871 286.334 395.83 287.09C396.407 287.519 396.946 287.997 397.44 288.52C397.938 289.134 398.361 289.805 398.7 290.52C399.885 292.905 400.871 295.383 401.65 297.93C401.95 298.93 402.15 299.7 402.28 300.26C402.373 300.544 402.417 300.841 402.41 301.14C402.34 301.14 401.98 299.95 401.3 298.04C400.418 295.553 399.393 293.119 398.23 290.75C397.915 290.087 397.519 289.465 397.05 288.9C396.584 288.398 396.079 287.933 395.54 287.51C394.646 286.779 393.63 286.211 392.54 285.83C391.491 285.52 390.382 285.472 389.31 285.69V285.69Z" fill="#EB996E"/>
<path d="M397.08 312.81C396.85 312.462 396.658 312.09 396.51 311.7L395.1 308.64C393.91 306.05 392.17 302.51 390.51 298.48C389.842 296.563 388.959 294.728 387.88 293.01C386.948 291.661 385.665 290.593 384.17 289.92C383.176 289.439 382.069 289.242 380.97 289.35C380.19 289.45 379.79 289.66 379.77 289.61C379.75 289.56 379.86 289.54 380.05 289.44C380.328 289.301 380.624 289.203 380.93 289.15C382.078 288.954 383.258 289.103 384.32 289.58C385.907 290.242 387.276 291.337 388.27 292.74C389.393 294.472 390.306 296.332 390.99 298.28C392.64 302.28 394.33 305.86 395.44 308.49C395.99 309.8 396.44 310.88 396.7 311.62C396.87 312.001 396.997 312.4 397.08 312.81V312.81Z" fill="#EB996E"/>
<path d="M367.46 297.38C367.773 297.156 368.108 296.965 368.46 296.81L371.34 295.42C371.96 295.13 372.61 294.81 373.34 294.49C374.162 294.162 375.049 294.032 375.93 294.11C376.911 294.188 377.852 294.534 378.65 295.11C379.455 295.768 380.133 296.568 380.65 297.47C381.2 298.37 381.65 299.3 382.05 300.16C382.45 301.02 382.92 301.85 383.36 302.63C384.23 304.18 385.05 305.57 385.65 306.79C386.144 307.743 386.571 308.728 386.93 309.74C387.09 310.099 387.198 310.48 387.25 310.87C387.17 310.87 386.63 309.32 385.33 306.96C384.68 305.78 383.84 304.42 382.94 302.87C382.49 302.09 382.04 301.26 381.6 300.39C381.16 299.52 380.74 298.61 380.21 297.74C379.725 296.896 379.1 296.142 378.36 295.51C377.647 294.964 376.801 294.619 375.91 294.51C375.101 294.422 374.282 294.525 373.52 294.81C372.8 295.1 372.11 295.42 371.52 295.67L368.57 297C368.217 297.171 367.844 297.298 367.46 297.38Z" fill="#EB996E"/>
<path d="M368.86 292.07C368.593 292.292 368.297 292.477 367.98 292.62C367.4 292.95 366.55 293.41 365.49 293.97C363.38 295.09 360.44 296.61 357.18 298.25C353.92 299.89 350.96 301.35 348.8 302.39L346.24 303.59C345.925 303.757 345.589 303.882 345.24 303.96C345.513 303.738 345.812 303.55 346.13 303.4C346.71 303.08 347.56 302.62 348.62 302.06C350.73 300.94 353.67 299.43 356.93 297.78C360.19 296.13 363.15 294.68 365.3 293.65C366.38 293.13 367.3 292.72 367.87 292.44C368.181 292.269 368.514 292.144 368.86 292.07V292.07Z" fill="#EB996E"/>
<path d="M293.11 249.93C290.589 249.549 288.031 249.465 285.49 249.68C282.968 250.06 280.498 250.731 278.13 251.68C278.732 251.201 279.407 250.822 280.13 250.56C281.82 249.834 283.605 249.356 285.43 249.14C287.261 248.924 289.113 248.971 290.93 249.28C291.687 249.377 292.424 249.597 293.11 249.93Z" fill="#EB996E"/>
<path d="M435.62 76.71C419.638 76.4813 403.685 78.1598 388.1 81.71C384.49 82.54 380.67 83.6 378.23 86.38C375.64 89.32 375.23 93.51 374.85 97.38C374.437 102.133 374.024 106.883 373.61 111.63C372.925 112.806 372.167 113.938 371.34 115.02C367.58 119.93 362.79 124.02 359.34 129.18C355.89 134.34 354.03 141.18 356.81 146.7C358.5 150.04 361.62 152.4 363.9 155.36C367.77 160.36 369.03 166.87 371.29 172.8C373.55 178.73 377.63 184.8 383.86 185.96C386.86 186.53 389.92 185.9 392.91 186.34C397.38 186.99 401.14 189.92 404.69 192.71C408.24 195.5 412.1 198.34 416.6 198.79C421.1 199.24 426.25 196.19 426.34 191.67C424.672 192.611 422.778 193.08 420.864 193.027C418.949 192.974 417.085 192.401 415.47 191.37C412.85 189.64 411.16 186.84 408.91 184.66C403.38 179.3 394.48 177.6 390.63 170.93C387.63 165.66 388.8 159.05 390.18 153.12C391.37 147.98 392.59 142.41 391.1 137.47C391.219 136.675 391.282 135.873 391.29 135.07C391.29 129.81 389.24 124.17 391.69 119.52C394.93 113.36 404.27 112.58 407.54 106.45C409.45 102.88 408.78 98.32 410.86 94.85C412.81 91.59 416.72 90.09 420.44 89.28C424.16 88.47 428.07 88.1 431.35 86.18C434.63 84.26 437.11 80.2 435.62 76.71Z" fill="#263238"/>
<path d="M447.74 184C447.703 184.09 447.652 184.175 447.59 184.25L447.1 184.94C446.428 185.805 445.656 186.587 444.8 187.27C443.425 188.337 441.88 189.165 440.23 189.72C438.049 190.478 435.728 190.747 433.43 190.51C430.624 190.237 427.96 189.145 425.77 187.37C423.39 185.54 421.27 183.11 418.58 181.18C417.233 180.175 415.661 179.513 414 179.25C412.248 179.106 410.489 179.427 408.9 180.18C407.209 180.978 405.435 181.589 403.61 182C401.652 182.282 399.655 181.932 397.91 181C396.204 180.101 394.592 179.032 393.1 177.81C391.608 176.689 390.198 175.463 388.88 174.14C387.578 172.858 386.556 171.318 385.88 169.62C385.277 167.954 385.159 166.151 385.54 164.42C385.906 162.816 386.412 161.246 387.05 159.73C387.63 158.26 388.13 156.81 388.57 155.39C389.374 152.77 389.993 150.097 390.42 147.39C391.039 143.446 391.257 139.448 391.07 135.46C391.01 134.05 390.92 132.95 390.84 132.21C390.84 131.86 390.84 131.59 390.77 131.37C390.755 131.274 390.755 131.176 390.77 131.08C390.805 131.17 390.825 131.264 390.83 131.36L390.95 132.2C391.06 132.94 391.19 134.03 391.28 135.45C391.544 139.456 391.383 143.478 390.8 147.45C390.392 150.192 389.791 152.903 389 155.56C388.56 156.98 388.06 158.45 387.49 159.94C386.865 161.415 386.366 162.94 386 164.5C385.638 166.145 385.756 167.86 386.34 169.44C386.997 171.072 387.984 172.549 389.24 173.78C390.542 175.082 391.936 176.288 393.41 177.39C394.875 178.589 396.456 179.638 398.13 180.52C399.773 181.423 401.663 181.773 403.52 181.52C405.307 181.112 407.043 180.512 408.7 179.73C410.371 178.956 412.216 178.632 414.05 178.79C415.789 179.058 417.436 179.744 418.85 180.79C421.59 182.79 423.69 185.23 426.03 187.04C428.146 188.786 430.731 189.868 433.46 190.15C437.438 190.586 441.433 189.515 444.66 187.15C445.809 186.227 446.843 185.169 447.74 184V184Z" fill="#263238"/>
<path d="M347.83 152.2C347.542 151.846 347.275 151.476 347.03 151.09C346.349 149.968 345.869 148.737 345.61 147.45C345.216 145.405 345.25 143.301 345.71 141.27C346.311 138.575 347.492 136.043 349.17 133.85C351.236 131.241 353.668 128.944 356.39 127.03C359.26 124.89 362.52 122.9 365.77 120.59C369.237 118.27 372.252 115.339 374.67 111.94C375.862 110.085 376.772 108.063 377.37 105.94C378.01 103.8 378.45 101.56 378.97 99.3001C379.421 97.0469 380.091 94.8431 380.97 92.7201C381.85 90.6344 383.194 88.7772 384.9 87.2901C386.568 85.8863 388.494 84.823 390.57 84.1601C392.543 83.5218 394.583 83.119 396.65 82.9601C400.454 82.7672 404.267 82.8876 408.05 83.3201C411.326 83.6703 414.627 83.7138 417.91 83.4501C420.611 83.1901 423.236 82.409 425.64 81.1501C427.456 80.2056 429.065 78.9066 430.37 77.3301C431.195 76.3297 431.844 75.1971 432.29 73.9801C432.57 73.1401 432.68 72.6801 432.7 72.6901C432.628 73.1401 432.525 73.5845 432.39 74.0201C431.975 75.2661 431.346 76.4302 430.53 77.4601C429.232 79.0996 427.617 80.4601 425.78 81.4601C423.352 82.7644 420.692 83.583 417.95 83.8701C414.642 84.1605 411.314 84.137 408.01 83.8001C404.252 83.3912 400.466 83.2875 396.69 83.4901C394.65 83.6491 392.635 84.0519 390.69 84.6901C388.68 85.3241 386.812 86.343 385.19 87.6901C383.545 89.1335 382.249 90.9322 381.4 92.9501C380.521 95.0422 379.851 97.2161 379.4 99.4401C378.88 101.69 378.4 103.94 377.78 106.11C377.171 108.272 376.237 110.329 375.01 112.21C372.568 115.653 369.518 118.621 366.01 120.97C362.73 123.29 359.47 125.26 356.61 127.37C353.907 129.246 351.489 131.503 349.43 134.07C347.755 136.202 346.57 138.678 345.96 141.32C345.476 143.312 345.411 145.382 345.77 147.4C346.118 149.125 346.819 150.76 347.83 152.2V152.2Z" fill="#455A64"/>
<path d="M350.76 157.45C349.644 156.568 348.616 155.58 347.69 154.5C346.549 153.265 345.644 151.831 345.02 150.27C344.628 149.276 344.47 148.205 344.56 147.14C344.684 145.942 345.153 144.806 345.91 143.87C347.53 141.87 350.21 140.81 353.02 140.22C354.43 139.93 355.91 139.7 357.38 139.33C358.899 139.012 360.344 138.411 361.64 137.56C362.949 136.599 364.011 135.341 364.74 133.89C365.501 132.351 366.143 130.757 366.66 129.12C367.193 127.403 367.862 125.731 368.66 124.12C369.516 122.426 370.811 120.993 372.41 119.97C374.035 119.043 375.792 118.368 377.62 117.97C379.39 117.51 381.14 117.14 382.79 116.58C385.965 115.473 388.732 113.434 390.73 110.73C392.58 108.283 394.242 105.699 395.7 103C396.985 100.648 398.489 98.4212 400.19 96.35C401.611 94.632 403.353 93.2085 405.32 92.16C406.807 91.3696 408.434 90.877 410.11 90.71C411.171 90.609 412.241 90.697 413.27 90.97C413.613 91.0612 413.948 91.1816 414.27 91.33C414.27 91.33 413.9 91.23 413.2 91.07C412.179 90.8514 411.129 90.7974 410.09 90.91C408.453 91.1113 406.869 91.6202 405.42 92.41C403.501 93.4649 401.803 94.8809 400.42 96.58C398.757 98.6564 397.284 100.879 396.02 103.22C394.582 105.938 392.937 108.543 391.1 111.01C390.071 112.338 388.886 113.536 387.57 114.58C386.195 115.639 384.649 116.457 383 117C381.32 117.58 379.55 117.95 377.8 118.41C376.021 118.813 374.314 119.487 372.74 120.41C371.208 121.396 369.971 122.778 369.16 124.41C368.363 125.997 367.694 127.646 367.16 129.34C366.621 131 365.952 132.615 365.16 134.17C364.385 135.685 363.269 136.999 361.9 138.01C360.547 138.881 359.045 139.498 357.47 139.83C355.97 140.19 354.47 140.41 353.09 140.7C350.32 141.26 347.71 142.29 346.18 144.15C345.454 145.028 344.999 146.098 344.87 147.23C344.773 148.247 344.91 149.274 345.27 150.23C345.871 151.767 346.733 153.188 347.82 154.43C348.7 155.43 349.45 156.22 349.96 156.73L350.55 157.3C350.7 157.37 350.77 157.44 350.76 157.45Z" fill="#455A64"/>
<path d="M473.86 92.8501C473.721 93.1284 473.546 93.3872 473.34 93.6201C472.98 94.1001 472.45 94.7801 471.76 95.6201C470.4 97.2601 468.44 99.4601 466.14 101.77C465 102.89 463.93 104.15 462.46 104.61C461.776 104.846 461.034 104.846 460.35 104.61C459.764 104.366 459.282 103.924 458.99 103.36C458.596 102.576 458.466 101.685 458.62 100.82C458.637 100.508 458.715 100.202 458.85 99.9201C458.883 100.226 458.883 100.534 458.85 100.84C458.777 101.651 458.948 102.466 459.34 103.18C459.609 103.641 460.03 103.994 460.53 104.18C461.116 104.384 461.754 104.384 462.34 104.18C463.62 103.77 464.65 102.57 465.8 101.43C468.09 99.1401 470.08 96.9801 471.52 95.4301C472.241 94.5186 473.023 93.6567 473.86 92.8501V92.8501Z" fill="#EB996E"/>
<path d="M481.5 92.8501C481.336 93.1385 481.13 93.4013 480.89 93.6301C480.48 94.1101 479.89 94.7901 479.11 95.6301L476.42 98.5401L474.82 100.24C474.267 100.88 473.658 101.469 473 102C472.298 102.559 471.452 102.906 470.56 103C470.127 103.045 469.69 102.977 469.292 102.801C468.894 102.626 468.549 102.35 468.29 102C468.049 101.661 467.92 101.256 467.92 100.84C467.943 100.461 468.06 100.093 468.26 99.7701C468.63 99.1701 469.01 98.7101 469.34 98.2501C470 97.3401 470.55 96.6101 470.94 96.1101C471.12 95.8336 471.339 95.5844 471.59 95.3701C471.465 95.675 471.304 95.9637 471.11 96.2301C470.77 96.7601 470.27 97.5201 469.64 98.4601C469.33 98.9301 468.95 99.4601 468.64 99.9801C468.458 100.234 468.36 100.538 468.36 100.85C468.36 101.162 468.458 101.467 468.64 101.72C468.854 101.998 469.138 102.215 469.463 102.348C469.788 102.481 470.142 102.527 470.49 102.48C471.278 102.396 472.027 102.091 472.65 101.6C473.304 101.105 473.91 100.549 474.46 99.9401L476.09 98.2601L478.86 95.4201C479.65 94.6201 480.3 93.9801 480.76 93.5401C480.973 93.2769 481.222 93.0447 481.5 92.8501V92.8501Z" fill="#EB996E"/>
<path d="M585.91 399C586.769 397.131 588.069 395.499 589.699 394.245C591.329 392.99 593.24 392.151 595.266 391.8C597.293 391.448 599.374 391.595 601.331 392.228C603.289 392.86 605.063 393.959 606.5 395.43C604.393 398.831 601.119 401.348 597.29 402.51C595.268 403.222 593.07 403.266 591.021 402.634C588.972 402.002 587.18 400.728 585.91 399Z" fill="#DD6E42"/>
<path d="M578.81 400.64C579.728 400.229 580.691 399.926 581.68 399.74C583.49 399.3 586.01 398.81 588.8 398.35C591.59 397.89 594.13 397.54 595.98 397.35C596.971 397.185 597.975 397.108 598.98 397.12C598.019 397.402 597.035 397.603 596.04 397.72L588.89 398.89C586.11 399.35 583.59 399.79 581.77 400.13C580.794 400.356 579.806 400.526 578.81 400.64V400.64Z" fill="#263238"/>
<path d="M228.48 335.69C230.612 337.446 232.274 339.705 233.317 342.263C234.359 344.821 234.749 347.598 234.452 350.344C234.154 353.091 233.178 355.72 231.612 357.995C230.046 360.271 227.939 362.121 225.48 363.38C221.81 353.97 220.4 343.84 228.48 335.69Z" fill="#DD6E42"/>
<path d="M242.39 342.91C242.587 346.477 243.667 349.939 245.534 352.985C247.401 356.03 249.996 358.564 253.085 360.358C256.174 362.152 259.661 363.15 263.232 363.262C266.802 363.374 270.345 362.597 273.54 361C266.54 350 257.07 340.73 242.39 342.89" fill="#DD6E42"/>
<path d="M210.52 308.13C210.696 308.277 210.854 308.445 210.99 308.63L212.24 310.12C213.3 311.43 214.85 313.32 216.81 315.61C220.71 320.21 226.22 326.47 232.71 333C235.96 336.26 239.15 339.27 242.11 341.93C245.07 344.59 247.87 346.86 250.27 348.68C252.155 350.125 254.122 351.46 256.16 352.68C257.61 353.54 258.47 353.9 258.45 353.95C258.227 353.899 258.012 353.818 257.81 353.71C257.209 353.464 256.625 353.18 256.06 352.86C253.975 351.699 251.971 350.4 250.06 348.97C247.62 347.17 244.82 344.9 241.81 342.28C238.8 339.66 235.61 336.62 232.35 333.36C225.85 326.82 220.35 320.51 216.54 315.84C214.61 313.51 213.11 311.58 212.09 310.24L210.91 308.68C210.763 308.509 210.633 308.325 210.52 308.13Z" fill="#263238"/>
<path d="M227.71 349.91C227.62 349.91 227.95 348.51 228.24 346.24C228.982 340.303 228.353 334.275 226.4 328.62C225.65 326.46 225.04 325.17 225.12 325.13C225.328 325.392 225.5 325.682 225.63 325.99C226.048 326.803 226.421 327.637 226.75 328.49C227.829 331.313 228.535 334.264 228.85 337.27C229.162 340.268 229.078 343.294 228.6 346.27C228.452 347.19 228.252 348.102 228 349C227.939 349.313 227.842 349.619 227.71 349.91V349.91Z" fill="#263238"/>
<path d="M669 147.54C667.762 145.899 666.942 143.981 666.61 141.952C666.279 139.922 666.446 137.843 667.098 135.893C667.749 133.943 668.866 132.181 670.351 130.759C671.835 129.336 673.644 128.297 675.62 127.73C677.616 131.192 678.281 135.263 677.49 139.18C677.159 141.3 676.155 143.257 674.626 144.763C673.098 146.268 671.125 147.242 669 147.54Z" fill="#DD6E42"/>
<path d="M667.1 154.57C667.17 153.567 667.362 152.577 667.67 151.62C668.14 149.82 668.9 147.37 669.82 144.69C670.74 142.01 671.64 139.61 672.32 137.88C672.64 136.927 673.049 136.007 673.54 135.13C673.33 136.112 673.039 137.076 672.67 138.01C672.01 139.92 671.2 142.26 670.31 144.86C669.42 147.46 668.58 149.96 668.02 151.72C667.762 152.685 667.455 153.636 667.1 154.57V154.57Z" fill="#263238"/>
<path d="M625 221.94C623.966 218.1 623.881 214.066 624.755 210.186C625.628 206.306 627.433 202.697 630.014 199.671C632.594 196.644 635.872 194.292 639.565 192.816C643.258 191.34 647.255 190.785 651.21 191.2C652.6 198.76 650.21 206.52 646.26 213.09C641.55 220.84 632.19 224.09 625 221.94Z" fill="#DD6E42"/>
<path d="M595.41 251.54C595.535 251.346 595.679 251.165 595.84 251L597.13 249.53C598.28 248.27 599.96 246.47 602.05 244.27C606.25 239.87 612.11 233.86 618.63 227.27C625.15 220.68 631.08 214.73 635.4 210.46L640.54 205.41L641.96 204.06C642.28 203.76 642.46 203.6 642.48 203.62C642.347 203.807 642.196 203.981 642.03 204.14L640.68 205.56L635.68 210.71L619 227.63L602.32 244.53L597.32 249.67L595.96 251.07C595.796 251.247 595.611 251.405 595.41 251.54V251.54Z" fill="#263238"/>
<g opacity="0.3">
<path d="M625 221.94C623.966 218.1 623.881 214.066 624.755 210.186C625.628 206.306 627.433 202.697 630.014 199.671C632.594 196.644 635.872 194.292 639.565 192.816C643.258 191.34 647.255 190.785 651.21 191.2C652.6 198.76 650.21 206.52 646.26 213.09C641.55 220.84 632.19 224.09 625 221.94Z" fill="black"/>
</g>
<path d="M611.29 224.91C609.112 223.8 607.238 222.175 605.831 220.175C604.424 218.176 603.528 215.863 603.219 213.438C602.911 211.013 603.199 208.549 604.061 206.261C604.922 203.973 606.329 201.93 608.16 200.31C612.16 202.81 614.72 207.08 616.05 211.6C617.63 216.94 615.25 222.6 611.29 224.91Z" fill="#DD6E42"/>
<g opacity="0.3">
<path d="M611.29 224.91C609.112 223.8 607.238 222.175 605.831 220.175C604.424 218.176 603.528 215.863 603.219 213.438C602.911 211.013 603.199 208.549 604.061 206.261C604.922 203.973 606.329 201.93 608.16 200.31C612.16 202.81 614.72 207.08 616.05 211.6C617.63 216.94 615.25 222.6 611.29 224.91Z" fill="black"/>
</g>
<path d="M612.85 233.43C612.712 233.137 612.611 232.828 612.55 232.51C612.38 231.92 612.19 231.05 611.98 229.96C611.56 227.8 611.12 224.78 610.72 221.45C610.32 218.12 610.04 215.08 609.87 212.88C609.726 211.699 609.679 210.508 609.73 209.32C609.98 210.484 610.15 211.663 610.24 212.85C610.51 215.17 610.86 218.12 611.24 221.39C611.62 224.66 612.02 227.73 612.34 229.9C612.66 232.07 612.93 233.41 612.85 233.43Z" fill="#263238"/>
<path d="M424 340.81C425.528 337.184 427.936 333.996 431.007 331.535C434.077 329.074 437.712 327.417 441.584 326.714C445.455 326.011 449.441 326.285 453.18 327.51C456.92 328.735 460.295 330.873 463 333.73C451.66 342.52 438.43 348.52 424.08 340.81" fill="#DD6E42"/>
<g opacity="0.3">
<path d="M424 340.81C425.528 337.184 427.936 333.996 431.007 331.535C434.077 329.074 437.712 327.417 441.584 326.714C445.455 326.011 449.441 326.285 453.18 327.51C456.92 328.735 460.295 330.873 463 333.73C451.66 342.52 438.43 348.52 424.08 340.81" fill="black"/>
</g>
<path d="M417.63 344.33C417.9 344.06 418.202 343.825 418.53 343.63C419.13 343.2 420.02 342.63 421.16 341.97C427.103 338.534 433.69 336.359 440.51 335.58C441.81 335.44 442.87 335.37 443.6 335.36C443.978 335.308 444.362 335.308 444.74 335.36C444.74 335.44 443.13 335.54 440.55 335.92C437.193 336.411 433.885 337.187 430.66 338.24C427.444 339.303 424.326 340.641 421.34 342.24C419 343.52 417.68 344.4 417.63 344.33Z" fill="#263238"/>
<path d="M160.43 210.51C163.176 209.229 166.198 208.651 169.223 208.827C172.248 209.004 175.181 209.93 177.76 211.521C180.338 213.113 182.48 215.321 183.994 217.946C185.507 220.571 186.345 223.531 186.43 226.56C175.38 225.74 164.69 222.35 160.43 210.51Z" fill="#DD6E42"/>
<g opacity="0.3">
<path d="M160.43 210.51C163.176 209.229 166.198 208.651 169.223 208.827C172.248 209.004 175.181 209.93 177.76 211.521C180.338 213.113 182.48 215.321 183.994 217.946C185.507 220.571 186.345 223.531 186.43 226.56C175.38 225.74 164.69 222.35 160.43 210.51Z" fill="black"/>
</g>
<path d="M154.94 209.22C155.231 209.172 155.529 209.172 155.82 209.22C156.616 209.306 157.407 209.432 158.19 209.6C160.78 210.141 163.307 210.948 165.73 212.01C168.151 213.082 170.457 214.399 172.61 215.94C173.43 216.54 174.07 217.05 174.49 217.43C174.726 217.608 174.938 217.817 175.12 218.05C175.06 218.12 174.12 217.35 172.4 216.25C168.029 213.366 163.195 211.252 158.11 210C156.16 209.51 154.93 209.3 154.94 209.22Z" fill="#263238"/>
<path d="M518.76 328.56C518.434 325.869 518.783 323.138 519.774 320.615C520.766 318.092 522.369 315.855 524.44 314.106C526.511 312.356 528.984 311.149 531.638 310.593C534.291 310.037 537.041 310.149 539.64 310.92C535.87 320.09 530.01 328.24 518.76 328.56Z" fill="#DD6E42"/>
<path d="M516.13 332.87C516.435 331.935 516.855 331.042 517.38 330.21C519.74 326.085 522.947 322.506 526.79 319.71C527.561 319.099 528.404 318.585 529.3 318.18C528.566 318.828 527.799 319.435 527 320C523.329 322.912 520.177 326.425 517.68 330.39C517.211 331.246 516.694 332.074 516.13 332.87V332.87Z" fill="#263238"/>
<path d="M597.45 276.61C596.625 274.028 596.454 271.281 596.953 268.617C597.453 265.953 598.607 263.454 600.312 261.347C602.017 259.239 604.219 257.589 606.72 256.544C609.221 255.499 611.943 255.092 614.64 255.36C612.64 265.08 608.44 274.18 597.45 276.61Z" fill="#DD6E42"/>
<g opacity="0.3">
<path d="M597.45 276.61C596.625 274.028 596.454 271.281 596.953 268.617C597.453 265.953 598.607 263.454 600.312 261.347C602.017 259.239 604.219 257.589 606.72 256.544C609.221 255.499 611.943 255.092 614.64 255.36C612.64 265.08 608.44 274.18 597.45 276.61Z" fill="black"/>
</g>
<path d="M595.68 281.34C595.802 280.366 596.047 279.412 596.41 278.5C597.175 276.255 598.181 274.099 599.41 272.07C600.627 270.036 602.062 268.142 603.69 266.42C604.328 265.667 605.057 264.995 605.86 264.42C605.266 265.193 604.632 265.934 603.96 266.64C602.44 268.42 601.066 270.32 599.85 272.32C598.657 274.329 597.624 276.429 596.76 278.6C596.453 279.533 596.093 280.448 595.68 281.34V281.34Z" fill="#263238"/>
<path d="M4.28027 205.1C4.8682 202.453 6.10505 199.994 7.87948 197.944C9.65391 195.895 11.9102 194.318 14.4453 193.357C16.9804 192.396 19.7147 192.081 22.4021 192.439C25.0895 192.797 27.6456 193.818 29.8403 195.41C23.2403 202.8 15.0003 208.54 4.28027 205.1Z" fill="#DD6E42"/>
<path d="M0.370117 208.29C0.971636 207.514 1.66315 206.813 2.43012 206.2C4.22322 204.664 6.17414 203.324 8.25012 202.2C10.3279 201.055 12.5242 200.139 14.8001 199.47C15.7264 199.143 16.6911 198.938 17.6701 198.86C16.7689 199.243 15.8476 199.577 14.9101 199.86C10.4787 201.381 6.33927 203.647 2.67012 206.56C1.93813 207.181 1.17013 207.759 0.370117 208.29V208.29Z" fill="#263238"/>
<path d="M461.37 74.6002L469.37 60.1102C464.236 51.9528 462.338 42.17 464.05 32.6846C465.762 23.1991 470.96 14.6971 478.622 8.84956C486.285 3.00203 495.857 0.231938 505.458 1.08377C515.059 1.9356 523.994 6.34774 530.508 13.453C537.021 20.5582 540.641 29.8426 540.656 39.4813C540.671 49.12 537.081 58.4159 530.59 65.5418C524.1 72.6677 515.179 77.1082 505.58 77.9906C495.982 78.8729 486.401 76.1333 478.72 70.3102V70.3102L461.37 74.6002Z" fill="#F8E2D9"/>
<path d="M491.36 33.0004L496.36 32.9503C496.351 32.3796 496.456 31.8127 496.671 31.2837C496.885 30.7546 497.204 30.2741 497.608 29.8709C498.012 29.4677 498.493 29.1501 499.023 28.9369C499.552 28.7238 500.119 28.6195 500.69 28.6304C501.534 28.584 502.37 28.8057 503.079 29.2637C503.789 29.7218 504.335 30.3927 504.64 31.1804C504.912 31.8336 505.026 32.5419 504.972 33.2475C504.918 33.9531 504.698 34.6359 504.33 35.2403C503.49 36.6503 501.64 37.9403 498.25 37.3803L498.36 48.6904H503.36L503.27 42.0004C505.3 41.382 507.071 40.115 508.312 38.3937C509.553 36.6724 510.195 34.5916 510.14 32.4704C510.07 25.1404 503.48 23.4703 500.66 23.5303C498.51 23.5803 491.18 24.1704 491.36 33.0004Z" fill="#DD6E42"/>
<path d="M503.421 50.9766L498.391 51.0249L498.436 55.7247L503.466 55.6764L503.421 50.9766Z" fill="#DD6E42"/>
</svg>
