<svg width="750" height="500" viewBox="0 0 750 500" fill="none" xmlns="http://www.w3.org/2000/svg">
<path d="M38.89 169.28L39.89 171.2C48.06 187.34 64.26 197.94 82.19 198.2C84.4968 198.228 86.8027 198.091 89.09 197.79C97.3861 196.559 105.25 193.3 111.984 188.3C118.717 183.3 124.112 176.715 127.69 169.13C131.85 160.13 133.63 149.6 140.69 142.77C149.92 133.88 164.37 134.69 177.02 136.06C189.67 137.43 204.13 138.21 213.33 129.28C219.09 123.69 221.43 115.28 221.62 107.22C222.13 85.8596 208.77 65.6896 190.62 54.7896C172.47 43.8896 150.36 41.3196 129.41 43.8896C100.05 47.4896 71.33 61.3696 52.9 84.8096C34.47 108.25 27.73 141.59 38.89 169.28Z" fill="#F5F5F5"/>
<path d="M536 71.9996L534.87 73.8196C525.38 89.2196 524.8 108.58 533.96 123.99C535.133 125.976 536.453 127.871 537.91 129.66C543.286 136.102 550.17 141.117 557.951 144.257C565.732 147.397 574.168 148.566 582.51 147.66C592.34 146.51 602.27 142.51 611.8 144.99C624.2 148.22 631.06 160.99 636.5 172.47C641.94 183.95 648.83 196.71 661.24 199.88C669.02 201.88 677.41 199.48 684.39 195.43C702.87 184.7 713.09 162.78 712.92 141.62C712.75 120.46 703.37 100.26 690.23 83.7396C671.81 60.5496 645 43.3096 615.35 39.8396C585.7 36.3696 553.76 47.9996 536 71.9996Z" fill="#F5F5F5"/>
<path d="M317.316 101.716C321.91 83.6916 311.023 65.3553 292.998 60.7609C274.974 56.1665 256.637 67.0538 252.043 85.0784C247.449 103.103 258.336 121.439 276.361 126.034C294.385 130.628 312.722 119.741 317.316 101.716Z" fill="#F5F5F5"/>
<path d="M714.76 453.47C714.76 453.61 562.32 453.73 374.32 453.73C186.32 453.73 33.8501 453.61 33.8501 453.47C33.8501 453.33 186.26 453.21 374.32 453.21C562.38 453.21 714.76 453.33 714.76 453.47Z" fill="#263238"/>
<path d="M87 339.07C87.27 338.23 118.43 236.37 118.43 236.37L117.65 223.72L125.8 210.3L135.92 213.65L134.54 228.65L127.34 239.59L96 342L87 339.07Z" fill="#E0E0E0"/>
<path d="M87 339.07L87.6 339.24L89.33 339.78L96 341.87L95.89 341.93C100.96 325.32 112.68 286.88 127.12 239.55L134.31 228.62V228.73C134.75 223.94 135.22 218.85 135.69 213.73L135.87 214L135.03 213.73L125.75 210.66L126.05 210.55L117.9 223.97V223.82C118.16 228.133 118.417 232.35 118.67 236.47V236.56C109.56 266.15 101.67 291.78 96.06 310.02C93.24 319.15 90.98 326.42 89.43 331.43C88.66 333.93 88.05 335.86 87.64 337.18L87.17 338.67L87 339.18C87.0339 339.014 87.0773 338.85 87.13 338.69C87.23 338.34 87.37 337.85 87.56 337.22C87.96 335.9 88.56 333.98 89.28 331.5C90.79 326.5 92.99 319.22 95.75 310.1C101.33 291.8 109.15 266.1 118.19 236.41V236.5C117.93 232.38 117.667 228.163 117.4 223.85V223.77V223.7L125.55 210.28L125.65 210.1L125.85 210.17L135.14 213.23L135.97 213.51L136.17 213.57V213.78C135.7 218.93 135.23 224.02 134.78 228.78V228.85V228.9L127.59 239.84V239.77C113 287 101.18 325.39 96.06 342V342.09H95.97L89.29 339.88L87.6 339.31L87 339.07Z" fill="#263238"/>
<path d="M79.49 344L65.49 362.92L45.92 433.92C45.92 433.92 43.11 448.4 59.1 452.51C77.1 457.13 81.2 443.37 81.2 443.37L100.2 374.04L100 350L104.69 344.71C104.902 344.463 105.051 344.169 105.123 343.852C105.196 343.535 105.19 343.205 105.106 342.891C105.023 342.576 104.864 342.287 104.643 342.048C104.422 341.81 104.147 341.628 103.84 341.52L81.36 334.1C81.0476 334.002 80.716 333.983 80.3943 334.043C80.0726 334.104 79.7706 334.242 79.5149 334.446C79.2592 334.651 79.0575 334.915 78.9277 335.215C78.7978 335.516 78.7437 335.844 78.77 336.17L79.49 344Z" fill="#DD6E42"/>
<path d="M100.12 350.829C100.07 350.969 95.3601 349.599 89.6001 347.769C83.8401 345.939 79.1901 344.339 79.2401 344.199C79.2901 344.059 83.9901 345.439 89.7601 347.269C95.5301 349.099 100.16 350.689 100.12 350.829Z" fill="#263238"/>
<path d="M100.24 374.049C99.7662 374.019 99.2969 373.939 98.8401 373.809C97.9401 373.619 96.6601 373.309 95.0701 372.909C91.8901 372.119 87.5301 370.909 82.7801 369.389C78.0301 367.869 73.7801 366.329 70.7101 365.139C69.1901 364.539 67.9601 364.039 67.1201 363.679C66.6742 363.519 66.2454 363.315 65.8401 363.069C66.3061 363.165 66.7616 363.305 67.2001 363.489L70.8401 364.789C73.9201 365.889 78.1801 367.379 82.9301 368.889C87.6801 370.399 92.0201 371.669 95.1601 372.559L98.8901 373.609C99.3526 373.714 99.8045 373.862 100.24 374.049V374.049Z" fill="#263238"/>
<g opacity="0.3">
<path d="M73.9205 370.447L73.4309 370.304C71.6813 369.794 69.8493 370.798 69.3389 372.548L52.0097 431.962C51.4994 433.712 52.5041 435.544 54.2537 436.054L54.7433 436.197C56.493 436.707 58.325 435.703 58.8353 433.953L76.1645 374.539C76.6749 372.789 75.6702 370.957 73.9205 370.447Z" fill="black"/>
</g>
<g opacity="0.3">
<path d="M83.9525 373.7L83.4629 373.557C81.7133 373.047 79.8812 374.051 79.3709 375.801L62.0417 435.215C61.5314 436.965 62.5361 438.797 64.2857 439.307L64.7753 439.45C66.525 439.96 68.357 438.956 68.8673 437.206L86.1965 377.792C86.7068 376.042 85.7022 374.21 83.9525 373.7Z" fill="black"/>
</g>
<g opacity="0.3">
<path d="M93.0024 376.693L92.5134 376.548C90.7658 376.031 88.9297 377.028 88.4124 378.776L70.8451 438.12C70.3277 439.868 71.3251 441.704 73.0726 442.221L73.5617 442.366C75.3092 442.883 77.1453 441.886 77.6626 440.138L95.23 380.794C95.7473 379.046 94.75 377.21 93.0024 376.693Z" fill="black"/>
</g>
<path d="M127.27 239.599C125.741 239.343 124.245 238.917 122.81 238.329C121.32 237.91 119.884 237.32 118.53 236.569C120.055 236.832 121.547 237.258 122.98 237.839C124.473 238.26 125.912 238.85 127.27 239.599Z" fill="#263238"/>
<path d="M135.94 213.65C135.865 214.126 135.748 214.594 135.59 215.05C135.3 216.05 134.92 217.31 134.45 218.87L130.45 231.87L130.37 232.12L130.12 232.04L125.51 230.43L120.77 228.77L120.54 228.69L120.61 228.46C122.05 223.32 123.32 218.81 124.26 215.46C124.72 213.91 125.09 212.63 125.38 211.67C125.498 211.205 125.651 210.75 125.84 210.31C125.785 210.787 125.688 211.259 125.55 211.72L124.55 215.55C123.66 218.88 122.46 223.4 121.08 228.55L120.92 228.24L125.67 229.9L130.27 231.51L129.94 231.68L134.14 218.77C134.66 217.22 135.14 215.96 135.42 215C135.555 214.536 135.729 214.084 135.94 213.65V213.65Z" fill="#263238"/>
<path d="M430.9 111.92C430.093 111.922 429.292 111.786 428.53 111.52L416.28 107.28C415.078 106.86 414.006 106.132 413.173 105.169C412.34 104.205 411.773 103.041 411.53 101.79L409.08 89.0602C408.84 87.8085 408.933 86.5155 409.351 85.3113C409.769 84.1071 410.496 83.0341 411.46 82.2002L421.26 73.7202C422.225 72.8879 423.391 72.3233 424.642 72.0829C425.893 71.8425 427.186 71.9347 428.39 72.3502L440.63 76.5902C441.834 77.0091 442.908 77.7366 443.743 78.6999C444.578 79.6632 445.146 80.8288 445.39 82.0802L447.84 94.8102C448.075 96.0619 447.979 97.3534 447.562 98.5566C447.145 99.7599 446.42 100.833 445.46 101.67L435.66 110.15C434.337 111.292 432.648 111.921 430.9 111.92ZM419.3 99.8602L430.75 103.86L439.9 95.9402L437.61 84.0002L426.17 80.0002L417 88.0002L419.3 99.8602Z" fill="#E0E0E0"/>
<path d="M419.3 99.8604C419.216 99.6016 419.15 99.3377 419.1 99.0704L418.6 96.7204C418.17 94.6104 417.6 91.6404 416.83 88.0104C416.822 87.9762 416.824 87.9407 416.834 87.9074C416.845 87.874 416.864 87.844 416.89 87.8204L426.01 79.8204C426.047 79.8011 426.088 79.791 426.13 79.791C426.172 79.791 426.213 79.8011 426.25 79.8204L437.69 83.8204L437.87 84.0204V84.1904V84.3904L437.95 84.7804L438.1 85.5604C438.2 86.0704 438.29 86.5604 438.39 87.1004C438.59 88.1004 438.78 89.1004 438.97 90.1004C439.35 92.1004 439.72 94.0204 440.07 95.8704C440.078 95.9124 440.075 95.9558 440.061 95.9963C440.047 96.0367 440.022 96.0726 439.99 96.1004L430.87 104C430.841 104.017 430.808 104.026 430.775 104.026C430.741 104.026 430.709 104.017 430.68 104L422.31 101L420.06 100.16C419.799 100.076 419.545 99.972 419.3 99.8504C419.585 99.9101 419.866 99.9903 420.14 100.09L422.45 100.83L430.81 103.63H430.62L439.74 95.6304L439.66 95.8704C439.3 94.0104 438.92 92.0904 438.54 90.1004C438.35 89.1004 438.15 88.1004 437.95 87.1004C437.85 86.5904 437.76 86.1004 437.66 85.5604L437.51 84.7804L437.43 84.3904V84.1904V84.0904V84.0204C437.43 84.0204 437.75 84.3904 437.59 84.2104L426.16 80.2104H426.4L417.21 88.1004L417.28 87.9104C417.93 91.5304 418.47 94.4804 418.85 96.5904C419.02 97.5904 419.16 98.3804 419.26 98.9804C419.3 99.2719 419.314 99.5664 419.3 99.8604V99.8604Z" fill="#263238"/>
<path d="M430.9 111.92C430.9 111.92 431.33 111.92 432.14 111.76C433.307 111.538 434.403 111.033 435.33 110.29L445.28 101.58C446.369 100.641 447.146 99.3921 447.51 98.0005C447.706 97.2674 447.787 96.5084 447.75 95.7505C447.661 94.9602 447.528 94.1756 447.35 93.4005C446.72 90.1705 446.05 86.7305 445.35 83.1105C445.226 82.2049 444.981 81.3203 444.62 80.4805C444.231 79.6332 443.677 78.8722 442.99 78.2419C442.303 77.6117 441.498 77.125 440.62 76.8105L437.8 75.8105L432.01 73.8105L429.01 72.8105C428.06 72.4105 427.041 72.1966 426.01 72.1805C424.974 72.1792 423.95 72.4045 423.01 72.8405C422.097 73.2987 421.26 73.8958 420.53 74.6105L415.9 78.6105L411.43 82.4805C410.069 83.7273 409.251 85.4575 409.15 87.3005C409.136 88.193 409.236 89.0837 409.45 89.9505C409.62 90.8405 409.78 91.7105 409.95 92.5705C410.27 94.2905 410.59 95.9505 410.89 97.5705C411.19 99.1905 411.48 100.75 411.79 102.21C412.163 103.595 412.943 104.835 414.03 105.77C414.535 106.202 415.097 106.562 415.7 106.84C416.29 107.1 416.92 107.29 417.5 107.51L420.85 108.69L426.21 110.59C427.319 111.038 428.454 111.415 429.61 111.72C430.41 111.87 430.85 111.86 430.85 111.88C430.432 111.931 430.008 111.931 429.59 111.88C428.42 111.611 427.271 111.26 426.15 110.83L420.81 109L417.45 107.86C416.85 107.65 416.24 107.47 415.61 107.2C414.972 106.913 414.377 106.539 413.84 106.09C412.686 105.116 411.854 103.816 411.45 102.36C411.11 100.84 410.84 99.3005 410.52 97.6905C410.2 96.0805 409.88 94.4105 409.52 92.6905C409.347 91.8438 409.177 90.9738 409.01 90.0805C408.785 89.1782 408.677 88.2504 408.69 87.3205C408.794 85.3459 409.666 83.4903 411.12 82.1505L415.58 78.2705L420.21 74.2705C420.61 73.9305 420.98 73.5905 421.41 73.2705C421.848 72.9448 422.317 72.6634 422.81 72.4305C423.806 71.968 424.892 71.7291 425.99 71.7305C427.079 71.7475 428.155 71.9715 429.16 72.3905L432.16 73.3905L437.95 75.3905L440.77 76.3905C441.722 76.7302 442.596 77.2572 443.34 77.9405C444.07 78.6104 444.658 79.4196 445.07 80.3205C445.448 81.1982 445.703 82.1234 445.83 83.0705C446.497 86.7038 447.147 90.1371 447.78 93.3705C447.96 94.1649 448.09 94.9698 448.17 95.7805C448.228 96.9316 448.019 98.0806 447.562 99.1384C447.104 100.196 446.409 101.134 445.53 101.88L435.47 110.47C434.501 111.21 433.364 111.698 432.16 111.89C431.743 111.952 431.32 111.962 430.9 111.92V111.92Z" fill="#263238"/>
<path d="M345.67 91.1002C344.877 91.0983 344.095 90.9175 343.382 90.5712C342.668 90.2249 342.042 89.7221 341.55 89.1002L338.06 84.7502C337.484 84.0271 337.107 83.1657 336.967 82.2517C336.826 81.3378 336.928 80.403 337.26 79.5402L339.26 74.3402C339.597 73.4797 340.154 72.7227 340.875 72.1452C341.596 71.5678 342.457 71.1902 343.37 71.0502L348.88 70.2002C349.794 70.0619 350.728 70.1654 351.59 70.5005C352.451 70.8356 353.21 71.3906 353.79 72.1102L357.28 76.4702C357.857 77.1914 358.234 78.0511 358.374 78.9635C358.514 79.8759 358.413 80.8092 358.08 81.6702L356.08 86.8802C355.749 87.7414 355.198 88.5009 354.482 89.0833C353.766 89.6657 352.911 90.0507 352 90.2002L346.48 91.0402C346.212 91.0807 345.941 91.1008 345.67 91.1002V91.1002ZM349.67 74.1702H349.48L344 75.0002C343.779 75.0331 343.57 75.1233 343.395 75.2619C343.22 75.4005 343.083 75.5827 343 75.7902L341 81.0002C340.921 81.2072 340.897 81.4312 340.93 81.6503C340.963 81.8694 341.053 82.0762 341.19 82.2502L344.68 86.6002C344.82 86.7727 345.002 86.9057 345.209 86.9864C345.416 87.067 345.641 87.0925 345.86 87.0602L351.38 86.2102C351.602 86.1783 351.811 86.0885 351.987 85.9497C352.162 85.811 352.298 85.6283 352.38 85.4202L354.38 80.2202C354.462 80.0136 354.487 79.7892 354.453 79.5697C354.42 79.3502 354.329 79.1434 354.19 78.9702L350.7 74.6202C350.578 74.4771 350.427 74.3626 350.255 74.2849C350.084 74.2071 349.898 74.168 349.71 74.1702H349.67Z" fill="#E0E0E0"/>
<path d="M349.71 74.1705C349.85 74.1267 350 74.1267 350.14 74.1705C350.313 74.2176 350.474 74.3031 350.61 74.4205C350.78 74.5883 350.94 74.7652 351.09 74.9505L353.93 78.3605L354.39 78.9305C354.563 79.1659 354.661 79.4484 354.67 79.7405C354.664 80.0284 354.596 80.3115 354.47 80.5705C354.38 80.8205 354.28 81.0705 354.19 81.3305C353.79 82.3305 353.37 83.4606 352.93 84.6206C352.82 84.9106 352.71 85.2005 352.59 85.5005C352.459 85.8618 352.194 86.1589 351.85 86.3305C351.528 86.4505 351.192 86.5278 350.85 86.5605L349.85 86.7205C348.5 86.9205 347.18 87.1505 345.68 87.3405C345.465 87.3411 345.252 87.296 345.055 87.208C344.859 87.1201 344.683 86.9914 344.54 86.8305L343.88 86.0005L342.59 84.4005L341.36 82.8405L341.05 82.4605C340.931 82.3203 340.837 82.1615 340.77 81.9905C340.635 81.6364 340.635 81.2447 340.77 80.8905L342.07 77.6205L342.66 76.1405C342.746 75.8886 342.86 75.647 343 75.4205C343.16 75.1951 343.383 75.0213 343.64 74.9205C345.56 74.5705 347.02 74.4305 348.07 74.2905C348.607 74.1854 349.153 74.1385 349.7 74.1505C349.568 74.1997 349.43 74.2332 349.29 74.2505L348.11 74.4905C347.11 74.6905 345.53 74.9105 343.78 75.2605C343.592 75.343 343.43 75.4742 343.31 75.6405C343.198 75.8487 343.104 76.0662 343.03 76.2905L342.47 77.7805L341.21 81.0705C341.12 81.3124 341.12 81.5787 341.21 81.8205C341.349 82.0781 341.52 82.3167 341.72 82.5305L343 84.1005L344.29 85.7005L344.94 86.5105C345.035 86.6154 345.15 86.699 345.28 86.7559C345.409 86.8128 345.549 86.8416 345.69 86.8405L349.78 86.2306L350.78 86.0805C351.084 86.0616 351.383 86.001 351.67 85.9005C351.907 85.788 352.09 85.5869 352.18 85.3405C352.29 85.0405 352.41 84.7505 352.52 84.4605C352.98 83.3205 353.41 82.2205 353.82 81.1905C353.933 80.9439 354.033 80.6939 354.12 80.4405C354.229 80.2326 354.293 80.0045 354.31 79.7705C354.3 79.5574 354.235 79.3505 354.12 79.1705L353.68 78.6105L350.97 75.1005C350.851 74.8554 350.674 74.6427 350.454 74.4808C350.235 74.3188 349.979 74.2124 349.71 74.1705V74.1705Z" fill="#263238"/>
<path d="M345.67 91.1001C345.887 91.0508 346.108 91.0174 346.33 91.0002L348.24 90.6701L351.24 90.1602C351.863 90.0921 352.475 89.9442 353.06 89.7202C353.701 89.4556 354.28 89.0605 354.76 88.5601C355.311 88.0124 355.734 87.35 356 86.6202C356.29 85.8602 356.6 85.0602 356.91 84.2302C357.46 82.5602 358.58 80.8502 358.17 78.9402C357.993 77.9716 357.55 77.0714 356.89 76.3401L354.89 73.8602L353.89 72.5802C353.571 72.15 353.195 71.7663 352.77 71.4402C351.905 70.791 350.852 70.4402 349.77 70.4402C349.213 70.4606 348.658 70.5242 348.11 70.6301L346.44 70.8801L343.19 71.3901C342.193 71.6066 341.285 72.123 340.59 72.8702C340.255 73.2284 339.972 73.6325 339.75 74.0702C339.54 74.5002 339.37 75.0001 339.19 75.4501L338.12 78.1602C337.747 78.9772 337.453 79.8276 337.24 80.7001C337.122 81.4878 337.184 82.2921 337.421 83.0525C337.658 83.8128 338.065 84.5095 338.61 85.0901L341.12 88.2902C341.5 88.7502 341.81 89.2101 342.17 89.5601C342.496 89.8803 342.862 90.1561 343.26 90.3801C344.026 90.7862 344.866 91.0312 345.73 91.1001C345.73 91.1001 345.67 91.1001 345.55 91.1001C345.43 91.1001 345.27 91.1001 345.05 91.1001C344.394 91.0408 343.755 90.854 343.17 90.5502C342.748 90.3259 342.355 90.0505 342 89.7302C341.608 89.3266 341.237 88.9027 340.89 88.4601L338.32 85.3101C337.732 84.6946 337.291 83.9535 337.031 83.1428C336.772 82.3321 336.699 81.4729 336.82 80.6301C337.021 79.7199 337.312 78.8322 337.69 77.9802L338.74 75.2701C338.93 74.8001 339.08 74.3401 339.31 73.8501C339.549 73.366 339.855 72.9182 340.22 72.5201C340.967 71.7162 341.934 71.1494 343 70.8901C344.1 70.7001 345.17 70.5502 346.28 70.3702L347.95 70.1202C348.523 70.0052 349.105 69.9383 349.69 69.9201C350.882 69.9093 352.044 70.2886 353 71.0002C353.459 71.351 353.867 71.7651 354.21 72.2302L355.21 73.5102C355.89 74.3502 356.55 75.1902 357.21 76.0002C357.923 76.7961 358.398 77.7769 358.58 78.8302C358.757 79.8404 358.646 80.8801 358.26 81.8302C357.92 82.7002 357.58 83.5501 357.26 84.3801C356.94 85.2101 356.62 85.9902 356.32 86.7602C356.04 87.5123 355.6 88.1946 355.03 88.7602C354.016 89.7354 352.685 90.3138 351.28 90.3902L348.28 90.8101C347.45 90.9201 346.8 91.0102 346.36 91.0402C346.133 91.0875 345.902 91.1076 345.67 91.1001V91.1001Z" fill="#263238"/>
<path d="M443.09 78.0498C442.386 79.2603 441.518 80.3675 440.51 81.3398C439.624 82.4345 438.559 83.3711 437.36 84.1098C438.203 83.0041 439.129 81.9644 440.13 80.9998C441.002 79.9078 441.995 78.9181 443.09 78.0498V78.0498Z" fill="#263238"/>
<path d="M424.34 72.2998C424.993 73.4758 425.443 74.7538 425.67 76.0798C426.075 77.3727 426.255 78.7259 426.2 80.0798C425.752 78.8256 425.417 77.5338 425.2 76.2198C424.793 74.9423 424.506 73.6301 424.34 72.2998V72.2998Z" fill="#263238"/>
<path d="M416.88 87.7701C415.571 87.5126 414.287 87.1446 413.04 86.6702C411.742 86.3516 410.471 85.9303 409.24 85.4102C411.929 85.6273 414.537 86.4329 416.88 87.7701V87.7701Z" fill="#263238"/>
<path d="M414.75 105.12C415.274 104.075 415.948 103.111 416.75 102.26C417.438 101.308 418.26 100.459 419.19 99.7402C418.673 100.79 417.999 101.754 417.19 102.6C416.502 103.553 415.68 104.402 414.75 105.12V105.12Z" fill="#263238"/>
<path d="M431.59 110.59C431.187 109.561 430.951 108.474 430.89 107.37C430.649 106.288 430.585 105.173 430.7 104.07C431.099 105.104 431.335 106.194 431.4 107.3C431.635 108.38 431.699 109.49 431.59 110.59Z" fill="#263238"/>
<path d="M445.82 97.7801C444.796 97.6604 443.798 97.3697 442.87 96.9201C441.877 96.6357 440.94 96.1824 440.1 95.5801C442.116 95.9892 444.049 96.7328 445.82 97.7801V97.7801Z" fill="#263238"/>
<path d="M644.34 174.46C651.11 166.3 657.88 158.06 663.16 148.86C668.44 139.66 672.16 129.38 672.43 118.78C672.43 117.17 671.78 106.02 670.23 105.57C669.13 105.25 668.37 115.1 667.47 115.81C658.83 122.57 653.22 132.6 649.99 143.08C646.95 153.298 645.055 163.823 644.34 174.46" fill="#263238"/>
<path d="M556.15 236.48C558.85 229.48 572.15 194.48 572.08 194.48C572.01 194.48 549.17 182.56 557.08 158.28C560.88 146.55 570.67 123.04 579.77 101.86C584.493 90.8868 593.175 82.0936 604.086 77.2296C614.998 72.3657 627.341 71.7875 638.66 75.6101L640.99 76.4001C665.65 86.4001 670.99 112.87 660.32 137.24L611.32 250.74L568.38 237.47L556.15 236.48Z" fill="#FFBF9D"/>
<path d="M572.09 194.5C572.09 194.5 587.02 200.5 606.7 195.82C606.7 195.82 593.08 211.21 569.7 200.89L572.09 194.5Z" fill="#FF9A6C"/>
<path d="M579.73 125.23C579.418 126.127 579.468 127.11 579.87 127.971C580.271 128.832 580.993 129.502 581.88 129.84C582.308 130.022 582.767 130.118 583.232 130.12C583.697 130.123 584.158 130.033 584.587 129.855C585.016 129.677 585.406 129.415 585.733 129.084C586.06 128.754 586.317 128.361 586.49 127.93C586.805 127.033 586.756 126.048 586.354 125.187C585.952 124.326 585.23 123.655 584.34 123.32C583.913 123.136 583.453 123.039 582.988 123.036C582.523 123.033 582.062 123.123 581.632 123.301C581.202 123.479 580.812 123.742 580.486 124.073C580.159 124.404 579.902 124.798 579.73 125.23V125.23Z" fill="#263238"/>
<path d="M581.51 113.66C581.79 114.26 585.06 113.2 588.77 114.47C592.48 115.74 594.58 118.47 595.13 118.19C595.4 118.06 595.24 117.1 594.34 115.83C593.113 114.174 591.4 112.94 589.44 112.3C587.501 111.63 585.397 111.602 583.44 112.22C582 112.71 581.37 113.39 581.51 113.66Z" fill="#263238"/>
<path d="M612.32 138.34C612.006 139.235 612.055 140.218 612.457 141.078C612.859 141.938 613.582 142.606 614.47 142.94C614.898 143.124 615.357 143.22 615.823 143.223C616.288 143.227 616.749 143.137 617.179 142.958C617.609 142.78 617.998 142.518 618.325 142.187C618.651 141.855 618.908 141.462 619.08 141.03C619.392 140.133 619.342 139.149 618.941 138.289C618.539 137.428 617.818 136.757 616.93 136.42C616.502 136.237 616.042 136.143 615.577 136.141C615.111 136.139 614.65 136.23 614.221 136.409C613.791 136.588 613.402 136.851 613.076 137.182C612.749 137.514 612.492 137.907 612.32 138.34Z" fill="#263238"/>
<path d="M617.4 127.45C617.67 128.05 620.95 127 624.66 128.26C628.37 129.52 630.46 132.26 631.02 131.99C631.28 131.85 631.13 130.89 630.23 129.63C628.999 127.971 627.283 126.734 625.32 126.09C623.381 125.418 621.277 125.39 619.32 126.01C617.92 126.5 617.26 127.18 617.4 127.45Z" fill="#263238"/>
<path d="M594.43 151.5C594.52 151.3 592.34 150.12 588.76 148.38C587.85 147.96 587.01 147.47 587.07 146.76C587.13 146.05 587.82 145.11 588.65 144.17L593.9 137.89C601.27 128.89 606.95 121.42 606.58 121.12C606.21 120.82 599.95 127.86 592.58 136.83C590.79 139.05 589.07 141.16 587.44 143.19C586.72 144.19 585.69 145.19 585.69 146.75C585.716 147.129 585.828 147.499 586.017 147.829C586.205 148.16 586.466 148.444 586.78 148.66C587.26 148.978 587.777 149.236 588.32 149.43C592 150.9 594.34 151.71 594.43 151.5Z" fill="#263238"/>
<path d="M604.5 157.76C603.9 157.53 602.5 161.56 598.12 163.25C593.74 164.94 589.55 163.06 589.33 163.61C589.19 163.84 590.03 164.71 591.82 165.38C594.174 166.206 596.743 166.182 599.08 165.31C601.32 164.465 603.144 162.784 604.17 160.62C604.89 159 604.78 157.83 604.5 157.76Z" fill="#263238"/>
<path d="M622.69 112.45C622.69 113.58 626.59 114.36 630.77 116.35C634.95 118.34 638.08 120.73 638.96 120.02C639.36 119.67 639.07 118.51 637.96 117.02C636.471 115.178 634.58 113.701 632.433 112.701C630.286 111.701 627.938 111.204 625.57 111.25C623.77 111.39 622.7 111.92 622.69 112.45Z" fill="#263238"/>
<path d="M587.22 101.83C587.59 102.9 590.44 102.83 593.53 103.83C596.62 104.83 599.03 106.32 599.92 105.64C600.33 105.3 600.21 104.32 599.34 103.13C598.132 101.657 596.514 100.576 594.692 100.022C592.869 99.4685 590.923 99.4679 589.1 100.02C587.72 100.57 587.07 101.32 587.22 101.83Z" fill="#263238"/>
<path d="M652.26 154.5C652.74 154.5 670.53 155.19 664.43 171.5C658.33 187.81 643.16 178.35 643.31 177.87C643.46 177.39 652.26 154.5 652.26 154.5Z" fill="#FFBF9D"/>
<path d="M650.62 173.581C650.71 173.581 650.83 173.891 651.23 174.291C651.796 174.836 652.554 175.138 653.34 175.131C655.34 175.131 657.78 172.941 658.96 170.021C659.529 168.634 659.778 167.137 659.69 165.641C659.732 165.07 659.633 164.497 659.401 163.974C659.169 163.451 658.811 162.993 658.36 162.641C658.064 162.423 657.699 162.318 657.332 162.345C656.965 162.373 656.621 162.531 656.36 162.791C655.97 163.171 655.95 163.531 655.86 163.531C655.77 163.531 655.61 163.121 655.99 162.531C656.228 162.165 656.58 161.888 656.99 161.741C657.567 161.57 658.188 161.631 658.72 161.911C659.336 162.299 659.842 162.838 660.192 163.477C660.542 164.115 660.724 164.832 660.72 165.561C660.882 167.238 660.635 168.929 660 170.491C658.66 173.741 655.83 176.201 653.21 176.001C652.723 175.962 652.25 175.815 651.826 175.571C651.403 175.327 651.039 174.992 650.76 174.591C650.5 174.001 650.55 173.591 650.62 173.581Z" fill="#FF9A6C"/>
<path d="M600.64 78.9298C598.56 76.4698 609.75 70.9298 617.36 70.5098C628.86 69.8298 644.87 72.8298 652.91 78.8598C662.61 86.1098 669.56 94.9898 671.22 106.98C672.88 118.97 670.51 131.29 665.86 142.47C664.44 145.88 662.7 149.33 659.74 151.54C656.09 154.27 650.85 154.86 649.13 159.91C648.845 160.832 648.381 161.689 647.763 162.43C647.145 163.172 646.386 163.783 645.53 164.23C641.33 166.23 638.83 161.88 638.3 158.23C637.17 150.47 639.69 142.7 642.18 135.23C643.95 129.95 645.78 124.56 649.18 120.13C651.02 117.72 653.28 115.65 654.99 113.13C656.7 110.61 657.81 107.46 656.99 104.55C656.781 103.908 656.51 103.288 656.18 102.7C654.668 99.8463 652.425 97.446 649.681 95.745C646.936 94.044 643.788 93.1035 640.56 93.0198C630.13 92.7498 612.56 91.5798 609.71 86.8998C605.54 80.1598 605.25 76.6998 605.25 76.6998L600.64 78.9298Z" fill="#263238"/>
<path d="M655 68.8801C656.05 69.4101 680.62 84.5901 680.46 106.73C680.3 128.87 676.25 134.29 676.25 134.29C677.074 135.305 677.747 136.433 678.25 137.64C678.91 139.32 675.14 145.02 671.91 143.12C649.85 122.65 619.45 110.89 584.77 100.12L558.61 90.7501C550.95 89.0801 549.04 86.2301 552.78 85.4601C555.65 84.8601 579.41 83.6601 579.41 83.6601L584.54 82.0801L600.54 70.7701C600.54 70.7701 599.92 68.2101 603.17 67.3801C606.42 66.5501 634.34 58.3801 655 68.8801Z" fill="#DD6E42"/>
<path d="M584.52 82.1201C584.52 82.1201 584.87 82.2601 585.52 82.4801L588.52 83.4201C591.1 84.1901 594.77 85.4901 599.29 87.1501C610.985 91.6512 622.265 97.1654 633 103.63C643.729 110.122 654.079 117.22 664 124.89C667.84 127.8 670.89 130.22 673 131.89L675.45 133.8C676.01 134.23 676.32 134.44 676.32 134.44C676.32 134.44 676.05 134.18 675.5 133.72L673.11 131.72C671.02 130.02 667.99 127.56 664.18 124.62C654.294 116.86 643.941 109.713 633.18 103.22C622.412 96.7315 611.071 91.2451 599.3 86.8301C594.455 85.0137 589.522 83.4417 584.52 82.1201Z" fill="#263238"/>
<g opacity="0.3">
<path d="M675.34 89C675.34 89 648.22 74.48 633.24 76.24L635 76L621 77.16C618.63 77.36 615.92 77.43 614.3 75.7C614.3 75.7 622.79 72.1 636.2 72.17C649.61 72.24 669.29 77 675.34 89Z" fill="black"/>
</g>
<path d="M675.7 89.2398C675.099 88.3346 674.43 87.4755 673.7 86.6698C671.747 84.4393 669.538 82.4457 667.12 80.7298C663.54 78.1652 659.601 76.1434 655.43 74.7298C650.348 72.8579 644.921 72.1041 639.52 72.5198C636.748 72.7992 633.996 73.2534 631.28 73.8798C628.66 74.4698 626.11 74.8798 623.7 75.5798C621.491 76.3128 619.222 76.8548 616.92 77.1998C614.906 77.3989 612.873 77.1285 610.98 76.4098C603.89 74.0798 600.06 71.1298 600.54 70.7998C600.566 71.0871 600.698 71.3545 600.91 71.5498C601.486 72.1126 602.131 72.5999 602.83 72.9998C605.375 74.5232 608.078 75.7671 610.89 76.7098C612.825 77.4576 614.905 77.7518 616.97 77.5698C619.298 77.2445 621.593 76.7192 623.83 75.9998C626.19 75.3498 628.77 74.9098 631.39 74.3198C634.089 73.719 636.82 73.2782 639.57 72.9998C644.907 72.5982 650.267 73.3309 655.3 75.1498C659.439 76.5347 663.359 78.5047 666.94 80.9998C669.356 82.681 671.579 84.6226 673.57 86.7898C674.28 87.5598 674.81 88.1798 675.15 88.6098C675.49 89.0398 675.7 89.2398 675.7 89.2398Z" fill="#263238"/>
<g opacity="0.3">
<path d="M680.14 115.88C675 114.07 671.56 111.4 666.83 108.52C661.83 105.46 656.72 102.66 651.83 99.3604C648.12 96.8604 643.63 94.2204 641.98 90.3604C641.433 91.2968 641.137 92.3589 641.121 93.4435C641.105 94.5281 641.37 95.5984 641.89 96.5504C642.94 98.5504 647.39 102.12 649.29 103.41C660.1 110.76 667.61 115.78 679.69 120.89C679.947 119.235 680.094 117.565 680.13 115.89" fill="black"/>
</g>
<path d="M680.4 104.28C683.18 106.81 684.85 108.45 683.99 111.28C683.28 113.62 681.84 116.28 679.42 115.91C678.704 115.744 678.026 115.445 677.42 115.03L644.3 95.6401C643.101 95.1149 642.129 94.1786 641.56 93.0001C640.9 91.1201 642.56 89.0601 644.47 88.5401C646.38 88.0201 648.42 88.5401 650.32 89.2001C661.1 92.6901 670.93 98.0501 680.4 104.27" fill="#DD6E42"/>
<path d="M641.92 93.7198C641.615 93.1417 641.47 92.4927 641.5 91.8398C641.574 90.9587 641.895 90.1163 642.426 89.4089C642.956 88.7015 643.675 88.1577 644.5 87.8398C646.62 87.1198 649.43 87.5998 652.19 88.7198C654.95 89.8398 658.06 91.1098 661.19 92.5598C666.627 94.9711 671.837 97.8626 676.76 101.2C678.64 102.49 680.09 103.63 681.1 104.42L682.24 105.35C682.369 105.465 682.51 105.565 682.66 105.65C682.66 105.65 682.55 105.51 682.3 105.28L681.21 104.28C680.21 103.45 678.82 102.28 676.95 100.93C672.06 97.4984 666.845 94.5543 661.38 92.1398C658.2 90.6798 655.13 89.4198 652.31 88.3098C649.49 87.1998 646.6 86.7198 644.31 87.5298C643.442 87.876 642.692 88.4645 642.15 89.2252C641.607 89.9859 641.295 90.8866 641.25 91.8198C641.237 92.3209 641.343 92.8179 641.56 93.2698C641.653 93.4397 641.775 93.592 641.92 93.7198V93.7198Z" fill="#263238"/>
<path d="M595.52 74.3604L618.03 81.5704L613.98 87.2204L589.85 78.3604L595.52 74.3604Z" fill="white"/>
<path d="M622.52 105.81C622.57 105.69 613.1 100.81 601.35 94.9904C589.6 89.1704 580 84.4604 580 84.5804C580 84.7004 589.42 89.5804 601.17 95.4004C612.92 101.22 622.46 105.92 622.52 105.81Z" fill="#263238"/>
<path d="M628.19 227.13L628.49 212.35L577.91 231.14C577.91 231.14 568.56 200.77 568.56 199.34L557.35 206.34L538.72 198.34L520.09 189.14L482.41 255.14L442.88 371.68L536 433.8L605.06 359.8L647.06 295.8L670.14 255.28L628.19 227.13Z" fill="#DD6E42"/>
<path d="M573.41 230.921C573.351 230.43 573.328 229.935 573.34 229.441C573.34 228.441 573.34 227.021 573.28 225.301L573.51 225.441C567.952 228.155 562.821 231.669 558.28 235.871L557.88 236.251V235.701C557.88 235.041 557.8 234.341 557.76 233.631C557.35 226.381 557.01 219.821 556.76 215.061C556.66 212.741 556.58 210.841 556.52 209.431C556.52 208.817 556.52 208.307 556.52 207.901C556.454 207.888 556.395 207.851 556.355 207.798C556.314 207.744 556.295 207.677 556.301 207.61C556.308 207.543 556.339 207.481 556.388 207.436C556.438 207.39 556.503 207.365 556.57 207.365C556.638 207.365 556.702 207.39 556.752 207.436C556.802 207.481 556.833 207.543 556.839 207.61C556.845 207.677 556.826 207.744 556.786 207.798C556.745 207.851 556.686 207.888 556.62 207.901C556.62 208.301 556.7 208.811 556.76 209.421C556.86 210.831 556.99 212.731 557.15 215.041C557.47 219.791 557.86 226.351 558.27 233.601C558.27 234.311 558.35 235.011 558.38 235.671L557.95 235.491C562.526 231.26 567.736 227.771 573.39 225.151L573.63 225.051V225.301C573.63 227.021 573.56 228.411 573.54 229.441C573.533 229.936 573.49 230.431 573.41 230.921Z" fill="#263238"/>
<path d="M623.53 227.84C623.35 227.965 623.155 228.069 622.95 228.15L621.26 228.96L615 231.83L594.24 241.11L584.38 245.47L583.96 245.65L584.04 245.2C584.854 240.511 585.236 235.758 585.18 231L585.41 231.14L580.74 233.41L579.49 233.99C579.21 234.12 579.06 234.18 579.05 234.16C579.173 234.06 579.307 233.976 579.45 233.91L580.66 233.25L585.27 230.85L585.49 230.73V231C585.631 235.798 585.296 240.598 584.49 245.33L584.15 245.06L594 240.68L614.82 231.53L621.16 228.81L622.89 228.1C623.092 227.987 623.307 227.9 623.53 227.84V227.84Z" fill="#263238"/>
<path d="M535.1 153.88H154.2C146.153 153.88 139.63 160.403 139.63 168.45V432.19C139.63 440.237 146.153 446.76 154.2 446.76H535.1C543.147 446.76 549.67 440.237 549.67 432.19V168.45C549.67 160.403 543.147 153.88 535.1 153.88Z" fill="#455A64"/>
<path d="M123.6 427.84H567.85V435.67C567.85 440.391 565.975 444.918 562.637 448.256C559.298 451.594 554.771 453.47 550.05 453.47H141.4C136.679 453.47 132.152 451.594 128.814 448.256C125.475 444.918 123.6 440.391 123.6 435.67V427.84V427.84Z" fill="#455A64"/>
<path d="M537.52 165.521H150.64V412.851H537.52V165.521Z" fill="#263238"/>
<path d="M304.23 425.1L309.74 434.57H387.31L392.43 425.1H304.23Z" fill="#263238"/>
<path d="M527.07 173.89H161.87C160.064 173.89 158.6 175.354 158.6 177.16V408.78C158.6 410.586 160.064 412.05 161.87 412.05H527.07C528.876 412.05 530.34 410.586 530.34 408.78V177.16C530.34 175.354 528.876 173.89 527.07 173.89Z" fill="#EBEBEB"/>
<path d="M529.95 412.4H158.21L158.6 191.69H529.95V412.4Z" fill="#FAFAFA"/>
<path d="M189.84 183.09C189.811 183.688 189.607 184.264 189.253 184.747C188.899 185.23 188.412 185.599 187.851 185.808C187.29 186.017 186.68 186.056 186.096 185.922C185.513 185.787 184.982 185.485 184.569 185.051C184.156 184.618 183.879 184.073 183.772 183.484C183.666 182.895 183.735 182.287 183.97 181.737C184.205 181.186 184.597 180.717 185.097 180.387C185.596 180.057 186.181 179.881 186.78 179.88C187.611 179.901 188.4 180.251 188.974 180.852C189.547 181.454 189.859 182.259 189.84 183.09V183.09Z" fill="#263238"/>
<path d="M171.28 183.09C171.251 183.688 171.046 184.264 170.693 184.747C170.339 185.23 169.852 185.599 169.291 185.808C168.73 186.017 168.12 186.056 167.536 185.922C166.953 185.787 166.422 185.485 166.009 185.051C165.596 184.618 165.319 184.073 165.212 183.484C165.106 182.895 165.175 182.287 165.41 181.737C165.645 181.186 166.037 180.717 166.536 180.387C167.036 180.057 167.621 179.881 168.22 179.88C169.051 179.901 169.84 180.251 170.413 180.852C170.987 181.454 171.299 182.259 171.28 183.09V183.09Z" fill="#263238"/>
<path d="M180.82 183.09C180.791 183.688 180.586 184.264 180.233 184.747C179.879 185.23 179.392 185.599 178.831 185.808C178.27 186.017 177.66 186.056 177.076 185.922C176.493 185.787 175.962 185.485 175.549 185.051C175.136 184.618 174.859 184.073 174.752 183.484C174.646 182.895 174.715 182.287 174.95 181.737C175.185 181.186 175.577 180.717 176.077 180.387C176.576 180.057 177.161 179.881 177.76 179.88C178.591 179.901 179.38 180.251 179.954 180.852C180.527 181.454 180.839 182.259 180.82 183.09V183.09Z" fill="#263238"/>
<path d="M546.15 425.101C546.15 425.261 455.15 425.381 342.9 425.381C230.65 425.381 139.63 425.261 139.63 425.101C139.63 424.941 230.63 424.811 342.9 424.811C455.17 424.811 546.15 424.941 546.15 425.101Z" fill="#263238"/>
<path d="M304.54 234C310.584 230.352 317.088 227.527 323.88 225.6L327.88 206.45L360.22 205.88L364.88 224.88C371.733 226.572 378.331 229.168 384.5 232.6L400.85 221.89L424.12 244.36L414 261.09C417.65 267.137 420.475 273.644 422.4 280.44L441.54 284.44L442.11 316.78L423.11 321.44C421.414 328.274 418.814 334.852 415.38 341L426.1 357.35L403.63 380.62L386.92 370.49C380.874 374.14 374.366 376.965 367.57 378.89L363.57 398.04L331.22 398.6L326.57 379.6C319.735 377.925 313.153 375.346 307 371.93L290.65 382.65L267.38 360.18L277.51 343.47C273.857 337.424 271.028 330.916 269.1 324.12L249.96 320.12L249.39 287.78L268.39 283.12C270.081 276.266 272.677 269.668 276.11 263.5L265.4 247.15L287.87 223.88L304.54 234ZM321.78 277.09C317.014 282.027 313.818 288.267 312.598 295.021C311.378 301.774 312.187 308.738 314.925 315.031C317.662 321.324 322.204 326.664 327.976 330.376C333.748 334.088 340.491 336.005 347.353 335.885C354.215 335.765 360.887 333.613 366.525 329.701C372.164 325.789 376.516 320.293 379.031 313.907C381.546 307.522 382.111 300.534 380.655 293.828C379.199 287.121 375.787 280.997 370.85 276.23C367.57 273.066 363.699 270.579 359.457 268.911C355.216 267.244 350.687 266.428 346.131 266.511C341.574 266.593 337.078 267.573 332.9 269.393C328.722 271.213 324.943 273.839 321.78 277.12V277.09Z" fill="#E0E0E0"/>
<path d="M433.75 246.37C434.193 243.977 434.95 241.654 436 239.46L432 234.06L439.24 225.58L445.24 228.72C447.241 227.341 449.417 226.234 451.71 225.43L452.71 218.76L463.82 217.89L465.82 224.32C468.214 224.762 470.538 225.522 472.73 226.58L478.13 222.58L486.61 229.83L483.47 235.83C484.854 237.833 485.964 240.012 486.77 242.31L493.43 243.31L494.3 254.43L487.87 256.43C487.431 258.824 486.671 261.149 485.61 263.34L489.61 268.75L482.37 277.22L476.37 274.08C474.367 275.464 472.188 276.574 469.89 277.38L468.89 284.05L457.78 284.92L455.78 278.48C453.387 278.041 451.063 277.284 448.87 276.23L443.46 280.23L435 272.9L438.14 266.9C436.758 264.895 435.648 262.716 434.84 260.42L428.18 259.42L427.31 248.3L433.74 246.3L433.75 246.37ZM448.82 249.74C448.583 252.24 449.136 254.753 450.402 256.922C451.669 259.092 453.584 260.809 455.878 261.833C458.172 262.856 460.73 263.133 463.19 262.626C465.65 262.119 467.889 260.852 469.592 259.004C471.294 257.157 472.373 254.822 472.678 252.328C472.982 249.835 472.497 247.309 471.289 245.106C470.082 242.903 468.214 241.134 465.948 240.05C463.682 238.965 461.133 238.619 458.66 239.06C456.078 239.52 453.718 240.813 451.941 242.742C450.164 244.671 449.068 247.129 448.82 249.74V249.74Z" fill="#E0E0E0"/>
<path d="M190.22 358C190.301 355.127 190.769 352.278 191.61 349.53L185.94 344L192.88 332.82L200.4 335.42C202.501 333.449 204.855 331.767 207.4 330.42L207.34 322.47L220.16 319.47L223.63 326.62C226.503 326.7 229.352 327.167 232.1 328.01L237.69 322.34L248.87 329.28L246.27 336.8C248.241 338.9 249.923 341.254 251.27 343.8L259.22 343.74L262.22 356.55L255.06 360C254.971 362.873 254.5 365.721 253.66 368.47L259.33 374.05L252.39 385.24L244.87 382.64C242.772 384.613 240.417 386.295 237.87 387.64L237.93 395.59L225.12 398.59L221.64 391.44C218.775 391.34 215.936 390.856 213.2 390L207.62 395.67L196.43 388.73L199.03 381.21C197.059 379.109 195.378 376.755 194.03 374.21L186.03 374.27L183.03 361.46L190.18 357.98L190.22 358ZM208.75 361.6C209.393 364.316 210.826 366.781 212.868 368.683C214.91 370.585 217.471 371.839 220.225 372.287C222.98 372.735 225.806 372.356 228.346 371.199C230.885 370.042 233.025 368.158 234.495 365.785C235.965 363.412 236.698 360.657 236.603 357.868C236.508 355.079 235.588 352.38 233.96 350.113C232.332 347.846 230.069 346.113 227.456 345.131C224.843 344.15 221.998 343.965 219.28 344.6C217.468 345.022 215.757 345.798 214.246 346.884C212.735 347.969 211.453 349.343 210.475 350.926C209.496 352.508 208.84 354.269 208.544 356.106C208.248 357.943 208.318 359.82 208.75 361.63V361.6Z" fill="#E0E0E0"/>
<path d="M213.23 251.18C213.557 249.374 214.129 247.621 214.93 245.97L211.93 241.89L217.39 235.5L221.89 237.87C223.4 236.828 225.041 235.991 226.77 235.38L227.51 230.38L235.89 229.72L237.39 234.57C239.194 234.906 240.946 235.477 242.6 236.27L246.68 233.27L253.06 238.73L250.7 243.23C251.743 244.737 252.577 246.379 253.18 248.11L258.18 248.84L258.84 257.22L254 258.68C253.669 260.483 253.101 262.235 252.31 263.89L255.31 267.96L249.85 274.35L245.35 271.98C243.843 273.025 242.201 273.863 240.47 274.47L239.74 279.47L231.36 280.12L229.85 275.27C228.045 274.942 226.292 274.37 224.64 273.57L220.57 276.57L214.18 271.11L216.54 266.61C215.498 265.102 214.664 263.461 214.06 261.73L209.06 260.99L208.41 252.61L213.26 251.11L213.23 251.18ZM224.58 255.25C224.722 257.023 225.385 258.714 226.487 260.11C227.589 261.506 229.08 262.544 230.772 263.094C232.463 263.643 234.28 263.679 235.992 263.197C237.703 262.715 239.234 261.736 240.39 260.385C241.547 259.033 242.276 257.369 242.488 255.603C242.699 253.837 242.383 252.048 241.578 250.462C240.773 248.876 239.517 247.564 237.967 246.691C236.417 245.819 234.644 245.425 232.87 245.56C231.689 245.649 230.537 245.972 229.48 246.508C228.423 247.044 227.483 247.783 226.713 248.683C225.943 249.583 225.358 250.627 224.992 251.754C224.626 252.881 224.486 254.069 224.58 255.25V255.25Z" fill="#EBEBEB"/>
<path d="M434.17 341.43C434.459 339.88 434.95 338.374 435.63 336.95L433.02 333.45L437.71 327.96L441.58 329.96C442.875 329.063 444.284 328.343 445.77 327.82L446.4 323.5L453.6 322.94L454.89 327.11C456.442 327.395 457.948 327.886 459.37 328.57L462.87 325.96L468.36 330.65L466.36 334.51C467.257 335.809 467.977 337.221 468.5 338.71L472.82 339.34L473.38 346.54L469.21 347.83C468.925 349.382 468.434 350.889 467.75 352.31L470.36 355.81L465.67 361.29L461.81 359.29C460.509 360.184 459.097 360.904 457.61 361.43L456.98 365.74L449.78 366.3L448.49 362.14C446.939 361.851 445.433 361.36 444.01 360.68L440.51 363.29L435 358.6L437 354.74C436.103 353.446 435.383 352.036 434.86 350.55L430.55 349.92L429.98 342.72L434.15 341.43H434.17ZM443.92 344.92C444.038 346.451 444.608 347.912 445.558 349.118C446.507 350.324 447.794 351.22 449.253 351.695C450.713 352.169 452.281 352.198 453.758 351.78C455.235 351.362 456.554 350.515 457.549 349.346C458.544 348.177 459.169 346.739 459.346 345.214C459.522 343.689 459.242 342.147 458.54 340.781C457.839 339.416 456.748 338.29 455.405 337.546C454.063 336.801 452.53 336.472 451 336.6C448.959 336.769 447.069 337.739 445.742 339.298C444.415 340.858 443.76 342.879 443.92 344.92Z" fill="#EBEBEB"/>
<path d="M345.73 352.28H296C293.077 352.273 290.207 351.499 287.677 350.035C285.147 348.571 283.046 346.468 281.583 343.938C280.12 341.407 279.347 338.536 279.341 335.613C279.336 332.69 280.097 329.817 281.55 327.28L306.43 284.19L331.3 241.1C332.767 238.565 334.874 236.461 337.412 234.997C339.949 233.534 342.826 232.764 345.755 232.764C348.684 232.764 351.561 233.534 354.098 234.997C356.636 236.461 358.743 238.565 360.21 241.1L385.09 284.19L409.97 327.28C411.423 329.818 412.185 332.692 412.179 335.616C412.172 338.54 411.399 341.411 409.935 343.942C408.471 346.473 406.368 348.575 403.836 350.039C401.305 351.502 398.434 352.275 395.51 352.28H345.73Z" fill="#DD6E42"/>
<path d="M399.29 332.22C399.29 332.22 399.42 332.47 399.67 332.99C400.097 334.032 400.26 335.163 400.145 336.283C400.03 337.403 399.64 338.477 399.01 339.41C398.515 340.147 397.88 340.779 397.14 341.27C396.28 341.818 395.297 342.141 394.28 342.21C385.8 342.3 373.56 342.28 358.42 342.32L305.24 342.38H297.64C296.285 342.365 294.967 341.93 293.869 341.135C292.771 340.34 291.947 339.224 291.51 337.94C291.047 336.658 290.96 335.27 291.26 333.94C291.34 333.61 291.45 333.28 291.56 332.94C291.67 332.6 291.85 332.31 292 332.01L293 330.26C294.28 327.91 295.58 325.55 296.88 323.16L313 293.57L329.22 264C331.827 259.22 334.394 254.53 336.92 249.93C337.56 248.79 338.15 247.64 338.83 246.51C339.506 245.356 340.471 244.398 341.63 243.73C342.766 243.079 344.041 242.709 345.349 242.65C346.657 242.591 347.96 242.845 349.15 243.39C350.331 243.924 351.361 244.742 352.15 245.77C352.833 246.807 353.451 247.886 354 249C355.17 251.14 356.33 253.25 357.46 255.33C359.74 259.49 361.944 263.527 364.07 267.44C368.34 275.25 372.31 282.53 375.93 289.17C383.17 302.46 389.02 313.22 393.07 320.67L397.71 329.24C398.23 330.24 398.63 330.96 398.9 331.48C399.17 332 399.3 332.25 399.3 332.25C399.3 332.25 399.14 332 398.86 331.5L397.62 329.29L392.89 320.76C388.81 313.33 382.89 302.61 375.61 289.35L363.7 267.64L357.06 255.55C355.92 253.47 354.77 251.36 353.59 249.22C353.04 248.14 352.429 247.092 351.76 246.08C351.022 245.12 350.061 244.355 348.96 243.85C347.84 243.336 346.613 243.097 345.381 243.152C344.15 243.208 342.95 243.557 341.88 244.17C340.796 244.804 339.894 245.706 339.26 246.79C338.6 247.88 338 249.05 337.37 250.19L329.67 264.26C324.45 273.82 319.03 283.71 313.49 293.85L297.3 323.42C295.99 325.81 294.7 328.18 293.41 330.52C292.707 331.623 292.153 332.813 291.76 334.06C291.475 335.306 291.555 336.608 291.99 337.81C292.385 339.001 293.144 340.038 294.159 340.775C295.175 341.513 296.396 341.913 297.65 341.92H305.25L358.43 341.97L394.28 342.02C395.263 341.963 396.215 341.66 397.05 341.14C397.779 340.667 398.407 340.056 398.9 339.34C399.67 338.208 400.081 336.87 400.08 335.5C400.068 334.361 399.798 333.24 399.29 332.22Z" fill="#263238"/>
<path d="M337.67 323C337.67 318.59 341.19 315.3 346.2 315.3C351.21 315.3 354.65 318.59 354.65 323C354.65 327.41 351.21 330.85 346.2 330.85C341.19 330.85 337.67 327.35 337.67 323ZM337.75 277.83H354.65L351.81 311.11H340.52L337.75 277.83Z" fill="white"/>
<path d="M348.11 236.12C347.087 235.774 346.026 235.553 344.95 235.46C342.335 235.404 339.783 236.259 337.73 237.88C335.726 239.551 334.112 241.64 333 244C332.09 245.8 331.66 247 331.58 246.95C331.607 246.654 331.678 246.365 331.79 246.09C332.04 245.324 332.334 244.572 332.67 243.84C333.727 241.363 335.363 239.175 337.44 237.46C339.58 235.762 342.274 234.921 345 235.1C345.817 235.161 346.618 235.357 347.37 235.68C347.86 235.91 348.13 236.09 348.11 236.12Z" fill="white"/>
<path d="M327.31 254.4C327.516 253.537 327.886 252.723 328.4 252C329.13 250.77 329.82 249.83 329.95 249.9C329.739 250.75 329.365 251.552 328.85 252.26C328.479 253.066 327.956 253.793 327.31 254.4Z" fill="white"/>
<g opacity="0.3">
<path d="M370.69 259.26L293.2 307L283.14 324.44L376.16 268.73L370.69 259.26Z" fill="white"/>
</g>
<g opacity="0.3">
<path d="M382.89 280.42L280.18 341C280.592 342.588 281.354 344.064 282.41 345.32L384.7 283.56L382.89 280.42Z" fill="white"/>
</g>
<path d="M636.72 393.4C632.815 389.097 627.755 386.009 622.142 384.506C616.53 383.002 610.603 383.146 605.07 384.92L595.5 374.42L594.17 372.93L518.44 289.84C520.569 284.908 521.345 279.499 520.691 274.167C520.036 268.836 517.974 263.775 514.715 259.504C511.457 255.234 507.12 251.908 502.151 249.868C497.182 247.829 491.759 247.15 486.44 247.9L482.74 249.37L495.61 258L494.92 272.05L484.51 281.5L470.46 280.81L461.28 270.69L457.49 272.18C456.4 280.65 462.08 291.33 468.27 298.18C472.168 302.478 477.22 305.563 482.823 307.068C488.426 308.574 494.343 308.436 499.87 306.67L576.87 391.15L579.23 393.78L586.53 401.78C584.247 407.103 583.541 412.969 584.496 418.681C585.452 424.393 588.029 429.711 591.92 434C598.08 440.8 606.26 445.34 614.77 445.11L618.57 443.63L609.38 433.5L610.07 419.5L620.48 410.05L634.48 410.73L639.86 422.34L643.66 420.85C644.832 416.056 644.812 411.047 643.602 406.262C642.393 401.478 640.03 397.062 636.72 393.4Z" fill="#E0E0E0"/>
<g opacity="0.3">
<path d="M636.72 393.4C632.815 389.097 627.755 386.009 622.142 384.506C616.53 383.002 610.603 383.146 605.07 384.92L595.5 374.42L594.17 372.93L518.44 289.84C520.569 284.908 521.345 279.499 520.691 274.167C520.036 268.836 517.974 263.775 514.715 259.504C511.457 255.234 507.12 251.908 502.151 249.868C497.182 247.829 491.759 247.15 486.44 247.9L482.74 249.37L495.61 258L494.92 272.05L484.51 281.5L470.46 280.81L461.28 270.69L457.49 272.18C456.4 280.65 462.08 291.33 468.27 298.18C472.168 302.478 477.22 305.563 482.823 307.068C488.426 308.574 494.343 308.436 499.87 306.67L576.87 391.15L579.23 393.78L586.53 401.78C584.247 407.103 583.541 412.969 584.496 418.681C585.452 424.393 588.029 429.711 591.92 434C598.08 440.8 606.26 445.34 614.77 445.11L618.57 443.63L609.38 433.5L610.07 419.5L620.48 410.05L634.48 410.73L639.86 422.34L643.66 420.85C644.832 416.056 644.812 411.047 643.602 406.262C642.393 401.478 640.03 397.062 636.72 393.4Z" fill="black"/>
</g>
<path d="M632.92 394.88C629.017 390.578 623.958 387.491 618.347 385.989C612.735 384.487 606.81 384.633 601.28 386.41L591.7 375.9L590.37 374.41L514.64 291.32C516.77 286.389 517.547 280.979 516.893 275.648C516.238 270.317 514.176 265.256 510.917 260.986C507.658 256.716 503.321 253.391 498.351 251.353C493.381 249.315 487.959 248.637 482.64 249.39L491.82 259.51L491.14 273.51L480.71 283L466.71 282.32L457.53 272.2C456.261 277.417 456.404 282.878 457.945 288.022C459.486 293.165 462.369 297.806 466.298 301.466C470.226 305.125 475.059 307.673 480.299 308.846C485.538 310.019 490.996 309.776 496.11 308.14L573.11 392.62L575.48 395.25L582.78 403.25C580.66 408.18 579.891 413.584 580.549 418.91C581.208 424.235 583.273 429.289 586.53 433.553C589.787 437.817 594.121 441.138 599.085 443.174C604.05 445.21 609.467 445.889 614.78 445.14L605.59 435L606.27 421L616.69 411.55L630.69 412.24L639.87 422.36C641.049 417.561 641.032 412.545 639.821 407.754C638.609 402.963 636.239 398.542 632.92 394.88V394.88Z" fill="#E0E0E0"/>
<path d="M632.92 394.88C632.92 394.88 633.36 395.36 634.19 396.33C635.373 397.806 636.42 399.386 637.32 401.05C640.796 407.584 641.757 415.165 640.02 422.36V422.56L639.88 422.41L630.69 412.3L630.77 412.35L616.77 411.68H616.87L606.47 421.14V421.03C606.27 425.39 606.04 430.14 605.8 435.08V434.95L614.91 445L615.15 445.26L614.8 445.31C609.729 446.047 604.555 445.487 599.758 443.685C594.962 441.882 590.7 438.894 587.37 435C583.747 430.791 581.358 425.662 580.47 420.18C579.527 414.433 580.241 408.535 582.53 403.18V403.42L495.84 308.33L496.11 308.4C490.632 310.131 484.778 310.297 479.21 308.88C471.454 306.874 464.799 301.897 460.682 295.024C456.566 288.151 455.319 279.935 457.21 272.15L457.33 271.67L457.66 272.03L466.84 282.15L466.66 282.07L480.71 282.75L480.52 282.82L491 273.36L490.91 273.54C491.14 268.8 491.37 264.13 491.6 259.49L491.66 259.67L482.48 249.55L482.17 249.2L482.63 249.14C488.16 248.358 493.799 249.111 498.931 251.315C504.062 253.519 508.49 257.091 511.73 261.64C514.83 265.98 516.731 271.061 517.24 276.37C517.712 281.487 516.905 286.642 514.89 291.37V291.13L601.44 386.29H601.32C605.44 384.974 609.793 384.555 614.087 385.061C618.382 385.566 622.519 386.984 626.22 389.22C628.101 390.368 629.857 391.708 631.46 393.22C632.46 394.29 633 394.84 633 394.84L631.42 393.26C629.803 391.756 628.041 390.416 626.16 389.26C622.468 387.059 618.35 385.669 614.079 385.182C609.808 384.696 605.483 385.125 601.39 386.44H601.32V386.38L514.61 291.38L514.51 291.27L514.57 291.14C516.553 286.467 517.343 281.374 516.87 276.32C516.37 271.091 514.493 266.087 511.43 261.82C508.24 257.344 503.882 253.831 498.831 251.664C493.781 249.497 488.232 248.758 482.79 249.53L482.94 249.12L492 259.34L492.07 259.41V259.52C491.85 264.146 491.624 268.813 491.39 273.52V273.63L491.31 273.7L480.9 283.15L480.82 283.22H480.71L466.71 282.53H466.6L466.53 282.45L457.34 272.33L457.79 272.22C456.535 277.39 456.676 282.801 458.201 287.898C459.726 292.995 462.579 297.595 466.468 301.226C470.357 304.858 475.141 307.389 480.33 308.562C485.52 309.735 490.928 309.506 496 307.9H496.15L496.27 308.02C527.75 342.6 557.27 374.97 582.9 403.15L583 403.26L582.94 403.4C580.69 408.667 579.979 414.465 580.89 420.12C581.767 425.386 584.025 430.325 587.433 434.434C590.841 438.543 595.277 441.674 600.29 443.51C604.915 445.183 609.88 445.698 614.75 445.01L614.63 445.32L605.46 435.2L605.41 435.14V435C605.65 430.07 605.88 425.32 606.1 421V420.93V420.88L616.53 411.45H616.59L630.59 412.15C633.95 415.87 637.04 419.28 639.75 422.29H639.57C641.319 415.14 640.398 407.598 636.98 401.08C636.093 399.416 635.066 397.83 633.91 396.34C633.33 395.39 632.92 394.88 632.92 394.88Z" fill="#263238"/>
<path d="M595.76 332.26L567 318.86L541.29 315.65L550.73 323.65C550.73 323.65 517.49 335.24 516.91 337.85C516.33 340.46 519.53 347.48 525.39 346.18C525.39 346.18 522.1 350.18 523.47 354.59C524.84 359 527.87 359.83 533.47 358.8C533.47 358.8 529.67 364.49 532.65 367.39C535.63 370.29 540.27 369.56 540.27 369.56C540.27 369.56 540.33 376.49 543.99 377.09C547.65 377.69 557.85 376.98 561.66 375.81L581.01 369.81L593.55 367L595.76 332.26Z" fill="#FFBF9D"/>
<path d="M542.82 341.06C542.93 341.44 539.1 342.88 534.28 344.29C529.46 345.7 525.44 346.52 525.33 346.14C525.22 345.76 529.05 344.31 533.87 342.91C538.69 341.51 542.71 340.68 542.82 341.06Z" fill="#FF9A6C"/>
<path d="M547.71 354.73C547.82 355.11 544.79 356.36 540.93 357.53C537.07 358.7 533.84 359.32 533.72 358.94C533.6 358.56 536.65 357.31 540.51 356.15C544.37 354.99 547.6 354.36 547.71 354.73Z" fill="#FF9A6C"/>
<path d="M552.1 366.1C552.17 366.53 549.41 367.1 546.17 367.92C542.93 368.74 540.4 369.92 540.17 369.51C539.94 369.1 542.32 367.45 545.77 366.51C549.22 365.57 552.05 365.75 552.1 366.1Z" fill="#FF9A6C"/>
<path d="M555.73 322.5C555.84 322.89 552.07 324.26 547.4 325.87C542.73 327.48 538.92 328.71 538.76 328.34C538.6 327.97 542.22 326.13 546.94 324.51C551.66 322.89 555.63 322.12 555.73 322.5Z" fill="#FF9A6C"/>
<path d="M590.34 329.74L652.63 352.3L648.99 395.05L580.41 367.4L590.34 329.74Z" fill="#FFBF9D"/>
<path d="M670.26 254.93C670.26 254.93 678.38 263.32 683.11 278.41C687.84 293.5 710.11 357.47 709.57 377.82C708.98 398.87 694.81 413.89 663.67 405.57C645.09 400.57 622.95 392.57 622.95 392.57L638.69 340.83L651 344L631.12 306.68L670.26 254.93Z" fill="#DD6E42"/>
<path d="M656 279.38C656.12 279.47 647.5 291.74 636.76 306.79C626.02 321.84 617.23 334 617.11 333.9C616.99 333.8 625.61 321.54 636.35 306.49C647.09 291.44 655.89 279.3 656 279.38Z" fill="#263238"/>
<path d="M679.84 351C679.84 351 679.3 350.74 678.33 350.29C676.949 349.674 675.522 349.169 674.06 348.78C672.21 348.27 669.97 347.78 667.48 347.25L659.4 345.47C653.67 344.19 648.48 343 644.74 342.11L640.31 341.03C639.761 340.925 639.222 340.771 638.7 340.57C639.257 340.616 639.808 340.706 640.35 340.84L644.82 341.75C648.59 342.55 653.82 343.68 659.52 344.96L667.59 346.79C670.07 347.35 672.31 347.87 674.16 348.43C675.629 348.856 677.056 349.419 678.42 350.11C678.789 350.298 679.147 350.509 679.49 350.74C679.618 350.811 679.735 350.899 679.84 351V351Z" fill="#263238"/>
<g opacity="0.3">
<path d="M695.76 353.28C695.561 352.052 695.068 350.89 694.323 349.894C693.577 348.898 692.602 348.097 691.48 347.56C689.228 346.495 686.803 345.845 684.32 345.64C673.13 344.1 661.81 343.64 650.52 343.25L651.52 343.7C665.469 346.278 679.121 350.259 692.27 355.58C692.99 355.979 693.837 356.079 694.63 355.86C695.059 355.596 695.397 355.208 695.599 354.747C695.801 354.286 695.857 353.774 695.76 353.28V353.28Z" fill="black"/>
</g>
<g opacity="0.3">
<path d="M439.14 154.92C428.64 153.13 416.08 156.18 405.58 154.39C404.02 154.13 402.3 153.88 400.92 154.68C399.26 155.63 398.69 157.75 398.61 159.68C398.568 162.328 399.08 164.956 400.114 167.395C401.147 169.833 402.679 172.029 404.61 173.84C408.542 177.435 413.453 179.781 418.72 180.58C422.91 181.29 427.42 181.15 431.15 179.13C437.71 175.57 440.86 162.13 439.14 154.92Z" fill="black"/>
</g>
<path d="M398.39 174.13C398.39 174.13 392.02 166.66 391.1 163.22C390.49 160.94 390.79 154.55 391.1 150.5C391.171 149.135 391.639 147.821 392.448 146.719C393.256 145.617 394.369 144.776 395.65 144.3C396.025 144.113 396.444 144.033 396.862 144.066C397.279 144.1 397.68 144.246 398.02 144.49C398.885 143.316 399.856 142.225 400.92 141.23C403.42 138.67 404.61 136.94 410.11 138.53C410.11 138.53 414.16 134.26 416.49 134.58C418.054 134.811 419.601 135.145 421.12 135.58C421.12 135.58 429.99 135.2 431.81 138.02C432.844 139.293 434.238 140.223 435.81 140.69C437.198 141.179 438.473 141.942 439.56 142.933C440.647 143.924 441.525 145.123 442.14 146.46C443.175 148.914 443.774 151.53 443.91 154.19L434.91 154.55C434.91 154.55 435.55 175.26 433.28 176.93C431.01 178.6 430.15 178 430.15 178C430.15 178 428.42 182.86 421.67 179.27C421.67 179.27 416.07 180.96 413.67 178.65C411.27 176.34 402.49 154.15 402.49 154.15L402.74 165.15C402.74 165.15 407.37 172.28 405.1 173.95C402.83 175.62 398.39 174.13 398.39 174.13Z" fill="#FFBF9D"/>
<path d="M409.63 146.061C409.843 146.476 410.014 146.911 410.14 147.361L411.36 150.961C412.36 153.961 413.73 158.241 415.19 162.911C416.65 167.581 417.87 171.911 419.25 174.751C419.781 175.895 420.396 176.998 421.09 178.051C421.58 178.801 421.89 179.181 421.86 179.211C421.83 179.241 421.75 179.141 421.59 178.961C421.355 178.71 421.135 178.446 420.93 178.171C420.161 177.15 419.492 176.058 418.93 174.911C417.44 172.021 416.19 167.731 414.71 163.071C413.23 158.411 411.94 154.151 411.02 151.071C410.6 149.601 410.24 148.381 409.96 147.421C409.808 146.978 409.698 146.523 409.63 146.061V146.061Z" fill="#FF9A6C"/>
<path d="M420.7 143.5C420.901 143.929 421.055 144.378 421.16 144.84L422.23 148.55C423.1 151.68 424.23 156.02 425.55 160.82C426.87 165.62 427.94 169.98 428.72 173.14C429.09 174.64 429.39 175.9 429.63 176.88C429.765 177.337 429.852 177.806 429.89 178.28C429.701 177.846 429.547 177.398 429.43 176.94C429.15 175.94 428.8 174.72 428.37 173.23C427.49 170.1 426.31 165.76 425.05 160.96C423.79 156.16 422.66 151.8 421.87 148.64C421.51 147.13 421.2 145.88 420.97 144.89C420.836 144.436 420.746 143.971 420.7 143.5V143.5Z" fill="#FF9A6C"/>
</svg>
