<svg width="200" height="40" viewBox="0 0 200 40" fill="none" xmlns="http://www.w3.org/2000/svg">
<g clip-path="url(#clip0_21_1308)">
<path d="M0.0983887 9.98367L9.88534 0.196716L39.2462 29.5576L29.4593 39.3445L0.0983887 9.98367Z" fill="#E2E8F0"/>
<path d="M19.6722 29.5576L49.0331 0.196716L58.8201 9.98367L29.4592 39.3445L19.6722 29.5576Z" fill="#E2E8F0"/>
<path d="M58.8201 29.5576L49.0331 39.3445L19.6722 9.98366L29.4592 0.196716L58.8201 29.5576Z" fill="#DD6E42"/>
<path d="M39.2462 9.98366L9.88535 39.3445L0.0983887 29.5576L29.4593 0.196716L39.2462 9.98366Z" fill="#DD6E42"/>
<path d="M19.6723 9.98362L9.88531 19.7706L19.6723 29.5575L29.4592 19.7706L19.6723 9.98362Z" fill="#E2E8F0"/>
<path d="M84.2526 28.7671V18.2287L80.4408 25.9021H78.1986L74.3868 18.2287V28.7671H70.301V11.0786H74.7356L79.3197 20.3215L83.9287 11.0786H88.3384V28.7671H84.2526ZM97.6948 29.0163C96.582 29.0163 95.5938 28.8419 94.7301 28.4931C93.8664 28.1277 93.1273 27.6377 92.5128 27.0232C91.9149 26.4087 91.4581 25.7028 91.1426 24.9055C90.827 24.0917 90.6692 23.2446 90.6692 22.3644C90.6692 21.1021 90.9432 19.9561 91.4913 18.9263C92.056 17.8799 92.8616 17.0412 93.908 16.41C94.9543 15.7623 96.2166 15.4384 97.6948 15.4384C99.173 15.4384 100.427 15.754 101.457 16.3851C102.503 17.0163 103.3 17.8467 103.848 18.8765C104.397 19.8896 104.671 20.9941 104.671 22.19C104.671 22.4225 104.654 22.655 104.621 22.8875C104.604 23.1035 104.588 23.2945 104.571 23.4606H94.9045C94.9543 24.0419 95.1121 24.5318 95.3778 24.9305C95.6602 25.3291 96.0173 25.6363 96.4491 25.8523C96.881 26.0516 97.3377 26.1512 97.8194 26.1512C98.4173 26.1512 98.9737 26.01 99.4886 25.7277C100.02 25.4453 100.385 25.0633 100.585 24.5817L103.973 25.5284C103.641 26.2093 103.167 26.8156 102.553 27.3471C101.955 27.8619 101.241 28.2689 100.41 28.5678C99.5965 28.8668 98.6913 29.0163 97.6948 29.0163ZM94.8048 21.019H100.485C100.419 20.4709 100.261 19.9976 100.012 19.599C99.7626 19.1837 99.4304 18.8682 99.0152 18.6523C98.6 18.4197 98.1432 18.3035 97.645 18.3035C97.1301 18.3035 96.665 18.4197 96.2498 18.6523C95.8512 18.8682 95.5273 19.1837 95.2782 19.599C95.0291 19.9976 94.8713 20.4709 94.8048 21.019ZM115.051 28.0696C114.686 28.219 114.279 28.3685 113.83 28.518C113.399 28.6675 112.942 28.7837 112.46 28.8668C111.979 28.9664 111.505 29.0163 111.04 29.0163C110.376 29.0163 109.761 28.9083 109.197 28.6924C108.648 28.4599 108.208 28.0862 107.876 27.5713C107.561 27.0564 107.403 26.3754 107.403 25.5284V18.7021H105.734V15.6875H107.403V11.527H111.389V15.6875H114.055V18.7021H111.389V24.1581C111.389 24.59 111.497 24.9055 111.713 25.1048C111.929 25.2875 112.203 25.3789 112.535 25.3789C112.817 25.3789 113.116 25.3291 113.432 25.2294C113.764 25.1298 114.046 25.0218 114.279 24.9055L115.051 28.0696ZM116.031 24.8557C116.031 23.992 116.272 23.2363 116.754 22.5886C117.235 21.9408 117.9 21.4343 118.747 21.0689C119.594 20.6869 120.565 20.4959 121.662 20.4959C122.193 20.4959 122.716 20.5457 123.231 20.6453C123.746 20.7284 124.194 20.8529 124.576 21.019V20.446C124.576 19.7318 124.361 19.1837 123.929 18.8017C123.497 18.4197 122.841 18.2287 121.961 18.2287C121.23 18.2287 120.54 18.3533 119.893 18.6024C119.262 18.8516 118.589 19.2087 117.875 19.6737L116.679 17.1325C117.543 16.5678 118.439 16.1443 119.37 15.8619C120.316 15.5796 121.313 15.4384 122.359 15.4384C124.319 15.4384 125.839 15.9118 126.918 16.8585C128.015 17.7886 128.563 19.1422 128.563 20.9194V24.3325C128.563 24.7311 128.621 25.0135 128.737 25.1796C128.87 25.3291 129.094 25.4204 129.41 25.4536V28.7671C129.077 28.8336 128.762 28.8834 128.463 28.9166C128.181 28.9498 127.931 28.9664 127.716 28.9664C126.968 28.9664 126.395 28.817 125.997 28.518C125.615 28.219 125.374 27.8121 125.274 27.2972L125.199 26.7242C124.618 27.4716 123.92 28.0446 123.107 28.4433C122.309 28.8253 121.471 29.0163 120.59 29.0163C119.727 29.0163 118.946 28.8336 118.248 28.4682C117.567 28.1028 117.028 27.6045 116.629 26.9734C116.23 26.3422 116.031 25.6363 116.031 24.8557ZM123.954 25.354C124.136 25.2045 124.286 25.0384 124.402 24.8557C124.518 24.673 124.576 24.4986 124.576 24.3325V23.1616C124.244 23.0287 123.871 22.9291 123.455 22.8626C123.057 22.7796 122.683 22.7381 122.334 22.7381C121.603 22.7381 120.997 22.9042 120.516 23.2363C120.034 23.5519 119.793 23.9754 119.793 24.5069C119.793 24.8059 119.876 25.0799 120.042 25.3291C120.208 25.5782 120.433 25.7775 120.715 25.927C121.014 26.0765 121.363 26.1512 121.761 26.1512C122.16 26.1512 122.558 26.0765 122.957 25.927C123.356 25.7775 123.688 25.5865 123.954 25.354ZM136.783 28.817C135.919 28.817 135.13 28.6509 134.416 28.3187C133.702 27.9699 133.087 27.4965 132.572 26.8986C132.074 26.2841 131.684 25.5782 131.401 24.781C131.119 23.9837 130.978 23.1284 130.978 22.2149C130.978 21.2516 131.127 20.363 131.426 19.5491C131.725 18.7353 132.14 18.0211 132.672 17.4066C133.22 16.7754 133.86 16.2938 134.59 15.9616C135.338 15.6128 136.16 15.4384 137.057 15.4384C138.037 15.4384 138.9 15.6543 139.648 16.0862C140.395 16.5014 140.993 17.0827 141.442 17.8301V15.6875H144.904V27.8702C144.904 29.199 144.581 30.345 143.933 31.3083C143.302 32.2716 142.413 33.0107 141.267 33.5256C140.138 34.0571 138.826 34.3228 137.331 34.3228C135.936 34.3228 134.731 34.0903 133.718 33.6253C132.722 33.1768 131.85 32.5374 131.102 31.7069L133.245 29.5395C133.727 30.0875 134.325 30.5194 135.039 30.835C135.753 31.1671 136.517 31.3332 137.331 31.3332C137.979 31.3332 138.576 31.217 139.125 30.9844C139.673 30.7519 140.104 30.3782 140.42 29.8633C140.752 29.3484 140.918 28.6841 140.918 27.8702V26.5997C140.52 27.3138 139.938 27.8619 139.174 28.2439C138.427 28.626 137.63 28.817 136.783 28.817ZM138.153 25.6529C138.469 25.6529 138.759 25.6114 139.025 25.5284C139.307 25.4287 139.565 25.3042 139.797 25.1547C140.03 24.9886 140.246 24.7976 140.445 24.5817C140.644 24.3491 140.802 24.1 140.918 23.8343V21.0938C140.752 20.6287 140.511 20.2301 140.196 19.8979C139.88 19.5491 139.531 19.2834 139.149 19.1007C138.767 18.918 138.369 18.8266 137.954 18.8266C137.538 18.8266 137.148 18.918 136.783 19.1007C136.417 19.2834 136.102 19.5491 135.836 19.8979C135.587 20.2301 135.388 20.6038 135.238 21.019C135.105 21.4343 135.039 21.8661 135.039 22.3145C135.039 22.7962 135.113 23.2363 135.263 23.635C135.429 24.0336 135.653 24.3907 135.936 24.7062C136.218 25.0052 136.55 25.2377 136.932 25.4038C137.314 25.5699 137.721 25.6529 138.153 25.6529ZM147.063 24.8557C147.063 23.992 147.304 23.2363 147.785 22.5886C148.267 21.9408 148.931 21.4343 149.779 21.0689C150.626 20.6869 151.597 20.4959 152.693 20.4959C153.225 20.4959 153.748 20.5457 154.263 20.6453C154.778 20.7284 155.226 20.8529 155.608 21.019V20.446C155.608 19.7318 155.392 19.1837 154.961 18.8017C154.529 18.4197 153.873 18.2287 152.992 18.2287C152.262 18.2287 151.572 18.3533 150.925 18.6024C150.293 18.8516 149.621 19.2087 148.907 19.6737L147.711 17.1325C148.574 16.5678 149.471 16.1443 150.401 15.8619C151.348 15.5796 152.345 15.4384 153.391 15.4384C155.351 15.4384 156.871 15.9118 157.95 16.8585C159.046 17.7886 159.594 19.1422 159.594 20.9194V24.3325C159.594 24.7311 159.653 25.0135 159.769 25.1796C159.902 25.3291 160.126 25.4204 160.442 25.4536V28.7671C160.109 28.8336 159.794 28.8834 159.495 28.9166C159.212 28.9498 158.963 28.9664 158.747 28.9664C158 28.9664 157.427 28.817 157.028 28.518C156.646 28.219 156.406 27.8121 156.306 27.2972L156.231 26.7242C155.65 27.4716 154.952 28.0446 154.138 28.4433C153.341 28.8253 152.502 29.0163 151.622 29.0163C150.758 29.0163 149.978 28.8336 149.28 28.4682C148.599 28.1028 148.06 27.6045 147.661 26.9734C147.262 26.3422 147.063 25.6363 147.063 24.8557ZM154.985 25.354C155.168 25.2045 155.318 25.0384 155.434 24.8557C155.55 24.673 155.608 24.4986 155.608 24.3325V23.1616C155.276 23.0287 154.902 22.9291 154.487 22.8626C154.089 22.7796 153.715 22.7381 153.366 22.7381C152.635 22.7381 152.029 22.9042 151.547 23.2363C151.066 23.5519 150.825 23.9754 150.825 24.5069C150.825 24.8059 150.908 25.0799 151.074 25.3291C151.24 25.5782 151.464 25.7775 151.747 25.927C152.046 26.0765 152.394 26.1512 152.793 26.1512C153.192 26.1512 153.59 26.0765 153.989 25.927C154.388 25.7775 154.72 25.5865 154.985 25.354ZM183.41 28.7671H179.424V21.4177C179.424 20.5706 179.266 19.9478 178.951 19.5491C178.635 19.1505 178.228 18.9512 177.73 18.9512C177.199 18.9512 176.675 19.1671 176.161 19.599C175.646 20.0308 175.28 20.5872 175.064 21.2682V28.7671H171.078V21.4177C171.078 20.554 170.92 19.9311 170.605 19.5491C170.289 19.1505 169.882 18.9512 169.384 18.9512C168.869 18.9512 168.354 19.1671 167.839 19.599C167.325 20.0308 166.951 20.5872 166.718 21.2682V28.7671H162.732V15.6875H166.32V17.8799C166.801 17.0993 167.449 16.5014 168.263 16.0862C169.093 15.6543 170.057 15.4384 171.153 15.4384C172.233 15.4384 173.063 15.6959 173.644 16.2107C174.226 16.709 174.599 17.2986 174.765 17.9796C175.264 17.1657 175.92 16.5429 176.734 16.1111C177.564 15.6626 178.494 15.4384 179.524 15.4384C180.354 15.4384 181.027 15.5962 181.542 15.9118C182.057 16.2107 182.447 16.6093 182.713 17.1076C182.979 17.6059 183.161 18.1457 183.261 18.727C183.361 19.2917 183.41 19.8481 183.41 20.3962V28.7671ZM192.518 29.0163C191.406 29.0163 190.417 28.8419 189.554 28.4931C188.69 28.1277 187.951 27.6377 187.336 27.0232C186.738 26.4087 186.282 25.7028 185.966 24.9055C185.651 24.0917 185.493 23.2446 185.493 22.3644C185.493 21.1021 185.767 19.9561 186.315 18.9263C186.88 17.8799 187.685 17.0412 188.731 16.41C189.778 15.7623 191.04 15.4384 192.518 15.4384C193.997 15.4384 195.251 15.754 196.28 16.3851C197.327 17.0163 198.124 17.8467 198.672 18.8765C199.22 19.8896 199.494 20.9941 199.494 22.19C199.494 22.4225 199.478 22.655 199.444 22.8875C199.428 23.1035 199.411 23.2945 199.394 23.4606H189.728C189.778 24.0419 189.936 24.5318 190.201 24.9305C190.484 25.3291 190.841 25.6363 191.273 25.8523C191.705 26.0516 192.161 26.1512 192.643 26.1512C193.241 26.1512 193.797 26.01 194.312 25.7277C194.844 25.4453 195.209 25.0633 195.408 24.5817L198.797 25.5284C198.464 26.2093 197.991 26.8156 197.376 27.3471C196.779 27.8619 196.064 28.2689 195.234 28.5678C194.42 28.8668 193.515 29.0163 192.518 29.0163ZM189.628 21.019H195.309C195.242 20.4709 195.084 19.9976 194.835 19.599C194.586 19.1837 194.254 18.8682 193.839 18.6523C193.424 18.4197 192.967 18.3035 192.469 18.3035C191.954 18.3035 191.489 18.4197 191.073 18.6523C190.675 18.8682 190.351 19.1837 190.102 19.599C189.853 19.9976 189.695 20.4709 189.628 21.019Z" fill="#E2E8F0"/>
</g>
<defs>
<clipPath id="clip0_21_1308">
<rect width="200" height="39.4464" fill="white"/>
</clipPath>
</defs>
</svg>
